<svg xmlns="http://www.w3.org/2000/svg" xmlns:xlink="http://www.w3.org/1999/xlink" width="16" height="16" viewBox="0 0 16 16">
	<g fill="none" fill-rule="evenodd" mask="url(#mask)">
		<rect width="10.4" height="10.4" x="2.8" y="2.8" fill="#F4AF3D" fill-opacity=".6" rx="1" transform="rotate(45 8 8)"/>
		<path fill="#231F20" fill-opacity=".7" d="M5,4.28253174 C4.53,4.74153174 4.028,4.978 3.1,5 C2.061,5.022 1,4.2794 1,3.0004 C1,1.7124 1.971,1 3.1,1 C3.94833171,1 4.54833171,1.18475342 4.9,1.55426025 L5.5162,0.836730957 C4.8293999,0.270175195 4.28826904,0.0004 3.0982,0.0004 C1.3402,0.0004 0.0002,1.3584 0.0002,3.0004 C0.0002,4.6824 1.3642,6.0004 3.0022,6.0004 C4.29284668,6.0004 5.0232,5.5934 5.6162,4.9814 C5.2054,4.51548783 5,4.28253174 5,4.28253174 Z" transform="translate(5 5)"/>
	</g>
	<use xlink:href="#avro" fill="#0040ff" fill-opacity=".7" transform="translate(8 16) scale(8)"/>
	<defs>
		<path id="avro" d="M 0.5,0 h -0.5 l 0.214,-0.184 s -0.143,-0.03 -0.214,-0.173 h 0.417 l 0.083,-0.072 l 0.083,0.072 h 0.417 s -0.071,0.143 -0.214,0.173 l 0.214,0.184 z"/>
		<mask id="mask">
			<rect width="16" height="16" fill="white"/>
			<use xlink:href="#avro" transform="translate(8 16) scale(8)" fill="black" stroke="black" stroke-width="0.2"/>
		</mask>
	</defs>
</svg>
