<svg xmlns="http://www.w3.org/2000/svg" width="16" height="16" viewBox="0 0 32 32">
	<!--<rect x="0" y="0" width="100%" height="100%" fill="#2b2d30"/>-->
	<path fill="#1cccfc" stroke="#0068e0" stroke-linejoin="round" stroke-width="1" d="
	M 15 5 L 9 8 L 15 11 L 9 8 V 16 L 15 19 V 11 V 19 L 21 16 V 8 L 15 11 L 21 8 Z
	M 9 13 L 3 16 L 9 19 L 3 16 V 24 L 9 27 V 19 V 27 L 15 24 V 19 L 12 17.5 L 9 19 L 12 17.5 L 9 16 Z
	M 23 11 L 21 12 V 16 L 23 17 L 21 16 L 17 18 V 22 L 23 25 V 17 V 25 L 29 22 V 14 L 23 17 L 29 14 Z"/>
</svg>
