<svg xmlns="http://www.w3.org/2000/svg" xmlns:xlink="http://www.w3.org/1999/xlink" width="16" height="16" viewBox="0 0 16 16">
	<g fill="none" fill-rule="evenodd" mask="url(#mask)">
		<path fill="#62B543" fill-opacity=".6" d="M15,8 C15,11.866 11.866,15 8,15 C4.134,15 1,11.866 1,8 C1,4.134 4.134,1 8,1 C11.866,1 15,4.134 15,8"/>
		<polygon fill="#231F20" points="8.6 10 8.6 6 10 6 10 5 6 5 6 6 7.4 6 7.4 10 6 10.007 6 11 10 11 10 10" opacity=".7"/>
	</g>
	<use xlink:href="#avro" fill="#00a0ff" fill-opacity=".7" transform="translate(8 16) scale(8)"/>
	<defs>
		<path id="avro" d="M 0.5,0 h -0.5 l 0.214,-0.184 s -0.143,-0.03 -0.214,-0.173 h 0.417 l 0.083,-0.072 l 0.083,0.072 h 0.417 s -0.071,0.143 -0.214,0.173 l 0.214,0.184 z"/>
		<mask id="mask">
			<rect width="16" height="16" fill="white"/>
			<use xlink:href="#avro" transform="translate(8 16) scale(8)" fill="black" stroke="black" stroke-width="0.2"/>
		</mask>
	</defs>
</svg>
