<svg xmlns="http://www.w3.org/2000/svg" xmlns:xlink="http://www.w3.org/1999/xlink" width="16" height="16" viewBox="0 0 16 16">
	<path mask="url(#mask)" fill="#9AA7B0" fill-opacity=".8" fill-rule="evenodd" d="M6,10.4951 C4.896,10.4951 4.001,9.6001 4,8.4981 C3.999,7.3941 4.894,6.5001 5.997,6.5001 C7.102,6.5001 7.997,7.3941 7.998,8.4981 C7.999,9.6001 7.104,10.4951 6,10.4951 Z M7.984,4.0001 L6.696,2.7111 C6.305,2.3201 5.532,2.0001 4.979,2.0001 L1.051,2.0001 C1.023,2.0001 1,2.0231 1,2.0511 L1,13.0001 L15,13.0001 L15,4.0001 L7.984,4.0001 Z"/>
	<use xlink:href="#avro" fill="#0040ff" fill-opacity=".7" transform="translate(8 16) scale(8)"/>
	<defs>
		<path id="avro" d="M 0.5,0 h -0.5 l 0.214,-0.184 s -0.143,-0.03 -0.214,-0.173 h 0.417 l 0.083,-0.072 l 0.083,0.072 h 0.417 s -0.071,0.143 -0.214,0.173 l 0.214,0.184 z"/>
		<mask id="mask">
			<rect width="16" height="16" fill="white"/>
			<use xlink:href="#avro" transform="translate(8 16) scale(8)" fill="black" stroke="black" stroke-width="0.2"/>
		</mask>
	</defs>
</svg>
