<svg xmlns="http://www.w3.org/2000/svg" xmlns:xlink="http://www.w3.org/1999/xlink" width="16" height="16" viewBox="0 0 16 16">
	<g fill="none" fill-rule="evenodd" mask="url(#mask)">
		<path fill="#F4AF3D" fill-opacity=".6" d="M15,8 C15,11.866 11.866,15 8,15 C4.134,15 1,11.866 1,8 C1,4.134 4.134,1 8,1 C11.866,1 15,4.134 15,8"/>
		<path fill="#231F20" fill-opacity=".7"
		      d="M0.9974,2.8021 C0.9974,3.83569336 1.23855513,4.8771 2.5354,4.8771 C3.83224487,4.8771 4,3.4641 4,2.7921 C4,2.1061 3.90228271,0.7461 2.5244,0.7461 C1.14651729,0.7461 0.9974,1.76850664 0.9974,2.8021 Z M1,5 C1.008,5.074 1.00713333,6.074 0.9974,8 L0.0004,8 L0.0004,0.0001 L0.9974,0.0001 L0.9974,0.7461 C1.36693099,0.248766667 1.93993099,0.0001 2.7164,0.0001 C3.88110352,0.0001 5.0004,0.578186035 5.0004,2.8021 C5.0004,5.02601396 3.65454102,5.6231 2.7164,5.6231 C2.09097266,5.6231 1.51883932,5.4154 1,5 Z"
		      transform="translate(6 5)"/>
	</g>
	<use xlink:href="#avro" fill="#00a0ff" fill-opacity=".7" transform="translate(8 16) scale(8)"/>
	<defs>
		<path id="avro" d="M 0.5,0 h -0.5 l 0.214,-0.184 s -0.143,-0.03 -0.214,-0.173 h 0.417 l 0.083,-0.072 l 0.083,0.072 h 0.417 s -0.071,0.143 -0.214,0.173 l 0.214,0.184 z"/>
		<mask id="mask">
			<rect width="16" height="16" fill="white"/>
			<use xlink:href="#avro" transform="translate(8 16) scale(8)" fill="black" stroke="black" stroke-width="0.2"/>
		</mask>
	</defs>
</svg>
