<svg xmlns="http://www.w3.org/2000/svg" width="160" height="160" viewBox="0 0 16 16">
	<g fill="none" fill-rule="evenodd">
		<polygon fill="#9AA7B0" fill-opacity=".8" points="7 1 3 5 7 5"/>
		<polygon fill="#9AA7B0" fill-opacity=".8" points="8 1 8 6 3 6 3 8 13 8 13 1"/>
		<polygon fill="#0040FF" fill-opacity=".7" points="1 15 15 15 15 9 1 9"/>
		<path fill="#231f20" fill-opacity=".7" transform="translate(-0.9,-0.5)"
			  d="M 6.020,15 H 5.432 L 4.898,13.312 H 3.316 L 2.776,15 H 2.195 L 3.771,10.177 H 4.444 Z M 4.738,12.823 4.105,10.827 3.477,12.823 Z"/>
		<path fill="#231f20" fill-opacity=".7" transform="translate(-2.2,-0.5)"
			  d="M 10.2,10.177 8.627,15 H 7.954 L 6.378,10.177 h 0.588 l 1.323,4.173 1.33,-4.173 z"/>
		<path fill="#231f20" fill-opacity=".7" transform="translate(-2.85,-0.5)"
			  d="m 14.407,15 h -0.701 l -1.415,-2.191 h -0.622 V 15 h -0.561 v -4.823 h 1.364 q 0.687,0 1.083,0.335 0.4,0.332 0.4,0.926 0,0.441 -0.291,0.786 -0.291,0.342 -0.8,0.465 z m -2.738,-2.68 h 0.708 q 0.444,0 0.721,-0.239 0.277,-0.243 0.277,-0.608 0,-0.807 -0.984,-0.807 h -0.721 z"/>
		<path fill="#231f20" fill-opacity=".7" transform="translate(-3.65,-0.5)"
			  d="m 16.684,10.085 q 0.81,0 1.234,0.643 0.427,0.639 0.427,1.863 0,1.217 -0.424,1.859 -0.424,0.643 -1.237,0.643 -0.807,0 -1.234,-0.639 -0.424,-0.643 -0.424,-1.863 0,-1.22 0.424,-1.863 0.424,-0.643 1.234,-0.643 z m 0,4.515 q 1.066,0 1.066,-2.01 0,-2.013 -1.066,-2.013 -0.52,0 -0.793,0.523 -0.27,0.52 -0.27,1.49 0,0.981 0.270,1.497 0.27,0.513 0.793,0.513 z"/>
		<!--
		<path fill="#231f20" fill-opacity=".7" transform="translate(-0.5,0)"
			  d="M 6.0195312,15 H 5.4316406 L 4.8984375,13.311523 H 3.315918 L 2.7758789,15 H 2.1948242 L 3.7705078,10.177246 H 4.4438477 Z M 4.737793,12.822754 4.1054687,10.82666 3.4765625,12.822754 Z"/>
		<path fill="#231f20" fill-opacity=".7" transform="translate(-1.7,0)"
			  d="M 10.199707,10.177246 8.6274414,15 H 7.9541016 L 6.378418,10.177246 h 0.5878906 l 1.3227539,4.17334 1.3295898,-4.17334 z"/>
		<path fill="#231f20" fill-opacity=".7" transform="translate(-2.2,0)"
			  d="m 14.407227,15 h -0.700684 l -1.415039,-2.190918 h -0.62207 V 15 h -0.560547 v -4.822754 h 1.363769 q 0.687012,0 1.083496,0.334961 0.399903,0.331543 0.399903,0.92627 0,0.440918 -0.290528,0.786132 -0.290527,0.341797 -0.799804,0.464844 z m -2.737793,-2.679687 h 0.707519 q 0.444336,0 0.721192,-0.239258 0.276855,-0.242676 0.276855,-0.608399 0,-0.80664 -0.984375,-0.80664 h -0.721191 z"/>
		<path fill="#231f20" fill-opacity=".7" transform="translate(-3,0)"
			  d="m 16.683594,10.084961 q 0.810058,0 1.233886,0.642578 0.427247,0.63916 0.427247,1.862793 0,1.216797 -0.423829,1.859375 -0.423828,0.642578 -1.237304,0.642578 -0.806641,0 -1.233887,-0.63916 -0.423828,-0.642578 -0.423828,-1.862793 0,-1.220215 0.423828,-1.862793 0.423828,-0.642578 1.233887,-0.642578 z m 0,4.515137 q 1.066406,0 1.066406,-2.009766 0,-2.013184 -1.066406,-2.013184 -0.519532,0 -0.792969,0.52295 -0.27002,0.519531 -0.27002,1.490234 0,0.980957 0.27002,1.49707 0.27002,0.512696 0.792969,0.512696 z"/>
		-->
		<!--<polygon fill="#231F20" points="0 5 1 5 1 0 0 0" transform="translate(3 10)"/>-->
		<!--<path fill="#231F20" fill-opacity=".7" d="M1,1 L1,4 L1.649,4 C2.578,4 3,3.493 3,2.515 L3,2.5 C3,1.522 2.578,1 1.649,1 L1,1 Z M0,0 L1.649,0 C3.04,0 4,1.093 4,2.5 C4,3.921 3.04,5 1.649,5 L0,5 L0,0 Z" transform="translate(5 10)"/>-->
		<!--<polygon fill="#231F20" fill-opacity=".7" points="0 0 1 0 1 4 3.5 4 3.5 5 0 5" transform="translate(10 10)"/>-->
	</g>
</svg>
