<?xml version="1.0" encoding="UTF-8" standalone="no"?>
<svg version="1.1" id="svg52" width="400" height="144" viewBox="0 0 134.57944 48.448597" xmlns="http://www.w3.org/2000/svg">
	<g>
		<path fill="#0040ff" fill-opacity="1" stroke-width="0.448598"
		      d="M 67.289719,48.47863 H 0.26915813 L 0.69532613,48.096146 1.1214941,47.713663 16.753091,37.217642 32.384689,26.721621 28.416643,26.459185 24.448597,26.196749 23.238414,25.694161 22.02823,25.191574 21.29174,24.067548 20.55525,22.943522 19.688026,22.668277 18.820803,22.39303 15.130027,18.639893 11.439251,14.886755 8.9719621,11.919643 l -2.46729,-2.9671115 -2.109712,-2.423975 -2.109711,-2.423974 -0.694027,-1.3421 -0.69402697,-1.3421 v -0.72520802 -0.725208 l 1.90654197,1.54603502 1.906542,1.546035 1.807894,0.910079 1.807894,0.910079 2.6780869,0.800437 2.678088,0.800438 5.831776,-0.02051 5.831776,-0.02051 4.261682,-0.52054 4.261682,-0.520539 5.241722,-0.416702 5.241721,-0.416702 4.403138,0.445272 4.403139,0.445273 3.621676,1.242582 3.621681,1.242582 3.107291,-2.138438 3.107296,-2.138438 h 0.672897 0.672897 l 3.107296,2.138438 3.107291,2.138438 3.621681,-1.242582 3.621676,-1.242582 4.403139,-0.445273 4.40314,-0.445272 5.24172,0.416702 5.241721,0.416702 4.26168,0.520539 4.26169,0.52054 5.83177,0.02051 5.83178,0.02051 2.67808,-0.800438 2.67809,-0.800437 1.80789,-0.910079 1.8079,-0.910079 1.90654,-1.546035 1.90654,-1.54603502 v 0.725208 0.72520802 l -0.69402,1.3421 -0.69403,1.3421 -2.10971,2.423974 -2.10971,2.423975 -2.46729,2.9671115 -2.46729,2.967112 -3.69078,3.753138 -3.69077,3.753137 -0.86723,0.275247 -0.86722,0.275245 -0.73649,1.124026 -0.73649,1.124026 -1.21019,0.502587 -1.21018,0.502588 -3.96804,0.262436 -3.96805,0.262436 15.6316,10.496021 15.63159,10.496021 0.42617,0.382483 0.42617,0.382484 z m 0,-0.897196 H 130.2729 L 129.84673,47.19297 129.42056,46.804507 98.597449,26.108859 67.774335,5.4132105 H 67.289719 66.805103 L 35.98199,26.108859 5.1588771,46.804507 4.7327091,47.19297 4.3065411,47.581434 Z m 0,-1.345795 H 9.8691581 l 0.01886,-0.336448 0.01886,-0.336449 L 38.37872,26.497322 66.85056,7.4319025 h 0.429183 0.429178 l 28.48294,19.0654195 28.482949,19.06542 0.0177,0.336449 0.0177,0.336448 z m 12.11215,-2.691588 h 0.448598 v -0.396278 -0.396277 l 0.936211,-0.244825 0.936215,-0.244825 -0.155004,-0.816842 -0.155,-0.816841 -1.229809,-0.141946 -1.22981,-0.141947 v 1.59989 1.599891 z m 0.719627,-1.46729 -0.271029,0.271028 0.03539,-0.859813 0.03539,-0.859813 0.235612,0.588785 0.235613,0.588785 -0.271025,0.271028 z m 3.766354,1.46729 h 0.448598 v -0.396278 -0.396277 l 0.936211,-0.244825 0.936215,-0.244825 -0.155004,-0.816842 -0.154999,-0.816841 -1.22981,-0.141946 -1.229809,-0.141947 v 1.59989 1.599891 z m 0.719628,-1.46729 -0.27103,0.271028 0.03539,-0.859813 0.0354,-0.859813 0.235613,0.588785 0.235612,0.588785 -0.271025,0.271028 z m -47.06295,0.570093 h 0.406873 l 0.556998,-0.556997 0.556998,-0.556998 0.378036,0.611675 0.378036,0.611675 0.466282,-0.166827 0.466283,-0.166827 -0.617044,-1.457944 -0.617044,-1.457943 h -0.642232 -0.642232 l -0.225725,0.785046 -0.225725,0.785047 -0.323189,0.785047 -0.323189,0.785046 z m 1.25921,-1.345794 h -0.2243 v -0.224299 -0.224299 h 0.2243 0.224299 v 0.224299 0.224299 z m 4.920132,1.345794 h 0.626884 l 0.295489,-0.931003 0.295488,-0.931002 -0.28965,-0.289651 -0.28965,-0.28965 -0.417337,0.659905 -0.417337,0.659906 -0.0069,-0.560748 -0.0069,-0.560747 H 42.84106 42.168163 v 0.25379 0.253791 l 0.464381,0.867704 0.464382,0.867705 z m 3.827531,0 h 0.448598 V 41.973957 41.30106 h 0.448598 0.448599 v -0.448598 -0.448598 h -0.897197 -0.897196 v 1.121495 1.121495 z m 4.371279,-0.08211 1.236198,-0.142193 v -0.897192 -0.897196 l -1.061087,-0.15013 -1.061083,-0.15013 -0.456426,0.456425 -0.456426,0.456425 0.281316,0.733094 0.281316,0.733094 z m -0.06287,-0.487987 -0.27103,0.271028 0.03544,-0.859813 0.03539,-0.859813 0.235613,0.588785 0.235612,0.588785 z m 3.990653,0.570093 h 0.897196 v -1.570093 -1.570093 h -0.897196 -0.897197 v 1.570093 1.570093 z m 4.253136,0 h 1.337249 l 0.275076,-1.095999 0.27508,-1.095999 -0.293006,-0.474094 -0.293007,-0.474094 H 60.085669 58.76635 v 1.570093 1.570093 z m 0.0085,-0.672897 -0.448598,0.277249 v -1.174445 -1.174445 l 0.448598,0.277249 0.448598,0.277249 v 0.619947 0.619947 z m 4.82243,0.62086 1.233645,-0.05204 -0.785047,-0.205154 -0.785047,-0.205154 v -1.312901 -1.312901 h -0.448598 -0.448598 v 1.570093 1.570093 z m 6.021528,-0.03169 1.423397,-0.140572 0.193956,-0.590386 0.193961,-0.590386 -0.944456,-0.246982 -0.944461,-0.246981 v -0.426503 -0.426507 l 0.897196,0.284759 0.897197,0.284759 v -0.478828 -0.478828 h -1.319319 -1.319322 l -0.315288,0.510152 -0.315293,0.510152 1.073863,0.863762 1.073863,0.863761 -1.009346,-0.282648 -1.009345,-0.282649 v 0.507251 0.50725 l 1.423397,-0.140572 z m 4.904972,0.08373 h 1.297799 v -1.121495 -1.121495 h -0.672897 -0.672897 l -0.06109,1.009346 -0.06109,1.009345 -0.194409,-1.009345 -0.194409,-1.009346 h -0.641697 -0.641697 v 0.411908 0.411909 l 0.272295,0.709587 0.272294,0.709586 z m 13.295246,-0.08211 1.236194,-0.142193 v -0.897191 -0.897196 l -1.06108,-0.15013 -1.061086,-0.15013 -0.456426,0.456425 -0.456426,0.456425 0.281316,0.733094 0.281316,0.733094 z m -0.06287,-0.487987 -0.27103,0.271028 0.0354,-0.859813 0.03539,-0.859813 0.235613,0.588785 0.235611,0.588785 -0.271023,0.271028 z m 3.766354,0.570093 h 0.4486 v -0.672897 -0.672897 h 0.4486 0.44859 v -0.448598 -0.448598 h -0.89719 -0.8972 v 1.121495 1.121495 z m 4.20183,-0.03542 0.95705,-0.03541 -0.56075,-0.226267 -0.56075,-0.226266 v -0.635514 -0.635514 h 0.48064 0.48065 l -0.74565,-0.74565 -0.74566,-0.745651 -0.34013,0.550352 -0.34014,0.550351 0.20885,1.092495 0.20884,1.092495 z m -64.311978,-5.798179 6.502671,-0.0018 1.388994,-5.044909 1.388994,-5.044909 -0.112829,-0.144395 -0.112829,-0.144396 -7.778835,5.191125 -7.778836,5.191124 z m 11.661549,0.0018 h 1.794393 V 36.366481 35.917883 H 44.41116 42.616768 v 0.448598 0.448598 z m 8.525662,0 h 3.089531 l -0.613521,-2.130841 -0.613521,-2.130841 -1.621503,-5.607477 -1.621507,-5.607476 -0.198267,-0.57185 -0.198262,-0.571849 -2.47711,1.644707 -2.477109,1.644708 v 0.629822 0.629822 l 1.624943,5.699189 1.624948,5.699189 0.195921,0.336448 0.195921,0.336449 z m 10.06093,0 h 3.843315 V 23.357135 9.8991925 h -0.431309 -0.431305 l -0.44361,1.6822425 -0.443609,1.682243 -2.732564,10.990653 -2.732568,10.990654 -0.235833,0.785047 -0.235832,0.785047 z m 9.910959,0 h 2.927462 l -2.769277,-4.149533 -2.769277,-4.149532 -0.158185,-0.186916 -0.15818,-0.186916 v 4.336448 4.336449 z m 9.970569,0 h 3.282725 l -1.558314,-1.368218 -1.558313,-1.368217 -0.528332,-1.600865 -0.528332,-1.600865 0.227314,-2.016743 0.227318,-2.016743 0.875623,-1.182399 0.875623,-1.182398 1.398397,-0.95231 1.398402,-0.952309 -5.247495,-3.533672 -5.247495,-3.533672 -0.67051,-0.417236 -0.670515,-0.417235 0.777425,1.202282 0.777425,1.202283 0.74269,1.149268 0.742686,1.149268 0.04235,1.954582 0.04235,1.954581 -1.053658,1.121763 -1.053654,1.121762 -1.413636,0.562091 -1.413632,0.562091 -0.188312,0.148275 -0.188317,0.148273 3.313727,4.933182 3.313745,4.933181 z m 16.485149,-0.01853 8.971971,0.0174 -6.72897,-4.486826 -6.728981,-4.486826 -0.25876,2.590224 -0.25877,2.590224 -0.81485,1.243619 -0.81485,1.243618 -1.16938,0.635588 -1.16937,0.635589 8.97196,0.0174 z M 88.584013,34.12349 h 0.727796 l 1.1011,-1.101104 1.10111,-1.101105 v -2.059473 -2.059473 l -1.10111,-1.101105 -1.1011,-1.101104 -0.805439,0.01427 -0.805436,0.01427 -0.711773,0.54648 -0.711768,0.546484 -0.521877,0.979855 -0.521872,0.979854 v 1.409793 1.409793 l 1.311289,1.311287 1.311283,1.311287 z M 44.521417,32.777696 h 0.882984 L 45.132107,32.068109 44.859812,31.358522 V 30.946614 30.534705 H 44.46351 44.067209 l -0.214388,1.121495 -0.214387,1.121496 z m 13.170621,-2.915888 0.167018,-0.448598 1.989362,-8.071763 1.989362,-8.071763 -0.114285,-0.114287 -0.114289,-0.114286 -3.836967,2.67714 -3.836968,2.677141 1.518312,5.28461 1.518316,5.28461 0.276556,0.672897 0.276561,0.672897 z m 13.343825,-6.056075 h 1.054551 l 1.394409,-0.486092 1.394405,-0.486093 0.277216,-0.873423 0.277211,-0.873424 -1.117898,-1.89282 -1.117897,-1.89282 -1.608279,-1.545944 -1.608273,-1.545944 v 4.79828 4.79828 z m -37.166705,1.764184 0.448598,0.01026 1.121496,-0.877247 1.121495,-0.877247 -0.722436,-0.01 -0.722435,-0.01 -2.193452,0.301863 -2.193453,0.301862 1.345795,0.575101 1.345794,0.5751 0.448598,0.01026 z m 66.662032,0.02023 0.26951,0.01 1.52488,-0.542835 1.52489,-0.542835 -1.79439,-0.328509 -1.7944,-0.328509 -1.121491,-0.01588 -1.1215,-0.01588 1.1215,0.877243 1.121491,0.877246 0.26951,0.01 z m -73.652686,-0.894089 2.429906,0.0069 -0.186915,-0.161512 -0.186916,-0.161513 -2.915888,-0.28297 -2.915888,-0.282971 0.672897,0.437613 0.672897,0.437614 2.429907,0.0069 z m 80.822426,0 2.42991,-0.0069 0.6729,-0.454986 0.6729,-0.454985 -2.91589,0.297011 -2.91589,0.297011 -0.18692,0.164844 -0.18691,0.164843 2.4299,-0.0069 z m -82.377566,-2.255811 1.771962,0.01969 -0.426168,-0.387995 -0.426168,-0.387994 -2.691589,-0.515707 -2.691589,-0.515706 -1.121495,-0.248659 -1.121495,-0.248659 0.897196,0.567953 0.897196,0.567953 1.570094,0.564717 1.570093,0.564716 z m 6.550231,0.01969 h 2.094639 l 2.081303,-0.285274 2.081303,-0.285275 v -0.672895 -0.672897 l -2.081303,0.285274 -2.081303,0.285275 -2.965426,0.01427 -2.965426,0.01427 0.870788,0.65863 0.870786,0.65863 z m 70.208885,-0.07179 2.718,0.07179 0.87079,-0.65863 0.87079,-0.65863 -2.96543,-0.01427 -2.96543,-0.01427 -2.081301,-0.285275 -2.0813,-0.285274 v 0.70545 0.70545 l 1.45794,0.180929 1.45795,0.180929 z m 7.88327,-0.05772 2.5265,-0.243334 1.73519,-0.958747 1.73518,-0.958747 -1.1215,0.241469 -1.12149,0.241469 -2.69159,0.515706 -2.69159,0.515707 -0.4486,0.444905 -0.4486,0.444906 z m -86.264816,-2.607139 0.598131,0.04506 -0.168103,-0.504308 -0.168103,-0.504308 -3.121617,-0.801035 -3.121617,-0.801035 -1.29586,-0.5016 -1.29586,-0.501601 -0.190724,0.190724 -0.190723,0.190724 2.472818,1.16983 2.472818,1.16983 1.705354,0.401327 1.705355,0.401328 z m 6.177185,0.0275 1.840737,0.01756 2.757394,-0.288204 2.757394,-0.288205 v -0.424963 -0.424962 l -3.700935,0.300119 -3.700934,0.30012 -2.190368,-0.499389 -2.190367,-0.499389 -0.232653,0.232654 -0.232653,0.232653 1.525824,0.662224 1.525824,0.662224 1.840737,0.01756 z m 73.874611,-0.06081 2.59385,0.07837 1.62456,-0.678786 1.62456,-0.678785 -0.23365,-0.233651 -0.23365,-0.233651 -2.19037,0.499389 -2.19037,0.499389 -3.70093,-0.30012 -3.700941,-0.300119 v 0.463074 0.463075 l 1.90655,0.17172 1.906541,0.171719 z m 8.28465,-0.187011 1.68225,-0.306038 2.19252,-0.853551 2.19252,-0.853552 0.94767,-0.710327 0.94766,-0.710326 -0.8972,0.309097 -0.89719,0.309097 -3.36449,0.928284 -3.36448,0.928284 -0.56075,0.149531 -0.56075,0.149531 v 0.483004 0.483005 z m -88.947038,-2.458163 0.436137,0.03196 -0.884735,-0.836062 -0.884736,-0.836062 -4.037383,-1.230704 -4.037383,-1.230704 -1.345794,-0.646539 -1.345795,-0.646539 0.897197,0.730397 0.897196,0.730397 2.24299,1.166114 2.242991,1.166114 2.691589,0.784835 2.691589,0.784834 0.436137,0.03196 z m 8.647975,0.0144 4.149533,0.01756 V 16.65464 16.232517 L 35.327102,15.869594 34.766354,15.50667 h -5.04534 -5.04534 l -0.0014,0.133805 -0.0014,0.133805 1.457944,0.633683 1.457944,0.633683 4.149533,0.01756 z m 71.005063,0.01756 h 4.05179 l 1.55569,-0.650007 1.55568,-0.650007 -0.001,-0.13504 -0.001,-0.13504 h -5.04534 -5.045341 l -0.56075,0.362924 -0.56075,0.362923 v 0.422123 0.422124 h 4.051801 z m 9.18185,-0.150718 0.8972,-0.244479 2.00737,-0.519741 2.00738,-0.519741 2.47861,-1.265072 2.4786,-1.265072 0.8972,-0.730894 0.8972,-0.730893 -1.3458,0.646539 -1.34579,0.646539 -4.03739,1.230704 -4.03738,1.230704 -0.8972,0.882943 -0.89719,0.882943 z m -63.060778,-1.296313 0.257043,-0.123065 4.59813,-3.096454 4.598131,-3.0964535 v -0.298257 -0.298258 l -2.35514,-0.734411 -2.35514,-0.734412 -2.915888,-0.465619 -2.915888,-0.465619 -3.405713,-0.0034 -3.405714,-0.0034 -9.379333,0.944186 -9.379333,0.944185 -5.114831,-0.215083 -5.114829,-0.215083 0.667675,0.37365 0.667675,0.37365 3.32566,0.905166 3.325659,0.9051655 4.037383,0.455694 4.037383,0.45569 3.600554,0.0037 3.600554,0.0037 3.775959,0.473465 3.775959,0.473465 2.12421,0.913811 2.12421,0.913811 0.784289,0.866629 0.784289,0.866629 0.257046,-0.123064 z m 36.860412,0.05311 0.26692,0.04812 0.774415,-0.855714 0.774411,-0.855714 2.124209,-0.913812 2.12421,-0.91381 3.77596,-0.473466 3.77596,-0.473465 3.600551,-0.0037 3.60056,-0.0037 4.03738,-0.45569 4.03738,-0.45569 3.32566,-0.9051665 3.32566,-0.905166 0.66768,-0.37365 0.66767,-0.373649 -5.11483,0.215082 -5.11483,0.215078 -9.37933,-0.944185 -9.379331,-0.944185 -3.40572,0.0034 -3.405711,0.0034 -2.915888,0.465618 -2.915888,0.46562 -2.364256,0.737285 -2.36426,0.737285 0.12127,0.351188 0.121265,0.351187 4.485981,3.1046755 4.485981,3.104675 0.266921,0.04812 z M 28.71028,14.30182 l 1.570093,-0.0228 1.345794,-0.323875 1.345795,-0.323875 -1.121496,-0.457087 -1.121495,-0.457086 -4.701152,-0.250795 -4.701153,-0.250796 0.888069,0.504042 0.888068,0.504041 2.018691,0.550514 2.018692,0.550513 z m 78.19868,-0.164284 2.60989,-0.193571 1.87609,-0.843408 1.87609,-0.843407 -4.71028,0.229975 -4.71028,0.229974 -1.1215,0.457086 -1.12149,0.457086 1.34579,0.349918 1.3458,0.349918 z m -88.080301,-1.103634 0.660436,0.0055 -0.884735,-0.817098 -0.884735,-0.817099 -2.691589,-0.80707 -2.691588,-0.8070935 -2.130841,-1.074977 -2.1308419,-1.074977 v 0.195269 0.195268 l 1.625537,1.004637 1.6255349,1.0046355 3.421194,1.493764 3.421192,1.493763 z m 97.582561,-0.198396 1.34579,-0.312789 3.58879,-1.706312 3.58878,-1.7063115 0.8972,-0.746064 0.89719,-0.746063 -2.24299,1.086537 -2.24299,1.086538 -2.69159,0.8070695 -2.69159,0.80707 -0.89719,0.871557 -0.8972,0.871557 z"/>
	</g>
</svg>
