<?xml version="1.0" encoding="UTF-8" standalone="no"?>
<svg xmlns="http://www.w3.org/2000/svg" version="1.1" width="842pt" height="596pt" viewBox="0 0 842 596">
  <path fill="#0068e0" d="m625.301 519.336 2.703 8.254 42.293 12.062zm0 0"/>
  <path fill="#000094" d="M640.066 505.668c.52 2.059-.027 3.367-3.359 3.043l33.422 30.973c.379.152.445-.102.183-.489zm0 0"/>
  <path fill="#1cccfc" d="M639.004 490.723s-1.192 1.125.062 2.582c.93 1.082 2.321.418 2.321.418s1.281-.719.308-2.235c-1.265-1.972-2.691-.765-2.691-.765zM670.379 539.82l-47.414-21.121s-15.492-9.582-13.887-13.367c1.563-3.664 15.371 3.719 16.832 4.059 1.461.343 2.274-.582 2.301-1.227.043-.93-2.051-3.59-.965-4.726 1.082-1.133 4.621 1.074 4.621 1.074l2.871 1.988zm0 0"/>
  <path fill="#1cccfc" d="m670.566 539.621-31.289-34.66s-5.636-6.399-5.402-8.231c.234-1.832 7.719 4.016 7.719 4.016s.832.801 1.621.664c.789-.133-.055-1.445-.055-1.445s-1.293-3.004-.43-3.543c.868-.535 3.059 1.726 3.059 1.726s.547.567 1.121.414c.574-.156.266-1.417.266-1.417s-3.957-9.125-2.231-9.805c2.633-1.043 6.383 6.508 7.641 8.859.316.649 17.98 43.422 17.98 43.422zM621.738 496.734s-1.605 1.063.18 3.106c1.641 1.883 3.102.906 3.102.906s1.515-.926.062-2.672c-1.922-2.308-3.344-1.34-3.344-1.34zm0 0"/>
</svg>
