<?xml version="1.0" encoding="UTF-8" standalone="no"?>
<svg
   width="842pt"
   height="596pt"
   viewBox="0 0 842 596"
   version="1.1"
   id="svg831"
   sodipodi:docname="Apache-Avro-Logo-v6.1.svg"
   inkscape:version="1.3 (0e150ed, 2023-07-21)"
   xmlns:inkscape="http://www.inkscape.org/namespaces/inkscape"
   xmlns:sodipodi="http://sodipodi.sourceforge.net/DTD/sodipodi-0.dtd"
   xmlns="http://www.w3.org/2000/svg"
   xmlns:svg="http://www.w3.org/2000/svg">
  <defs
     id="defs831" />
  <sodipodi:namedview
     id="namedview831"
     pagecolor="#ffffff"
     bordercolor="#000000"
     borderopacity="0.25"
     inkscape:showpageshadow="2"
     inkscape:pageopacity="0.0"
     inkscape:pagecheckerboard="0"
     inkscape:deskcolor="#d1d1d1"
     inkscape:document-units="pt"
     inkscape:zoom="0.71704276"
     inkscape:cx="824.91594"
     inkscape:cy="-43.233126"
     inkscape:window-width="1392"
     inkscape:window-height="1051"
     inkscape:window-x="0"
     inkscape:window-y="472"
     inkscape:window-maximized="0"
     inkscape:current-layer="svg831" />
  <g
     id="use335"
     transform="matrix(9.00118,0,0,-9.01095,570.553,17.727)">
    <path
       d="M 0.74,0.727 0.475,0 H 0.265 L 0,0.727 h 0.197 l 0.176,-0.51 0.175,0.51 z"
       id="path1436" />
  </g>
  <g
     id="use336"
     transform="matrix(9.00118,0,0,-9.01095,577.913,17.863)">
    <path
       d="M 0.595,0.263 A 0.272,0.272 0 0 0 0.575,0.157 0.23,0.23 0 0 0 0.517,0.074 0.273,0.273 0 0 0 0.425,0.02 0.352,0.352 0 0 0 0.303,0 0.386,0.386 0 0 0 0.183,0.018 0.246,0.246 0 0 0 0.023,0.181 0.6,0.6 0 0 0 0.022,0.51 c 0.015,0.049 0.039,0.093 0.072,0.13 a 0.317,0.317 0 0 0 0.124,0.086 c 0.05,0.02 0.112,0.03 0.182,0.03 A 0.688,0.688 0 0 0 0.533,0.744 V 0.6 H 0.515 A 0.278,0.278 0 0 1 0.399,0.622 0.214,0.214 0 0 1 0.252,0.576 0.197,0.197 0 0 1 0.19,0.45 0.394,0.394 0 0 0 0.27,0.486 0.3,0.3 0 0 0 0.439,0.49 0.204,0.204 0 0 0 0.57,0.383 0.262,0.262 0 0 0 0.594,0.263 M 0.373,0.153 c 0.01,0.012 0.018,0.025 0.023,0.04 A 0.17,0.17 0 0 1 0.406,0.255 0.14,0.14 0 0 1 0.396,0.313 0.092,0.092 0 0 1 0.367,0.35 0.099,0.099 0 0 1 0.326,0.368 0.224,0.224 0 0 1 0.188,0.356 a 0.422,0.422 0 0 0 0,-0.044 c 0,-0.04 0.003,-0.073 0.011,-0.1 A 0.147,0.147 0 0 1 0.231,0.154 C 0.241,0.143 0.251,0.135 0.264,0.13 a 0.102,0.102 0 0 1 0.109,0.022 z"
       id="path1487" />
  </g>
  <g
     id="use337"
     transform="matrix(9.00118,0,0,-9.01095,584.528,17.727)">
    <path
       d="M 0.183,0 H 0 v 0.192 h 0.183 z"
       id="path1450" />
  </g>
  <g
     id="use338"
     transform="matrix(9.00118,0,0,-9.01095,588.143,17.727)">
    <path
       d="M 0.485,0 H 0 V 0.127 H 0.153 V 0.511 H 0 V 0.63 a 0.56,0.56 0 0 1 0.067,0.004 c 0.022,0.003 0.04,0.008 0.054,0.014 A 0.09,0.09 0 0 1 0.16,0.68 0.1,0.1 0 0 1 0.174,0.73 H 0.335 V 0.127 h 0.15 z"
       id="path1458" />
  </g>
  <g
     id="use658"
     transform="matrix(40.0052,0,0,-40.04865,674.015,90.828)">
    <path
       d="M 0.394,0.155 H 0.185 L 0.137,0 H 0 L 0.226,0.7 H 0.363 L 0.588,0 H 0.444 l -0.05,0.155 m -0.177,0.11 h 0.15 L 0.296,0.499 H 0.287 Z"
       id="path838" />
  </g>
  <g
     id="use659"
     transform="matrix(40.0052,0,0,-40.04865,698.859,90.828)">
    <path
       d="M 0.286,0.151 H 0.293 L 0.405,0.5 h 0.14 L 0.354,0 H 0.215 L 0,0.5 h 0.151 z"
       id="path850" />
  </g>
  <g
     id="use660"
     transform="matrix(40.0052,0,0,-40.04865,723.342,90.828)">
    <path
       d="M 0,0.11 H 0.124 V 0.39 H 0 V 0.5 H 0.225 L 0.24,0.434 h 0.004 c 0.019,0.022 0.04,0.04 0.064,0.055 a 0.158,0.158 0 0 0 0.084,0.022 c 0.04,0 0.071,-0.015 0.094,-0.044 C 0.509,0.437 0.521,0.389 0.521,0.32 H 0.404 C 0.404,0.344 0.4,0.361 0.393,0.372 0.386,0.383 0.375,0.389 0.36,0.389 A 0.1,0.1 0 0 1 0.295,0.369 0.207,0.207 0 0 1 0.254,0.323 V 0.11 H 0.471 V 0 H 0 Z"
       id="path862" />
  </g>
  <g
     id="use661"
     transform="matrix(40.0052,0,0,-40.04865,747.185,91.388)">
    <path
       d="m 0,0.264 c 0,0.042 0.006,0.08 0.019,0.112 A 0.23,0.23 0 0 0 0.156,0.51 0.314,0.314 0 0 0 0.265,0.528 c 0.042,0 0.08,-0.006 0.112,-0.019 A 0.228,0.228 0 0 0 0.461,0.455 0.215,0.215 0 0 0 0.512,0.372 0.311,0.311 0 0 0 0.53,0.264 0.308,0.308 0 0 0 0.511,0.152 0.23,0.23 0 0 0 0.373,0.017 0.322,0.322 0 0 0 0.265,0 0.316,0.316 0 0 0 0.152,0.019 0.237,0.237 0 0 0 0.069,0.072 0.235,0.235 0 0 0 0.017,0.156 0.328,0.328 0 0 0 0,0.264 m 0.134,0 c 0,-0.022 0.003,-0.042 0.009,-0.061 A 0.15,0.15 0 0 1 0.169,0.154 0.123,0.123 0 0 1 0.21,0.121 0.13,0.13 0 0 1 0.265,0.11 c 0.039,0 0.07,0.012 0.094,0.037 0.025,0.025 0.037,0.064 0.037,0.117 A 0.171,0.171 0 0 1 0.362,0.375 0.116,0.116 0 0 1 0.265,0.418 0.147,0.147 0 0 1 0.213,0.409 0.101,0.101 0 0 1 0.171,0.382 0.139,0.139 0 0 1 0.144,0.334 0.216,0.216 0 0 1 0.134,0.264 Z"
       id="path874" />
  </g>
  <path
     d="m651.977 66.211 1.464-1.395 6.817 8.024.125 3.637"
     fill="#a681ea"
     id="path661" />
  <path
     d="m646.015 60.117-5.121 33.414 19.715-15.386zm0 0"
     fill="#999"
     id="path662" />
  <path
     transform="scale(.99891 1)"
     stroke-width="1.397"
     stroke-linecap="square"
     stroke-linejoin="round"
     fill="none"
     stroke="#3b3b3b"
     d="m646.717 60.117-5.127 33.414 19.737-15.386zm0 0"
     id="path663" />
  <path
     d="M653.719 65.133c-.008-.02 2.25-2.231 3.535-3.383l2.492-2.238.059.605c.16 1.59.406 13.145.406 13.145-.219-.18-6.492-8.129-6.492-8.129zm0 0"
     fill="#2cdd97"
     id="path664" />
  <path
     transform="scale(.99891 1)"
     stroke-width="1.397"
     stroke-linecap="square"
     stroke-linejoin="round"
     fill="none"
     stroke="#3b3b3b"
     d="m652.157 66.336 8.857-8.238.281 14.187.114 5.723zm0 0"
     id="path665" />
  <path
     d="m642.433 83.504-13.004-.391 11.465 10.254zm0 0"
     fill="#666"
     id="path666" />
  <path
     transform="scale(.99891 1)"
     stroke-width="1.397"
     stroke-linecap="square"
     stroke-linejoin="round"
     fill="none"
     stroke="#3b3b3b"
     d="m643.131 83.504-13.018-.391 11.477 10.254zm0 0"
     id="path667" />
  <path
     d="m630.457 56.164-.465 3.09"
     fill="#4d4d4d"
     id="path668" />
  <path
     transform="scale(.99891 1)"
     stroke-width="1.397"
     stroke-linecap="square"
     stroke-linejoin="round"
     fill="none"
     stroke="#666"
     d="m631.142 56.164-.466 3.09"
     id="path669" />
  <path
     d="m635.602 57.543-1.172 7.406"
     fill="#4d4d4d"
     id="path670" />
  <path
     transform="scale(.99891 1)"
     stroke-width="1.397"
     stroke-linecap="square"
     stroke-linejoin="round"
     fill="none"
     stroke="#666"
     d="m636.292 57.543-1.173 7.406"
     id="path671" />
  <path
     d="m638.484 58.469-1.555 9.711"
     fill="#4d4d4d"
     id="path672" />
  <path
     transform="scale(.99891 1)"
     stroke-width="1.397"
     stroke-linecap="square"
     stroke-linejoin="round"
     fill="none"
     stroke="#666"
     d="m639.178 58.469-1.557 9.711"
     id="path673" />
  <path
     d="M660.863 63.418c0-.887-.051-2.273-.023-2.781l.066-1.309 1.641.867 1.703 1.157-.289 1.394-.176 1.504-1.125.41-1.793.699zm0 0"
     fill="#2cdd97"
     id="path674" />
  <path
     d="M628.059 57.062c-.657-.8-1.286-1.648-1.27-1.664.035-.035 2.899.754 2.965.817.039.035-.336 2.371-.32 2.445.031.176-.719-.797-1.375-1.598zm0 0"
     fill="#666"
     id="path675" />
  <path
     transform="scale(.99891 1)"
     stroke-width="1.397"
     stroke-linecap="square"
     stroke-linejoin="round"
     fill="none"
     stroke="#3b3b3b"
     d="m644.144 76.809 2.569-16.704-21.183-5.984zm0 0"
     id="path676" />
  <path
     transform="scale(.99891 1)"
     stroke-width="1.516"
     stroke-linecap="square"
     stroke-linejoin="round"
     fill="none"
     stroke="#ffd944"
     d="m666.027 63.758-1.005-2.375.063 2.758 1.583-1.098"
     id="path677" />
  <path
     transform="scale(.99891 1)"
     stroke-width="1.397"
     stroke-linecap="square"
     stroke-linejoin="round"
     fill="none"
     stroke="#3b3b3b"
     d="m661.014 58.094.156 7.929 6.996-2.953zm0 0"
     id="path678" />
  <path
     d="M640.367 71.848c-1.429-1.743-2.625-3.215-2.66-3.274-.059-.094 1.402-9.531 1.481-9.59.019-.015 1.347.348 2.96.809 2.012.57 2.934.875 2.954.973.019.097-1.821 12.371-2.118 14.109-.011.074-1.191-1.285-2.617-3.027zM635.719 66.176l-.602-.727.555-3.574c.305-1.965.586-3.609.625-3.652.035-.043.375.011.754.125.613.183.676.222.633.414-.028.117-.329 1.984-.676 4.148-.344 2.164-.641 3.949-.656 3.965-.016.016-.301-.297-.633-.699zM632.609 62.426a6350.19 6350.19 0 0 1-1.613-1.977l-.375-.457.246-1.64c.137-.903.258-1.649.27-1.664.043-.04 3.687 1.011 3.687 1.062 0 .043-.926 5.949-.961 6.121-.008.039-.57-.613-1.254-1.445zm0 0"
     fill="#ccc"
     id="path679" />
  <g
     id="use781"
     transform="matrix(9.00118,0,0,-9.01095,598.848,18.451)">
    <path
       d="M 0.583,0.659 A 0.328,0.328 0 0 0 0.651,0.539 0.5,0.5 0 0 0 0.675,0.379 0.496,0.496 0 0 0 0.651,0.217 0.327,0.327 0 0 0 0.583,0.1 0.289,0.289 0 0 0 0.477,0.025 0.367,0.367 0 0 0 0.337,0 0.37,0.37 0 0 0 0.197,0.025 0.289,0.289 0 0 0 0.092,0.1 0.333,0.333 0 0 0 0.024,0.219 0.507,0.507 0 0 0 0.001,0.379 c 0,0.06 0.008,0.113 0.023,0.16 A 0.34,0.34 0 0 0 0.093,0.659 0.28,0.28 0 0 0 0.199,0.733 0.374,0.374 0 0 0 0.339,0.758 0.36,0.36 0 0 0 0.479,0.732 0.29,0.29 0 0 0 0.583,0.66 M 0.575,0.379 A 0.334,0.334 0 0 1 0.51,0.596 0.212,0.212 0 0 1 0.337,0.673 0.214,0.214 0 0 1 0.163,0.596 0.335,0.335 0 0 1 0.1,0.378 0.33,0.33 0 0 1 0.165,0.16 c 0.043,-0.05 0.1,-0.077 0.173,-0.077 0.072,0 0.13,0.027 0.172,0.077 a 0.33,0.33 0 0 1 0.065,0.22 z"
       id="path1384" />
  </g>
  <g
     id="use782"
     transform="matrix(9.00118,0,0,-9.01095,606.24,18.315)">
    <path
       d="M 0.34,0.445 H 0.335 A 0.303,0.303 0 0 1 0.25,0.455 0.187,0.187 0 0 1 0.168,0.435 0.37,0.37 0 0 1 0.092,0.387 V 0 H 0 v 0.545 h 0.092 v -0.08 c 0.036,0.03 0.068,0.05 0.096,0.062 A 0.21,0.21 0 0 0 0.273,0.545 0.288,0.288 0 0 0 0.34,0.54 Z"
       id="path1344" />
  </g>
  <g
     id="use783"
     transform="matrix(9.00118,0,0,-9.01095,610.04,18.315)">
    <path
       d="M 0.104,0.637 H 0 V 0.732 H 0.104 V 0.637 M 0.098,0 H 0.006 v 0.545 h 0.092 z"
       id="path1425" />
  </g>
  <g
     id="use784"
     transform="matrix(9.00118,0,0,-9.01095,612.211,20.176)">
    <path
       d="M 0.48,0.269 C 0.48,0.176 0.459,0.109 0.417,0.065 0.375,0.022 0.31,0 0.223,0 A 0.561,0.561 0 0 0 0.057,0.023 V 0.117 H 0.062 A 0.695,0.695 0 0 1 0.133,0.096 0.373,0.373 0 0 1 0.231,0.083 c 0.031,0 0.057,0.003 0.078,0.01 a 0.112,0.112 0 0 1 0.071,0.079 0.228,0.228 0 0 1 0.007,0.06 v 0.05 a 0.36,0.36 0 0 0 -0.08,-0.05 0.246,0.246 0 0 0 -0.096,-0.016 0.19,0.19 0 0 0 -0.155,0.07 0.31,0.31 0 0 0 -0.057,0.2 c 0,0.046 0.007,0.087 0.02,0.12 A 0.278,0.278 0 0 0 0.073,0.695 0.217,0.217 0 0 0 0.15,0.749 c 0.03,0.013 0.06,0.02 0.09,0.02 A 0.273,0.273 0 0 0 0.387,0.729 L 0.393,0.753 H 0.48 V 0.269 M 0.388,0.356 v 0.298 a 0.341,0.341 0 0 1 -0.13,0.03 0.149,0.149 0 0 1 -0.12,-0.05 C 0.11,0.6 0.095,0.55 0.095,0.486 0.095,0.426 0.105,0.379 0.127,0.347 0.148,0.316 0.184,0.3 0.234,0.3 c 0.026,0 0.053,0.005 0.08,0.015 0.027,0.01 0.052,0.024 0.074,0.041 z"
       id="path1373" />
  </g>
  <g
     id="use785"
     transform="matrix(9.00118,0,0,-9.01095,617.801,18.451)">
    <path
       d="M 0.463,0.015 H 0.373 V 0.073 A 1.57,1.57 0 0 1 0.338,0.05 0.263,0.263 0 0 0 0.176,0 C 0.127,0 0.086,0.016 0.051,0.049 A 0.164,0.164 0 0 0 0,0.173 c 0,0.042 0.009,0.075 0.026,0.1 a 0.179,0.179 0 0 0 0.077,0.061 0.41,0.41 0 0 0 0.12,0.03 c 0.046,0.005 0.096,0.009 0.15,0.011 V 0.39 C 0.372,0.41 0.367,0.428 0.36,0.44 A 0.078,0.078 0 0 1 0.33,0.474 0.13,0.13 0 0 1 0.283,0.489 0.404,0.404 0 0 1 0.053,0.456 H 0.048 V 0.549 A 0.897,0.897 0 0 0 0.226,0.574 0.451,0.451 0 0 0 0.326,0.564 0.192,0.192 0 0 0 0.4,0.532 0.144,0.144 0 0 0 0.447,0.474 0.214,0.214 0 0 0 0.463,0.385 V 0.015 M 0.373,0.15 V 0.302 A 3.722,3.722 0 0 1 0.273,0.295 0.51,0.51 0 0 1 0.183,0.281 0.147,0.147 0 0 1 0.12,0.245 0.086,0.086 0 0 1 0.095,0.18 c 0,-0.032 0.01,-0.055 0.028,-0.071 0.019,-0.016 0.048,-0.024 0.086,-0.024 0.033,0 0.062,0.007 0.089,0.019 a 0.408,0.408 0 0 1 0.074,0.045 z"
       id="path1125" />
  </g>
  <g
     id="use786"
     transform="matrix(9.00118,0,0,-9.01095,623.567,18.315)">
    <path
       d="M 0.796,0 H 0.704 V 0.31 A 0.653,0.653 0 0 1 0.701,0.378 0.14,0.14 0 0 1 0.688,0.431 0.074,0.074 0 0 1 0.655,0.462 0.17,0.17 0 0 1 0.517,0.453 0.46,0.46 0 0 1 0.44,0.406 0.412,0.412 0 0 0 0.444,0.349 V 0 H 0.352 V 0.31 A 0.649,0.649 0 0 1 0.35,0.38 0.14,0.14 0 0 1 0.335,0.43 0.071,0.071 0 0 1 0.303,0.461 0.172,0.172 0 0 1 0.167,0.453 0.456,0.456 0 0 1 0.092,0.406 V 0 H 0 V 0.545 H 0.092 V 0.485 A 0.406,0.406 0 0 0 0.177,0.54 0.214,0.214 0 0 0 0.363,0.537 0.144,0.144 0 0 0 0.42,0.472 0.446,0.446 0 0 0 0.522,0.54 C 0.553,0.554 0.586,0.56 0.621,0.56 0.68,0.56 0.725,0.543 0.753,0.507 A 0.239,0.239 0 0 0 0.796,0.354 Z"
       id="path1529" />
  </g>
  <g
     id="use787"
     transform="matrix(9.00118,0,0,-9.01095,632.281,18.315)">
    <path
       d="M 0.104,0.637 H 0 V 0.732 H 0.104 V 0.637 M 0.098,0 H 0.006 v 0.545 h 0.092 z"
       id="path1426" />
  </g>
  <g
     id="use788"
     transform="matrix(9.00118,0,0,-9.01095,633.978,18.315)">
    <path
       d="M 0,0 Z"
       id="path1076" />
  </g>
  <g
     id="use789"
     transform="matrix(9.00118,0,0,-9.01095,638.026,18.315)">
    <path
       d="M 0.476,0.507 A 0.234,0.234 0 0 0 0.412,0.347 0.244,0.244 0 0 0 0.322,0.29 0.385,0.385 0 0 0 0.194,0.27 H 0.097 V 0 H 0 v 0.727 h 0.197 c 0.044,0 0.08,-0.004 0.111,-0.011 A 0.246,0.246 0 0 0 0.388,0.682 0.194,0.194 0 0 0 0.453,0.612 0.215,0.215 0 0 0 0.476,0.507 M 0.375,0.505 A 0.151,0.151 0 0 1 0.362,0.57 0.11,0.11 0 0 1 0.322,0.616 0.158,0.158 0 0 1 0.268,0.637 0.347,0.347 0 0 1 0.192,0.644 H 0.097 v -0.29 h 0.081 c 0.04,0 0.071,0.003 0.095,0.01 a 0.137,0.137 0 0 1 0.102,0.14 z"
       id="path1532" />
  </g>
  <g
     id="use790"
     transform="matrix(9.00118,0,0,-9.01095,643.343,18.315)">
    <path
       d="M 0.104,0.637 H 0 V 0.732 H 0.104 V 0.637 M 0.098,0 H 0.006 v 0.545 h 0.092 z"
       id="path1427" />
  </g>
  <g
     id="use791"
     transform="matrix(9.00118,0,0,-9.01095,645.515,20.176)">
    <path
       d="M 0.48,0.269 C 0.48,0.176 0.459,0.109 0.417,0.065 0.375,0.022 0.31,0 0.223,0 A 0.561,0.561 0 0 0 0.057,0.023 V 0.117 H 0.062 A 0.695,0.695 0 0 1 0.133,0.096 0.373,0.373 0 0 1 0.231,0.083 c 0.031,0 0.057,0.003 0.078,0.01 a 0.112,0.112 0 0 1 0.071,0.079 0.228,0.228 0 0 1 0.007,0.06 v 0.05 a 0.36,0.36 0 0 0 -0.08,-0.05 0.246,0.246 0 0 0 -0.096,-0.016 0.19,0.19 0 0 0 -0.155,0.07 0.31,0.31 0 0 0 -0.057,0.2 c 0,0.046 0.007,0.087 0.02,0.12 A 0.278,0.278 0 0 0 0.073,0.695 0.217,0.217 0 0 0 0.15,0.749 c 0.03,0.013 0.06,0.02 0.09,0.02 A 0.273,0.273 0 0 0 0.387,0.729 L 0.393,0.753 H 0.48 V 0.269 M 0.388,0.356 v 0.298 a 0.341,0.341 0 0 1 -0.13,0.03 0.149,0.149 0 0 1 -0.12,-0.05 C 0.11,0.6 0.095,0.55 0.095,0.486 0.095,0.426 0.105,0.379 0.127,0.347 0.148,0.316 0.184,0.3 0.234,0.3 c 0.026,0 0.053,0.005 0.08,0.015 0.027,0.01 0.052,0.024 0.074,0.041 z"
       id="path1374" />
  </g>
  <g
     id="use792"
     transform="matrix(9.00118,0,0,-9.01095,651.114,18.43)">
    <path
       d="M 0.495,0.276 H 0.093 c 0,-0.034 0.005,-0.063 0.015,-0.088 A 0.165,0.165 0 0 1 0.21,0.092 0.243,0.243 0 0 1 0.287,0.08 c 0.037,0 0.074,0.007 0.113,0.022 a 0.28,0.28 0 0 1 0.08,0.044 h 0.005 v -0.1 A 0.757,0.757 0 0 0 0.39,0.013 0.384,0.384 0 0 0 0.288,0 0.293,0.293 0 0 0 0.076,0.073 C 0.026,0.123 0,0.193 0,0.283 a 0.3,0.3 0 0 0 0.073,0.212 0.25,0.25 0 0 0 0.192,0.078 c 0.075,0 0.13,-0.021 0.17,-0.063 0.04,-0.043 0.06,-0.104 0.06,-0.183 v -0.05 m -0.09,0.07 A 0.162,0.162 0 0 1 0.37,0.458 C 0.345,0.484 0.31,0.498 0.26,0.498 A 0.16,0.16 0 0 1 0.143,0.454 0.17,0.17 0 0 1 0.093,0.346 h 0.313 z"
       id="path1271" />
  </g>
  <g
     id="use793"
     transform="matrix(9.00118,0,0,-9.01095,656.479,18.451)">
    <path
       d="M 0.503,0.288 A 0.306,0.306 0 0 0 0.435,0.078 0.232,0.232 0 0 0 0.252,0 0.234,0.234 0 0 0 0.068,0.077 0.307,0.307 0 0 0 0,0.287 c 0,0.09 0.023,0.16 0.068,0.211 A 0.233,0.233 0 0 0 0.252,0.576 0.232,0.232 0 0 0 0.435,0.498 0.306,0.306 0 0 0 0.503,0.288 m -0.094,0 c 0,0.07 -0.014,0.123 -0.042,0.157 A 0.14,0.14 0 0 1 0.252,0.497 0.14,0.14 0 0 1 0.136,0.445 C 0.108,0.41 0.095,0.358 0.095,0.288 A 0.25,0.25 0 0 1 0.136,0.132 0.139,0.139 0 0 1 0.252,0.079 c 0.049,0 0.087,0.018 0.115,0.052 0.028,0.036 0.042,0.088 0.042,0.157 z"
       id="path984" />
  </g>
  <g
     id="use794"
     transform="matrix(9.00118,0,0,-9.01095,662.29,18.315)">
    <path
       d="M 0.456,0 H 0.364 V 0.31 A 0.53,0.53 0 0 1 0.36,0.38 0.13,0.13 0 0 1 0.344,0.433 0.073,0.073 0 0 1 0.309,0.463 0.147,0.147 0 0 1 0.249,0.473 0.19,0.19 0 0 1 0.17,0.455 0.4,0.4 0 0 1 0.092,0.407 V 0 H 0 V 0.545 H 0.092 V 0.485 A 0.373,0.373 0 0 0 0.18,0.54 C 0.21,0.553 0.242,0.56 0.274,0.56 0.334,0.56 0.379,0.543 0.41,0.507 0.44,0.472 0.456,0.421 0.456,0.354 Z"
       id="path1208" />
  </g>
  <g
     id="use795"
     transform="matrix(9.00118,0,0,-9.01095,667.175,18.315)">
    <path
       d="M 0,0 Z"
       id="path1077" />
  </g>
  <g
     id="use796"
     transform="matrix(9.00118,0,0,-9.01095,670.848,18.451)">
    <path
       d="M 0.583,0.659 A 0.328,0.328 0 0 0 0.651,0.539 0.5,0.5 0 0 0 0.675,0.379 0.496,0.496 0 0 0 0.651,0.217 0.327,0.327 0 0 0 0.583,0.1 0.289,0.289 0 0 0 0.477,0.025 0.367,0.367 0 0 0 0.337,0 0.37,0.37 0 0 0 0.197,0.025 0.289,0.289 0 0 0 0.092,0.1 0.333,0.333 0 0 0 0.024,0.219 0.507,0.507 0 0 0 0.001,0.379 c 0,0.06 0.008,0.113 0.023,0.16 A 0.34,0.34 0 0 0 0.093,0.659 0.28,0.28 0 0 0 0.199,0.733 0.374,0.374 0 0 0 0.339,0.758 0.36,0.36 0 0 0 0.479,0.732 0.29,0.29 0 0 0 0.583,0.66 M 0.575,0.379 A 0.334,0.334 0 0 1 0.51,0.596 0.212,0.212 0 0 1 0.337,0.673 0.214,0.214 0 0 1 0.163,0.596 0.335,0.335 0 0 1 0.1,0.378 0.33,0.33 0 0 1 0.165,0.16 c 0.043,-0.05 0.1,-0.077 0.173,-0.077 0.072,0 0.13,0.027 0.172,0.077 a 0.33,0.33 0 0 1 0.065,0.22 z"
       id="path1385" />
  </g>
  <g
     id="use797"
     transform="matrix(9.00118,0,0,-9.01095,678.205,18.451)">
    <path
       d="M 0.456,0.015 H 0.364 v 0.06 A 0.447,0.447 0 0 0 0.275,0.02 0.222,0.222 0 0 0 0.182,0 0.172,0.172 0 0 0 0.048,0.052 C 0.016,0.087 0,0.14 0,0.207 V 0.56 H 0.092 V 0.25 c 0,-0.028 0.001,-0.051 0.004,-0.071 A 0.13,0.13 0 0 1 0.112,0.129 0.079,0.079 0 0 1 0.146,0.097 0.15,0.15 0 0 1 0.208,0.087 c 0.023,0 0.05,0.007 0.077,0.019 a 0.361,0.361 0 0 1 0.08,0.047 v 0.408 h 0.091 z"
       id="path1392" />
  </g>
  <g
     id="use798"
     transform="matrix(9.00118,0,0,-9.01095,683.397,18.412)">
    <path
       d="M 0.343,0.016 A 0.498,0.498 0 0 0 0.233,0 C 0.176,0 0.133,0.015 0.104,0.045 0.076,0.075 0.062,0.123 0.062,0.189 v 0.29 H 0 V 0.556 H 0.062 V 0.713 H 0.154 V 0.556 h 0.19 V 0.48 H 0.154 V 0.23 c 0,-0.028 0,-0.05 0.002,-0.067 A 0.11,0.11 0 0 1 0.169,0.118 0.068,0.068 0 0 1 0.2,0.09 0.186,0.186 0 0 1 0.303,0.087 0.359,0.359 0 0 1 0.338,0.098 h 0.005 z"
       id="path1162" />
  </g>
  <g
     id="use799"
     transform="matrix(9.00118,0,0,-9.01095,687.493,18.315)">
    <path
       d="M 0.092,0 H 0 v 0.76 h 0.092 z"
       id="path947" />
  </g>
  <g
     id="use800"
     transform="matrix(9.00118,0,0,-9.01095,689.907,18.315)">
    <path
       d="M 0.104,0.637 H 0 V 0.732 H 0.104 V 0.637 M 0.098,0 H 0.006 v 0.545 h 0.092 z"
       id="path1428" />
  </g>
  <g
     id="use801"
     transform="matrix(9.00118,0,0,-9.01095,692.417,18.315)">
    <path
       d="M 0.456,0 H 0.364 V 0.31 A 0.53,0.53 0 0 1 0.36,0.38 0.13,0.13 0 0 1 0.344,0.433 0.073,0.073 0 0 1 0.309,0.463 0.147,0.147 0 0 1 0.249,0.473 0.19,0.19 0 0 1 0.17,0.455 0.4,0.4 0 0 1 0.092,0.407 V 0 H 0 V 0.545 H 0.092 V 0.485 A 0.373,0.373 0 0 0 0.18,0.54 C 0.21,0.553 0.242,0.56 0.274,0.56 0.334,0.56 0.379,0.543 0.41,0.507 0.44,0.472 0.456,0.421 0.456,0.354 Z"
       id="path1209" />
  </g>
  <g
     id="use802"
     transform="matrix(9.00118,0,0,-9.01095,697.767,18.43)">
    <path
       d="M 0.495,0.276 H 0.093 c 0,-0.034 0.005,-0.063 0.015,-0.088 A 0.165,0.165 0 0 1 0.21,0.092 0.243,0.243 0 0 1 0.287,0.08 c 0.037,0 0.074,0.007 0.113,0.022 a 0.28,0.28 0 0 1 0.08,0.044 h 0.005 v -0.1 A 0.757,0.757 0 0 0 0.39,0.013 0.384,0.384 0 0 0 0.288,0 0.293,0.293 0 0 0 0.076,0.073 C 0.026,0.123 0,0.193 0,0.283 a 0.3,0.3 0 0 0 0.073,0.212 0.25,0.25 0 0 0 0.192,0.078 c 0.075,0 0.13,-0.021 0.17,-0.063 0.04,-0.043 0.06,-0.104 0.06,-0.183 v -0.05 m -0.09,0.07 A 0.162,0.162 0 0 1 0.37,0.458 C 0.345,0.484 0.31,0.498 0.26,0.498 A 0.16,0.16 0 0 1 0.143,0.454 0.17,0.17 0 0 1 0.093,0.346 h 0.313 z"
       id="path1272" />
  </g>
  <g
     id="use803"
     transform="matrix(9.00118,0,0,-9.01095,702.666,18.315)">
    <path
       d="M 0,0 Z"
       id="path1078" />
  </g>
  <g
     id="use804"
     transform="matrix(9.00118,0,0,-9.01095,706.507,15.847)">
    <path
       d="M 0.305,0 H 0 v 0.088 h 0.305 z"
       id="path1223" />
  </g>
  <g
     id="use805"
     transform="matrix(9.00118,0,0,-9.01095,709.921,18.315)">
    <path
       d="M 0,0 Z"
       id="path1079" />
  </g>
  <g
     id="use806"
     transform="matrix(9.00118,0,0,-9.01095,713.595,18.443)">
    <path
       d="M 0.648,0.068 A 0.938,0.938 0 0 0 0.518,0.02 0.497,0.497 0 0 0 0.226,0.023 0.32,0.32 0 0 0 0.105,0.093 0.316,0.316 0 0 0 0.027,0.212 0.464,0.464 0 0 0 0,0.378 0.37,0.37 0 0 0 0.102,0.653 0.38,0.38 0 0 0 0.382,0.754 0.552,0.552 0 0 0 0.507,0.74 0.67,0.67 0 0 0 0.647,0.69 V 0.574 H 0.637 A 0.766,0.766 0 0 1 0.537,0.637 0.408,0.408 0 0 1 0.364,0.672 0.248,0.248 0 0 1 0.17,0.593 0.304,0.304 0 0 1 0.1,0.381 C 0.1,0.287 0.125,0.214 0.175,0.161 A 0.266,0.266 0 0 1 0.377,0.084 0.474,0.474 0 0 1 0.552,0.118 V 0.296 H 0.357 V 0.38 h 0.29 V 0.068 Z"
       id="path1535" />
  </g>
  <g
     id="use807"
     transform="matrix(9.00118,0,0,-9.01095,720.879,18.315)">
    <path
       d="M 0.34,0.445 H 0.335 A 0.303,0.303 0 0 1 0.25,0.455 0.187,0.187 0 0 1 0.168,0.435 0.37,0.37 0 0 1 0.092,0.387 V 0 H 0 v 0.545 h 0.092 v -0.08 c 0.036,0.03 0.068,0.05 0.096,0.062 A 0.21,0.21 0 0 0 0.273,0.545 0.288,0.288 0 0 0 0.34,0.54 Z"
       id="path1345" />
  </g>
  <g
     id="use808"
     transform="matrix(9.00118,0,0,-9.01095,724.375,18.43)">
    <path
       d="M 0.495,0.276 H 0.093 c 0,-0.034 0.005,-0.063 0.015,-0.088 A 0.165,0.165 0 0 1 0.21,0.092 0.243,0.243 0 0 1 0.287,0.08 c 0.037,0 0.074,0.007 0.113,0.022 a 0.28,0.28 0 0 1 0.08,0.044 h 0.005 v -0.1 A 0.757,0.757 0 0 0 0.39,0.013 0.384,0.384 0 0 0 0.288,0 0.293,0.293 0 0 0 0.076,0.073 C 0.026,0.123 0,0.193 0,0.283 a 0.3,0.3 0 0 0 0.073,0.212 0.25,0.25 0 0 0 0.192,0.078 c 0.075,0 0.13,-0.021 0.17,-0.063 0.04,-0.043 0.06,-0.104 0.06,-0.183 v -0.05 m -0.09,0.07 A 0.162,0.162 0 0 1 0.37,0.458 C 0.345,0.484 0.31,0.498 0.26,0.498 A 0.16,0.16 0 0 1 0.143,0.454 0.17,0.17 0 0 1 0.093,0.346 h 0.313 z"
       id="path1273" />
  </g>
  <g
     id="use809"
     transform="matrix(9.00118,0,0,-9.01095,729.74,18.43)">
    <path
       d="M 0.495,0.276 H 0.093 c 0,-0.034 0.005,-0.063 0.015,-0.088 A 0.165,0.165 0 0 1 0.21,0.092 0.243,0.243 0 0 1 0.287,0.08 c 0.037,0 0.074,0.007 0.113,0.022 a 0.28,0.28 0 0 1 0.08,0.044 h 0.005 v -0.1 A 0.757,0.757 0 0 0 0.39,0.013 0.384,0.384 0 0 0 0.288,0 0.293,0.293 0 0 0 0.076,0.073 C 0.026,0.123 0,0.193 0,0.283 a 0.3,0.3 0 0 0 0.073,0.212 0.25,0.25 0 0 0 0.192,0.078 c 0.075,0 0.13,-0.021 0.17,-0.063 0.04,-0.043 0.06,-0.104 0.06,-0.183 v -0.05 m -0.09,0.07 A 0.162,0.162 0 0 1 0.37,0.458 C 0.345,0.484 0.31,0.498 0.26,0.498 A 0.16,0.16 0 0 1 0.143,0.454 0.17,0.17 0 0 1 0.093,0.346 h 0.313 z"
       id="path1274" />
  </g>
  <g
     id="use810"
     transform="matrix(9.00118,0,0,-9.01095,735.451,18.315)">
    <path
       d="M 0.456,0 H 0.364 V 0.31 A 0.53,0.53 0 0 1 0.36,0.38 0.13,0.13 0 0 1 0.344,0.433 0.073,0.073 0 0 1 0.309,0.463 0.147,0.147 0 0 1 0.249,0.473 0.19,0.19 0 0 1 0.17,0.455 0.4,0.4 0 0 1 0.092,0.407 V 0 H 0 V 0.545 H 0.092 V 0.485 A 0.373,0.373 0 0 0 0.18,0.54 C 0.21,0.553 0.242,0.56 0.274,0.56 0.334,0.56 0.379,0.543 0.41,0.507 0.44,0.472 0.456,0.421 0.456,0.354 Z"
       id="path1210" />
  </g>
  <g
     id="use811"
     transform="matrix(9.00118,0,0,-9.01095,740.336,18.315)">
    <path
       d="M 0,0 Z"
       id="path1080" />
  </g>
  <g
     id="use812"
     transform="matrix(9.00118,0,0,-9.01095,744.427,18.196)">
    <path
       d="M 0.613,0.266 H 0.347 V 0 H 0.267 V 0.266 H 0 V 0.344 H 0.266 V 0.61 H 0.347 V 0.344 h 0.266 z"
       id="path1471" />
  </g>
  <g
     id="use813"
     transform="matrix(9.00118,0,0,-9.01095,750.867,18.315)">
    <path
       d="M 0,0 Z"
       id="path1081" />
  </g>
  <g
     id="use814"
     transform="matrix(9.00118,0,0,-9.01095,754.915,18.315)">
    <path
       d="M 0.476,0.507 A 0.234,0.234 0 0 0 0.412,0.347 0.244,0.244 0 0 0 0.322,0.29 0.385,0.385 0 0 0 0.194,0.27 H 0.097 V 0 H 0 v 0.727 h 0.197 c 0.044,0 0.08,-0.004 0.111,-0.011 A 0.246,0.246 0 0 0 0.388,0.682 0.194,0.194 0 0 0 0.453,0.612 0.215,0.215 0 0 0 0.476,0.507 M 0.375,0.505 A 0.151,0.151 0 0 1 0.362,0.57 0.11,0.11 0 0 1 0.322,0.616 0.158,0.158 0 0 1 0.268,0.637 0.347,0.347 0 0 1 0.192,0.644 H 0.097 v -0.29 h 0.081 c 0.04,0 0.071,0.003 0.095,0.01 a 0.137,0.137 0 0 1 0.102,0.14 z"
       id="path1533" />
  </g>
  <g
     id="use815"
     transform="matrix(9.00118,0,0,-9.01095,760.241,18.451)">
    <path
       d="M 0.456,0.015 H 0.364 v 0.06 A 0.447,0.447 0 0 0 0.275,0.02 0.222,0.222 0 0 0 0.182,0 0.172,0.172 0 0 0 0.048,0.052 C 0.016,0.087 0,0.14 0,0.207 V 0.56 H 0.092 V 0.25 c 0,-0.028 0.001,-0.051 0.004,-0.071 A 0.13,0.13 0 0 1 0.112,0.129 0.079,0.079 0 0 1 0.146,0.097 0.15,0.15 0 0 1 0.208,0.087 c 0.023,0 0.05,0.007 0.077,0.019 a 0.361,0.361 0 0 1 0.08,0.047 v 0.408 h 0.091 z"
       id="path1393" />
  </g>
  <g
     id="use816"
     transform="matrix(9.00118,0,0,-9.01095,765.974,18.315)">
    <path
       d="M 0.34,0.445 H 0.335 A 0.303,0.303 0 0 1 0.25,0.455 0.187,0.187 0 0 1 0.168,0.435 0.37,0.37 0 0 1 0.092,0.387 V 0 H 0 v 0.545 h 0.092 v -0.08 c 0.036,0.03 0.068,0.05 0.096,0.062 A 0.21,0.21 0 0 0 0.273,0.545 0.288,0.288 0 0 0 0.34,0.54 Z"
       id="path1346" />
  </g>
  <g
     id="use817"
     transform="matrix(9.00118,0,0,-9.01095,769.818,20.128)">
    <path
       d="M 0.48,0.48 A 0.37,0.37 0 0 0 0.46,0.36 0.266,0.266 0 0 0 0.408,0.266 0.227,0.227 0 0 0 0.24,0.19 0.298,0.298 0 0 0 0.092,0.23 V 0 H 0 V 0.747 H 0.092 V 0.689 c 0.024,0.021 0.052,0.038 0.082,0.052 0.03,0.014 0.063,0.02 0.097,0.02 A 0.18,0.18 0 0 0 0.425,0.688 0.34,0.34 0 0 0 0.48,0.48 M 0.385,0.478 A 0.261,0.261 0 0 1 0.352,0.625 C 0.329,0.658 0.295,0.675 0.248,0.675 A 0.201,0.201 0 0 1 0.168,0.657 0.36,0.36 0 0 1 0.092,0.612 V 0.303 a 0.294,0.294 0 0 1 0.13,-0.03 c 0.052,0 0.092,0.017 0.12,0.052 0.029,0.034 0.043,0.085 0.043,0.153 z"
       id="path1321" />
  </g>
  <g
     id="use818"
     transform="matrix(9.00118,0,0,-9.01095,775.434,18.315)">
    <path
       d="M 0.092,0 H 0 v 0.76 h 0.092 z"
       id="path948" />
  </g>
  <g
     id="use819"
     transform="matrix(9.00118,0,0,-9.01095,777.545,18.43)">
    <path
       d="M 0.495,0.276 H 0.093 c 0,-0.034 0.005,-0.063 0.015,-0.088 A 0.165,0.165 0 0 1 0.21,0.092 0.243,0.243 0 0 1 0.287,0.08 c 0.037,0 0.074,0.007 0.113,0.022 a 0.28,0.28 0 0 1 0.08,0.044 h 0.005 v -0.1 A 0.757,0.757 0 0 0 0.39,0.013 0.384,0.384 0 0 0 0.288,0 0.293,0.293 0 0 0 0.076,0.073 C 0.026,0.123 0,0.193 0,0.283 a 0.3,0.3 0 0 0 0.073,0.212 0.25,0.25 0 0 0 0.192,0.078 c 0.075,0 0.13,-0.021 0.17,-0.063 0.04,-0.043 0.06,-0.104 0.06,-0.183 v -0.05 m -0.09,0.07 A 0.162,0.162 0 0 1 0.37,0.458 C 0.345,0.484 0.31,0.498 0.26,0.498 A 0.16,0.16 0 0 1 0.143,0.454 0.17,0.17 0 0 1 0.093,0.346 h 0.313 z"
       id="path1275" />
  </g>
  <g
     id="use820"
     transform="matrix(9.00118,0,0,-9.01095,782.443,18.315)">
    <path
       d="M 0,0 Z"
       id="path1082" />
  </g>
  <g
     id="use821"
     transform="matrix(9.00118,0,0,-9.01095,786.49,18.315)">
    <path
       d="M 0.548,0.224 A 0.213,0.213 0 0 0 0.528,0.128 0.193,0.193 0 0 0 0.473,0.06 0.255,0.255 0 0 0 0.383,0.014 0.472,0.472 0 0 0 0.257,0 H 0 V 0.727 H 0.215 A 0.886,0.886 0 0 0 0.335,0.721 0.242,0.242 0 0 0 0.41,0.697 0.135,0.135 0 0 0 0.468,0.643 0.16,0.16 0 0 0 0.486,0.564 0.147,0.147 0 0 0 0.46,0.476 0.19,0.19 0 0 0 0.39,0.417 V 0.414 A 0.2,0.2 0 0 0 0.506,0.349 0.185,0.185 0 0 0 0.548,0.224 M 0.386,0.55 A 0.101,0.101 0 0 1 0.377,0.595 0.068,0.068 0 0 1 0.349,0.624 0.135,0.135 0 0 1 0.293,0.64 0.801,0.801 0 0 1 0.212,0.644 H 0.097 v -0.21 h 0.125 c 0.03,0 0.054,0.001 0.072,0.004 0.018,0.003 0.034,0.01 0.05,0.02 a 0.08,0.08 0 0 1 0.032,0.037 c 0.006,0.016 0.01,0.034 0.01,0.055 M 0.448,0.22 c 0,0.029 -0.005,0.052 -0.013,0.07 A 0.106,0.106 0 0 1 0.387,0.333 0.158,0.158 0 0 1 0.33,0.35 0.71,0.71 0 0 1 0.249,0.354 H 0.097 v -0.27 h 0.128 c 0.042,0 0.077,0.002 0.104,0.006 0.027,0.004 0.049,0.013 0.066,0.024 a 0.123,0.123 0 0 1 0.04,0.044 0.136,0.136 0 0 1 0.013,0.063 z"
       id="path890" />
  </g>
  <g
     id="use822"
     transform="matrix(9.00118,0,0,-9.01095,792.6,18.315)">
    <path
       d="M 0.34,0.445 H 0.335 A 0.303,0.303 0 0 1 0.25,0.455 0.187,0.187 0 0 1 0.168,0.435 0.37,0.37 0 0 1 0.092,0.387 V 0 H 0 v 0.545 h 0.092 v -0.08 c 0.036,0.03 0.068,0.05 0.096,0.062 A 0.21,0.21 0 0 0 0.273,0.545 0.288,0.288 0 0 0 0.34,0.54 Z"
       id="path1347" />
  </g>
  <g
     id="use823"
     transform="matrix(9.00118,0,0,-9.01095,796.4,18.315)">
    <path
       d="M 0.104,0.637 H 0 V 0.732 H 0.104 V 0.637 M 0.098,0 H 0.006 v 0.545 h 0.092 z"
       id="path1429" />
  </g>
  <g
     id="use824"
     transform="matrix(9.00118,0,0,-9.01095,798.571,20.176)">
    <path
       d="M 0.48,0.269 C 0.48,0.176 0.459,0.109 0.417,0.065 0.375,0.022 0.31,0 0.223,0 A 0.561,0.561 0 0 0 0.057,0.023 V 0.117 H 0.062 A 0.695,0.695 0 0 1 0.133,0.096 0.373,0.373 0 0 1 0.231,0.083 c 0.031,0 0.057,0.003 0.078,0.01 a 0.112,0.112 0 0 1 0.071,0.079 0.228,0.228 0 0 1 0.007,0.06 v 0.05 a 0.36,0.36 0 0 0 -0.08,-0.05 0.246,0.246 0 0 0 -0.096,-0.016 0.19,0.19 0 0 0 -0.155,0.07 0.31,0.31 0 0 0 -0.057,0.2 c 0,0.046 0.007,0.087 0.02,0.12 A 0.278,0.278 0 0 0 0.073,0.695 0.217,0.217 0 0 0 0.15,0.749 c 0.03,0.013 0.06,0.02 0.09,0.02 A 0.273,0.273 0 0 0 0.387,0.729 L 0.393,0.753 H 0.48 V 0.269 M 0.388,0.356 v 0.298 a 0.341,0.341 0 0 1 -0.13,0.03 0.149,0.149 0 0 1 -0.12,-0.05 C 0.11,0.6 0.095,0.55 0.095,0.486 0.095,0.426 0.105,0.379 0.127,0.347 0.148,0.316 0.184,0.3 0.234,0.3 c 0.026,0 0.053,0.005 0.08,0.015 0.027,0.01 0.052,0.024 0.074,0.041 z"
       id="path1375" />
  </g>
  <g
     id="use825"
     transform="matrix(9.00118,0,0,-9.01095,804.517,18.315)">
    <path
       d="M 0.456,0 H 0.364 V 0.31 A 0.53,0.53 0 0 1 0.36,0.38 0.13,0.13 0 0 1 0.344,0.433 0.073,0.073 0 0 1 0.309,0.463 0.147,0.147 0 0 1 0.249,0.473 0.19,0.19 0 0 1 0.17,0.455 0.4,0.4 0 0 1 0.092,0.407 V 0 H 0 V 0.76 H 0.092 V 0.485 A 0.373,0.373 0 0 0 0.18,0.54 C 0.21,0.553 0.242,0.56 0.274,0.56 0.334,0.56 0.379,0.543 0.41,0.507 0.44,0.472 0.456,0.421 0.456,0.354 Z"
       id="path1514" />
  </g>
  <g
     id="use826"
     transform="matrix(9.00118,0,0,-9.01095,809.674,18.412)">
    <path
       d="M 0.343,0.016 A 0.498,0.498 0 0 0 0.233,0 C 0.176,0 0.133,0.015 0.104,0.045 0.076,0.075 0.062,0.123 0.062,0.189 v 0.29 H 0 V 0.556 H 0.062 V 0.713 H 0.154 V 0.556 h 0.19 V 0.48 H 0.154 V 0.23 c 0,-0.028 0,-0.05 0.002,-0.067 A 0.11,0.11 0 0 1 0.169,0.118 0.068,0.068 0 0 1 0.2,0.09 0.186,0.186 0 0 1 0.303,0.087 0.359,0.359 0 0 1 0.338,0.098 h 0.005 z"
       id="path1163" />
  </g>
  <g
     id="use827"
     transform="matrix(9.00118,0,0,-9.01095,813.414,18.43)">
    <path
       d="M 0.495,0.276 H 0.093 c 0,-0.034 0.005,-0.063 0.015,-0.088 A 0.165,0.165 0 0 1 0.21,0.092 0.243,0.243 0 0 1 0.287,0.08 c 0.037,0 0.074,0.007 0.113,0.022 a 0.28,0.28 0 0 1 0.08,0.044 h 0.005 v -0.1 A 0.757,0.757 0 0 0 0.39,0.013 0.384,0.384 0 0 0 0.288,0 0.293,0.293 0 0 0 0.076,0.073 C 0.026,0.123 0,0.193 0,0.283 a 0.3,0.3 0 0 0 0.073,0.212 0.25,0.25 0 0 0 0.192,0.078 c 0.075,0 0.13,-0.021 0.17,-0.063 0.04,-0.043 0.06,-0.104 0.06,-0.183 v -0.05 m -0.09,0.07 A 0.162,0.162 0 0 1 0.37,0.458 C 0.345,0.484 0.31,0.498 0.26,0.498 A 0.16,0.16 0 0 1 0.143,0.454 0.17,0.17 0 0 1 0.093,0.346 h 0.313 z"
       id="path1276" />
  </g>
  <g
     id="use828"
     transform="matrix(9.00118,0,0,-9.01095,819.126,18.315)">
    <path
       d="M 0.456,0 H 0.364 V 0.31 A 0.53,0.53 0 0 1 0.36,0.38 0.13,0.13 0 0 1 0.344,0.433 0.073,0.073 0 0 1 0.309,0.463 0.147,0.147 0 0 1 0.249,0.473 0.19,0.19 0 0 1 0.17,0.455 0.4,0.4 0 0 1 0.092,0.407 V 0 H 0 V 0.545 H 0.092 V 0.485 A 0.373,0.373 0 0 0 0.18,0.54 C 0.21,0.553 0.242,0.56 0.274,0.56 0.334,0.56 0.379,0.543 0.41,0.507 0.44,0.472 0.456,0.421 0.456,0.354 Z"
       id="path1211" />
  </g>
  <g
     id="use829"
     transform="matrix(9.00118,0,0,-9.01095,824.477,18.43)">
    <path
       d="M 0.495,0.276 H 0.093 c 0,-0.034 0.005,-0.063 0.015,-0.088 A 0.165,0.165 0 0 1 0.21,0.092 0.243,0.243 0 0 1 0.287,0.08 c 0.037,0 0.074,0.007 0.113,0.022 a 0.28,0.28 0 0 1 0.08,0.044 h 0.005 v -0.1 A 0.757,0.757 0 0 0 0.39,0.013 0.384,0.384 0 0 0 0.288,0 0.293,0.293 0 0 0 0.076,0.073 C 0.026,0.123 0,0.193 0,0.283 a 0.3,0.3 0 0 0 0.073,0.212 0.25,0.25 0 0 0 0.192,0.078 c 0.075,0 0.13,-0.021 0.17,-0.063 0.04,-0.043 0.06,-0.104 0.06,-0.183 v -0.05 m -0.09,0.07 A 0.162,0.162 0 0 1 0.37,0.458 C 0.345,0.484 0.31,0.498 0.26,0.498 A 0.16,0.16 0 0 1 0.143,0.454 0.17,0.17 0 0 1 0.093,0.346 h 0.313 z"
       id="path1277" />
  </g>
  <g
     id="use830"
     transform="matrix(9.00118,0,0,-9.01095,829.85,18.451)">
    <path
       d="M 0.48,0.015 H 0.388 V 0.072 A 0.332,0.332 0 0 0 0.306,0.02 0.228,0.228 0 0 0 0.212,0 0.185,0.185 0 0 0 0.057,0.075 0.338,0.338 0 0 0 0,0.284 C 0,0.33 0.007,0.37 0.02,0.407 A 0.288,0.288 0 0 0 0.073,0.5 0.226,0.226 0 0 0 0.243,0.576 0.284,0.284 0 0 0 0.388,0.539 V 0.775 H 0.48 V 0.015 M 0.388,0.15 V 0.463 A 0.302,0.302 0 0 1 0.258,0.493 0.145,0.145 0 0 1 0.138,0.439 0.238,0.238 0 0 1 0.095,0.287 C 0.095,0.222 0.105,0.173 0.128,0.139 0.15,0.104 0.186,0.088 0.234,0.088 a 0.2,0.2 0 0 1 0.08,0.016 0.343,0.343 0 0 1 0.074,0.045 z"
       id="path1297" />
  </g>
  <g
     id="use831"
     transform="matrix(9.00118,0,0,-9.01095,834.983,18.315)">
    <path
       d="M 0,0 Z"
       id="path1083" />
  </g>
</svg>
