<?xml version="1.0" encoding="UTF-8" standalone="no"?>
<svg
   width="842pt"
   height="596pt"
   viewBox="0 0 842 596"
   version="1.1"
   id="svg2419"
   sodipodi:docname="Apache-Avro-Logo-v3.1.svg"
   inkscape:version="1.3 (0e150ed, 2023-07-21)"
   xmlns:inkscape="http://www.inkscape.org/namespaces/inkscape"
   xmlns:sodipodi="http://sodipodi.sourceforge.net/DTD/sodipodi-0.dtd"
   xmlns="http://www.w3.org/2000/svg"
   xmlns:svg="http://www.w3.org/2000/svg">
  <defs
     id="defs2419" />
  <sodipodi:namedview
     id="namedview2419"
     pagecolor="#ffffff"
     bordercolor="#000000"
     borderopacity="0.25"
     inkscape:showpageshadow="2"
     inkscape:pageopacity="0.0"
     inkscape:pagecheckerboard="0"
     inkscape:deskcolor="#d1d1d1"
     inkscape:document-units="pt"
     inkscape:zoom="0.71704276"
     inkscape:cx="791.44513"
     inkscape:cy="456.03975"
     inkscape:window-width="1392"
     inkscape:window-height="1051"
     inkscape:window-x="0"
     inkscape:window-y="472"
     inkscape:window-maximized="0"
     inkscape:current-layer="svg2419" />
  <g
     id="use2184"
     transform="matrix(9.00118,0,0,-9.01095,574.195,18.397)">
    <path
       d="M 0.74,0.727 0.475,0 H 0.265 L 0,0.727 h 0.197 l 0.176,-0.51 0.175,0.51 z"
       id="path3768" />
  </g>
  <g
     id="use2185"
     transform="matrix(9.00118,0,0,-9.01095,581.582,18.533)">
    <path
       d="M 0.521,0.356 A 0.159,0.159 0 0 0 0.56,0.308 0.159,0.159 0 0 0 0.574,0.235 0.226,0.226 0 0 0 0.554,0.14 0.196,0.196 0 0 0 0.49,0.063 0.305,0.305 0 0 0 0.395,0.016 0.739,0.739 0 0 0 0,0.046 v 0.16 H 0.019 A 0.47,0.47 0 0 1 0.226,0.143 c 0.019,0 0.04,0.002 0.062,0.004 0.022,0.004 0.04,0.01 0.056,0.021 a 0.099,0.099 0 0 1 0.029,0.03 c 0.007,0.011 0.01,0.028 0.01,0.05 A 0.073,0.073 0 0 1 0.37,0.296 0.079,0.079 0 0 1 0.33,0.321 0.196,0.196 0 0 1 0.272,0.33 H 0.17 v 0.13 h 0.04 c 0.027,0 0.05,0.001 0.07,0.003 A 0.16,0.16 0 0 1 0.33,0.474 0.074,0.074 0 0 1 0.36,0.5 0.08,0.08 0 0 1 0.37,0.545 0.052,0.052 0 0 1 0.36,0.58 0.078,0.078 0 0 1 0.331,0.602 0.146,0.146 0 0 1 0.286,0.613 0.348,0.348 0 0 1 0.143,0.6 0.45,0.45 0 0 1 0.04,0.554 H 0.021 V 0.71 C 0.048,0.722 0.084,0.732 0.13,0.742 A 0.648,0.648 0 0 0 0.39,0.745 0.295,0.295 0 0 0 0.476,0.713 0.162,0.162 0 0 0 0.536,0.655 0.159,0.159 0 0 0 0.555,0.575 0.17,0.17 0 0 0 0.418,0.406 V 0.4 a 0.253,0.253 0 0 0 0.053,-0.014 0.167,0.167 0 0 0 0.05,-0.03 z"
       id="path4164" />
  </g>
  <g
     id="use2186"
     transform="matrix(9.00118,0,0,-9.01095,588.17,18.397)">
    <path
       d="M 0.183,0 H 0 v 0.192 h 0.183 z"
       id="path3777" />
  </g>
  <g
     id="use2187"
     transform="matrix(9.00118,0,0,-9.01095,591.785,18.397)">
    <path
       d="M 0.485,0 H 0 V 0.127 H 0.153 V 0.511 H 0 V 0.63 a 0.56,0.56 0 0 1 0.067,0.004 c 0.022,0.003 0.04,0.008 0.054,0.014 A 0.09,0.09 0 0 1 0.16,0.68 0.1,0.1 0 0 1 0.174,0.73 H 0.335 V 0.127 h 0.15 z"
       id="path3773" />
  </g>
  <g
     id="use2285"
     transform="matrix(9.00118,0,0,-9.01095,605.788,18.271)">
    <path
       d="M 0.476,0.507 A 0.234,0.234 0 0 0 0.412,0.347 0.244,0.244 0 0 0 0.322,0.29 0.385,0.385 0 0 0 0.194,0.27 H 0.097 V 0 H 0 v 0.727 h 0.197 c 0.044,0 0.08,-0.004 0.111,-0.011 A 0.246,0.246 0 0 0 0.388,0.682 0.194,0.194 0 0 0 0.453,0.612 0.215,0.215 0 0 0 0.476,0.507 M 0.375,0.505 A 0.151,0.151 0 0 1 0.362,0.57 0.11,0.11 0 0 1 0.322,0.616 0.158,0.158 0 0 1 0.268,0.637 0.347,0.347 0 0 1 0.192,0.644 H 0.097 v -0.29 h 0.081 c 0.04,0 0.071,0.003 0.095,0.01 a 0.137,0.137 0 0 1 0.102,0.14 z"
       id="path2448" />
  </g>
  <g
     id="use2286"
     transform="matrix(9.00118,0,0,-9.01095,610.336,18.271)">
    <path
       d="M 0.616,0.641 H 0.356 V 0 H 0.26 V 0.641 H 0 v 0.086 h 0.616 z"
       id="path2459" />
  </g>
  <g
     id="use2287"
     transform="matrix(9.00118,0,0,-9.01095,615.881,18.271)">
    <path
       d="M 0,0 Z"
       id="path2707" />
  </g>
  <g
     id="use2288"
     transform="matrix(9.00118,0,0,-9.01095,619.928,18.271)">
    <path
       d="M 0.647,0 H 0.551 V 0.626 L 0.349,0.2 H 0.29 L 0.09,0.626 V 0 H 0 V 0.727 H 0.132 L 0.326,0.322 0.513,0.727 h 0.134 z"
       id="path2718" />
  </g>
  <g
     id="use2289"
     transform="matrix(9.00118,0,0,-9.01095,627.103,18.408)">
    <path
       d="M 0.503,0.288 A 0.306,0.306 0 0 0 0.435,0.078 0.232,0.232 0 0 0 0.252,0 0.234,0.234 0 0 0 0.068,0.077 0.307,0.307 0 0 0 0,0.287 c 0,0.09 0.023,0.16 0.068,0.211 A 0.233,0.233 0 0 0 0.252,0.576 0.232,0.232 0 0 0 0.435,0.498 0.306,0.306 0 0 0 0.503,0.288 m -0.094,0 c 0,0.07 -0.014,0.123 -0.042,0.157 A 0.14,0.14 0 0 1 0.252,0.497 0.14,0.14 0 0 1 0.136,0.445 C 0.108,0.41 0.095,0.358 0.095,0.288 A 0.25,0.25 0 0 1 0.136,0.132 0.139,0.139 0 0 1 0.252,0.079 c 0.049,0 0.087,0.018 0.115,0.052 0.028,0.036 0.042,0.088 0.042,0.157 z"
       id="path2819" />
  </g>
  <g
     id="use2290"
     transform="matrix(9.00118,0,0,-9.01095,632.914,18.271)">
    <path
       d="M 0.456,0 H 0.364 V 0.31 A 0.53,0.53 0 0 1 0.36,0.38 0.13,0.13 0 0 1 0.344,0.433 0.073,0.073 0 0 1 0.309,0.463 0.147,0.147 0 0 1 0.249,0.473 0.19,0.19 0 0 1 0.17,0.455 0.4,0.4 0 0 1 0.092,0.407 V 0 H 0 V 0.545 H 0.092 V 0.485 A 0.373,0.373 0 0 0 0.18,0.54 C 0.21,0.553 0.242,0.56 0.274,0.56 0.334,0.56 0.379,0.543 0.41,0.507 0.44,0.472 0.456,0.421 0.456,0.354 Z"
       id="path2918" />
  </g>
  <g
     id="use2291"
     transform="matrix(9.00118,0,0,-9.01095,638.265,18.408)">
    <path
       d="M 0.503,0.288 A 0.306,0.306 0 0 0 0.435,0.078 0.232,0.232 0 0 0 0.252,0 0.234,0.234 0 0 0 0.068,0.077 0.307,0.307 0 0 0 0,0.287 c 0,0.09 0.023,0.16 0.068,0.211 A 0.233,0.233 0 0 0 0.252,0.576 0.232,0.232 0 0 0 0.435,0.498 0.306,0.306 0 0 0 0.503,0.288 m -0.094,0 c 0,0.07 -0.014,0.123 -0.042,0.157 A 0.14,0.14 0 0 1 0.252,0.497 0.14,0.14 0 0 1 0.136,0.445 C 0.108,0.41 0.095,0.358 0.095,0.288 A 0.25,0.25 0 0 1 0.136,0.132 0.139,0.139 0 0 1 0.252,0.079 c 0.049,0 0.087,0.018 0.115,0.052 0.028,0.036 0.042,0.088 0.042,0.157 z"
       id="path2820" />
  </g>
  <g
     id="use2292"
     transform="matrix(9.00118,0,0,-9.01095,643.263,18.271)">
    <path
       d="M 0,0 Z"
       id="path2708" />
  </g>
  <g
     id="use2293"
     transform="matrix(9.00118,0,0,-9.01095,647.31,18.271)">
    <path
       d="M 0.548,0.224 A 0.213,0.213 0 0 0 0.528,0.128 0.193,0.193 0 0 0 0.473,0.06 0.255,0.255 0 0 0 0.383,0.014 0.472,0.472 0 0 0 0.257,0 H 0 V 0.727 H 0.215 A 0.886,0.886 0 0 0 0.335,0.721 0.242,0.242 0 0 0 0.41,0.697 0.135,0.135 0 0 0 0.468,0.643 0.16,0.16 0 0 0 0.486,0.564 0.147,0.147 0 0 0 0.46,0.476 0.19,0.19 0 0 0 0.39,0.417 V 0.414 A 0.2,0.2 0 0 0 0.506,0.349 0.185,0.185 0 0 0 0.548,0.224 M 0.386,0.55 A 0.101,0.101 0 0 1 0.377,0.595 0.068,0.068 0 0 1 0.349,0.624 0.135,0.135 0 0 1 0.293,0.64 0.801,0.801 0 0 1 0.212,0.644 H 0.097 v -0.21 h 0.125 c 0.03,0 0.054,0.001 0.072,0.004 0.018,0.003 0.034,0.01 0.05,0.02 a 0.08,0.08 0 0 1 0.032,0.037 c 0.006,0.016 0.01,0.034 0.01,0.055 M 0.448,0.22 c 0,0.029 -0.005,0.052 -0.013,0.07 A 0.106,0.106 0 0 1 0.387,0.333 0.158,0.158 0 0 1 0.33,0.35 0.71,0.71 0 0 1 0.249,0.354 H 0.097 v -0.27 h 0.128 c 0.042,0 0.077,0.002 0.104,0.006 0.027,0.004 0.049,0.013 0.066,0.024 a 0.123,0.123 0 0 1 0.04,0.044 0.136,0.136 0 0 1 0.013,0.063 z"
       id="path2929" />
  </g>
  <g
     id="use2294"
     transform="matrix(9.00118,0,0,-9.01095,653.072,18.408)">
    <path
       d="M 0.503,0.288 A 0.306,0.306 0 0 0 0.435,0.078 0.232,0.232 0 0 0 0.252,0 0.234,0.234 0 0 0 0.068,0.077 0.307,0.307 0 0 0 0,0.287 c 0,0.09 0.023,0.16 0.068,0.211 A 0.233,0.233 0 0 0 0.252,0.576 0.232,0.232 0 0 0 0.435,0.498 0.306,0.306 0 0 0 0.503,0.288 m -0.094,0 c 0,0.07 -0.014,0.123 -0.042,0.157 A 0.14,0.14 0 0 1 0.252,0.497 0.14,0.14 0 0 1 0.136,0.445 C 0.108,0.41 0.095,0.358 0.095,0.288 A 0.25,0.25 0 0 1 0.136,0.132 0.139,0.139 0 0 1 0.252,0.079 c 0.049,0 0.087,0.018 0.115,0.052 0.028,0.036 0.042,0.088 0.042,0.157 z"
       id="path2821" />
  </g>
  <g
     id="use2295"
     transform="matrix(9.00118,0,0,-9.01095,658.892,18.271)">
    <path
       d="M 0.092,0 H 0 v 0.76 h 0.092 z"
       id="path3008" />
  </g>
  <g
     id="use2296"
     transform="matrix(9.00118,0,0,-9.01095,661.01,18.408)">
    <path
       d="M 0.48,0.015 H 0.388 V 0.072 A 0.332,0.332 0 0 0 0.306,0.02 0.228,0.228 0 0 0 0.212,0 0.185,0.185 0 0 0 0.057,0.075 0.338,0.338 0 0 0 0,0.284 C 0,0.33 0.007,0.37 0.02,0.407 A 0.288,0.288 0 0 0 0.073,0.5 0.226,0.226 0 0 0 0.243,0.576 0.284,0.284 0 0 0 0.388,0.539 V 0.775 H 0.48 V 0.015 M 0.388,0.15 V 0.463 A 0.302,0.302 0 0 1 0.258,0.493 0.145,0.145 0 0 1 0.138,0.439 0.238,0.238 0 0 1 0.095,0.287 C 0.095,0.222 0.105,0.173 0.128,0.139 0.15,0.104 0.186,0.088 0.234,0.088 a 0.2,0.2 0 0 1 0.08,0.016 0.343,0.343 0 0 1 0.074,0.045 z"
       id="path3061" />
  </g>
  <g
     id="use2297"
     transform="matrix(9.00118,0,0,-9.01095,666.144,18.271)">
    <path
       d="M 0,0 Z"
       id="path2709" />
  </g>
  <g
     id="use2298"
     transform="matrix(9.00118,0,0,-9.01095,670.191,18.271)">
    <path
       d="M 0.464,0.641 H 0.097 V 0.436 H 0.413 V 0.35 H 0.097 V 0 H 0 v 0.727 h 0.464 z"
       id="path3067" />
  </g>
  <g
     id="use2299"
     transform="matrix(9.00118,0,0,-9.01095,674.738,18.408)">
    <path
       d="M 0.503,0.288 A 0.306,0.306 0 0 0 0.435,0.078 0.232,0.232 0 0 0 0.252,0 0.234,0.234 0 0 0 0.068,0.077 0.307,0.307 0 0 0 0,0.287 c 0,0.09 0.023,0.16 0.068,0.211 A 0.233,0.233 0 0 0 0.252,0.576 0.232,0.232 0 0 0 0.435,0.498 0.306,0.306 0 0 0 0.503,0.288 m -0.094,0 c 0,0.07 -0.014,0.123 -0.042,0.157 A 0.14,0.14 0 0 1 0.252,0.497 0.14,0.14 0 0 1 0.136,0.445 C 0.108,0.41 0.095,0.358 0.095,0.288 A 0.25,0.25 0 0 1 0.136,0.132 0.139,0.139 0 0 1 0.252,0.079 c 0.049,0 0.087,0.018 0.115,0.052 0.028,0.036 0.042,0.088 0.042,0.157 z"
       id="path2822" />
  </g>
  <g
     id="use2300"
     transform="matrix(9.00118,0,0,-9.01095,680.549,18.271)">
    <path
       d="M 0.456,0 H 0.364 V 0.31 A 0.53,0.53 0 0 1 0.36,0.38 0.13,0.13 0 0 1 0.344,0.433 0.073,0.073 0 0 1 0.309,0.463 0.147,0.147 0 0 1 0.249,0.473 0.19,0.19 0 0 1 0.17,0.455 0.4,0.4 0 0 1 0.092,0.407 V 0 H 0 V 0.545 H 0.092 V 0.485 A 0.373,0.373 0 0 0 0.18,0.54 C 0.21,0.553 0.242,0.56 0.274,0.56 0.334,0.56 0.379,0.543 0.41,0.507 0.44,0.472 0.456,0.421 0.456,0.354 Z"
       id="path2919" />
  </g>
  <g
     id="use2301"
     transform="matrix(9.00118,0,0,-9.01095,685.706,18.368)">
    <path
       d="M 0.343,0.016 A 0.498,0.498 0 0 0 0.233,0 C 0.176,0 0.133,0.015 0.104,0.045 0.076,0.075 0.062,0.123 0.062,0.189 v 0.29 H 0 V 0.556 H 0.062 V 0.713 H 0.154 V 0.556 h 0.19 V 0.48 H 0.154 V 0.23 c 0,-0.028 0,-0.05 0.002,-0.067 A 0.11,0.11 0 0 1 0.169,0.118 0.068,0.068 0 0 1 0.2,0.09 0.186,0.186 0 0 1 0.303,0.087 0.359,0.359 0 0 1 0.338,0.098 h 0.005 z"
       id="path3152" />
  </g>
  <g
     id="use2302"
     transform="matrix(9.00118,0,0,-9.01095,688.98,18.271)">
    <path
       d="M 0,0 Z"
       id="path2710" />
  </g>
  <g
     id="use2303"
     transform="matrix(9.00118,0,0,-9.01095,692.82,15.803)">
    <path
       d="M 0.305,0 H 0 v 0.088 h 0.305 z"
       id="path3167" />
  </g>
  <g
     id="use2304"
     transform="matrix(9.00118,0,0,-9.01095,696.235,18.271)">
    <path
       d="M 0,0 Z"
       id="path2711" />
  </g>
  <g
     id="use2305"
     transform="matrix(9.00118,0,0,-9.01095,699.909,18.408)">
    <path
       d="M 0.583,0.659 A 0.328,0.328 0 0 0 0.651,0.539 0.5,0.5 0 0 0 0.675,0.379 0.496,0.496 0 0 0 0.651,0.217 0.327,0.327 0 0 0 0.583,0.1 0.289,0.289 0 0 0 0.477,0.025 0.367,0.367 0 0 0 0.337,0 0.37,0.37 0 0 0 0.197,0.025 0.289,0.289 0 0 0 0.092,0.1 0.333,0.333 0 0 0 0.024,0.219 0.507,0.507 0 0 0 0.001,0.379 c 0,0.06 0.008,0.113 0.023,0.16 A 0.34,0.34 0 0 0 0.093,0.659 0.28,0.28 0 0 0 0.199,0.733 0.374,0.374 0 0 0 0.339,0.758 0.36,0.36 0 0 0 0.479,0.732 0.29,0.29 0 0 0 0.583,0.66 M 0.575,0.379 A 0.334,0.334 0 0 1 0.51,0.596 0.212,0.212 0 0 1 0.337,0.673 0.214,0.214 0 0 1 0.163,0.596 0.335,0.335 0 0 1 0.1,0.378 0.33,0.33 0 0 1 0.165,0.16 c 0.043,-0.05 0.1,-0.077 0.173,-0.077 0.072,0 0.13,0.027 0.172,0.077 a 0.33,0.33 0 0 1 0.065,0.22 z"
       id="path3718" />
  </g>
  <g
     id="use2306"
     transform="matrix(9.00118,0,0,-9.01095,707.3,18.271)">
    <path
       d="M 0.34,0.445 H 0.335 A 0.303,0.303 0 0 1 0.25,0.455 0.187,0.187 0 0 1 0.168,0.435 0.37,0.37 0 0 1 0.092,0.387 V 0 H 0 v 0.545 h 0.092 v -0.08 c 0.036,0.03 0.068,0.05 0.096,0.062 A 0.21,0.21 0 0 0 0.273,0.545 0.288,0.288 0 0 0 0.34,0.54 Z"
       id="path3525" />
  </g>
  <g
     id="use2307"
     transform="matrix(9.00118,0,0,-9.01095,711.1,18.271)">
    <path
       d="M 0.104,0.637 H 0 V 0.732 H 0.104 V 0.637 M 0.098,0 H 0.006 v 0.545 h 0.092 z"
       id="path3637" />
  </g>
  <g
     id="use2308"
     transform="matrix(9.00118,0,0,-9.01095,713.271,20.133)">
    <path
       d="M 0.48,0.269 C 0.48,0.176 0.459,0.109 0.417,0.065 0.375,0.022 0.31,0 0.223,0 A 0.561,0.561 0 0 0 0.057,0.023 V 0.117 H 0.062 A 0.695,0.695 0 0 1 0.133,0.096 0.373,0.373 0 0 1 0.231,0.083 c 0.031,0 0.057,0.003 0.078,0.01 a 0.112,0.112 0 0 1 0.071,0.079 0.228,0.228 0 0 1 0.007,0.06 v 0.05 a 0.36,0.36 0 0 0 -0.08,-0.05 0.246,0.246 0 0 0 -0.096,-0.016 0.19,0.19 0 0 0 -0.155,0.07 0.31,0.31 0 0 0 -0.057,0.2 c 0,0.046 0.007,0.087 0.02,0.12 A 0.278,0.278 0 0 0 0.073,0.695 0.217,0.217 0 0 0 0.15,0.749 c 0.03,0.013 0.06,0.02 0.09,0.02 A 0.273,0.273 0 0 0 0.387,0.729 L 0.393,0.753 H 0.48 V 0.269 M 0.388,0.356 v 0.298 a 0.341,0.341 0 0 1 -0.13,0.03 0.149,0.149 0 0 1 -0.12,-0.05 C 0.11,0.6 0.095,0.55 0.095,0.486 0.095,0.426 0.105,0.379 0.127,0.347 0.148,0.316 0.184,0.3 0.234,0.3 c 0.026,0 0.053,0.005 0.08,0.015 0.027,0.01 0.052,0.024 0.074,0.041 z"
       id="path3851" />
  </g>
  <g
     id="use2309"
     transform="matrix(9.00118,0,0,-9.01095,718.862,18.408)">
    <path
       d="M 0.463,0.015 H 0.373 V 0.073 A 1.57,1.57 0 0 1 0.338,0.05 0.263,0.263 0 0 0 0.176,0 C 0.127,0 0.086,0.016 0.051,0.049 A 0.164,0.164 0 0 0 0,0.173 c 0,0.042 0.009,0.075 0.026,0.1 a 0.179,0.179 0 0 0 0.077,0.061 0.41,0.41 0 0 0 0.12,0.03 c 0.046,0.005 0.096,0.009 0.15,0.011 V 0.39 C 0.372,0.41 0.367,0.428 0.36,0.44 A 0.078,0.078 0 0 1 0.33,0.474 0.13,0.13 0 0 1 0.283,0.489 0.404,0.404 0 0 1 0.053,0.456 H 0.048 V 0.549 A 0.897,0.897 0 0 0 0.226,0.574 0.451,0.451 0 0 0 0.326,0.564 0.192,0.192 0 0 0 0.4,0.532 0.144,0.144 0 0 0 0.447,0.474 0.214,0.214 0 0 0 0.463,0.385 V 0.015 M 0.373,0.15 V 0.302 A 3.722,3.722 0 0 1 0.273,0.295 0.51,0.51 0 0 1 0.183,0.281 0.147,0.147 0 0 1 0.12,0.245 0.086,0.086 0 0 1 0.095,0.18 c 0,-0.032 0.01,-0.055 0.028,-0.071 0.019,-0.016 0.048,-0.024 0.086,-0.024 0.033,0 0.062,0.007 0.089,0.019 a 0.408,0.408 0 0 1 0.074,0.045 z"
       id="path3282" />
  </g>
  <g
     id="use2310"
     transform="matrix(9.00118,0,0,-9.01095,724.627,18.271)">
    <path
       d="M 0.796,0 H 0.704 V 0.31 A 0.653,0.653 0 0 1 0.701,0.378 0.14,0.14 0 0 1 0.688,0.431 0.074,0.074 0 0 1 0.655,0.462 0.17,0.17 0 0 1 0.517,0.453 0.46,0.46 0 0 1 0.44,0.406 0.412,0.412 0 0 0 0.444,0.349 V 0 H 0.352 V 0.31 A 0.649,0.649 0 0 1 0.35,0.38 0.14,0.14 0 0 1 0.335,0.43 0.071,0.071 0 0 1 0.303,0.461 0.172,0.172 0 0 1 0.167,0.453 0.456,0.456 0 0 1 0.092,0.406 V 0 H 0 V 0.545 H 0.092 V 0.485 A 0.406,0.406 0 0 0 0.177,0.54 0.214,0.214 0 0 0 0.363,0.537 0.144,0.144 0 0 0 0.42,0.472 0.446,0.446 0 0 0 0.522,0.54 C 0.553,0.554 0.586,0.56 0.621,0.56 0.68,0.56 0.725,0.543 0.753,0.507 A 0.239,0.239 0 0 0 0.796,0.354 Z"
       id="path4011" />
  </g>
  <g
     id="use2311"
     transform="matrix(9.00118,0,0,-9.01095,733.342,18.271)">
    <path
       d="M 0.104,0.637 H 0 V 0.732 H 0.104 V 0.637 M 0.098,0 H 0.006 v 0.545 h 0.092 z"
       id="path3638" />
  </g>
  <g
     id="use2312"
     transform="matrix(9.00118,0,0,-9.01095,735.039,18.271)">
    <path
       d="M 0,0 Z"
       id="path2712" />
  </g>
  <g
     id="use2313"
     transform="matrix(9.00118,0,0,-9.01095,739.086,18.271)">
    <path
       d="M 0.476,0.507 A 0.234,0.234 0 0 0 0.412,0.347 0.244,0.244 0 0 0 0.322,0.29 0.385,0.385 0 0 0 0.194,0.27 H 0.097 V 0 H 0 v 0.727 h 0.197 c 0.044,0 0.08,-0.004 0.111,-0.011 A 0.246,0.246 0 0 0 0.388,0.682 0.194,0.194 0 0 0 0.453,0.612 0.215,0.215 0 0 0 0.476,0.507 M 0.375,0.505 A 0.151,0.151 0 0 1 0.362,0.57 0.11,0.11 0 0 1 0.322,0.616 0.158,0.158 0 0 1 0.268,0.637 0.347,0.347 0 0 1 0.192,0.644 H 0.097 v -0.29 h 0.081 c 0.04,0 0.071,0.003 0.095,0.01 a 0.137,0.137 0 0 1 0.102,0.14 z"
       id="path2449" />
  </g>
  <g
     id="use2314"
     transform="matrix(9.00118,0,0,-9.01095,744.404,18.271)">
    <path
       d="M 0.104,0.637 H 0 V 0.732 H 0.104 V 0.637 M 0.098,0 H 0.006 v 0.545 h 0.092 z"
       id="path3639" />
  </g>
  <g
     id="use2315"
     transform="matrix(9.00118,0,0,-9.01095,746.576,20.133)">
    <path
       d="M 0.48,0.269 C 0.48,0.176 0.459,0.109 0.417,0.065 0.375,0.022 0.31,0 0.223,0 A 0.561,0.561 0 0 0 0.057,0.023 V 0.117 H 0.062 A 0.695,0.695 0 0 1 0.133,0.096 0.373,0.373 0 0 1 0.231,0.083 c 0.031,0 0.057,0.003 0.078,0.01 a 0.112,0.112 0 0 1 0.071,0.079 0.228,0.228 0 0 1 0.007,0.06 v 0.05 a 0.36,0.36 0 0 0 -0.08,-0.05 0.246,0.246 0 0 0 -0.096,-0.016 0.19,0.19 0 0 0 -0.155,0.07 0.31,0.31 0 0 0 -0.057,0.2 c 0,0.046 0.007,0.087 0.02,0.12 A 0.278,0.278 0 0 0 0.073,0.695 0.217,0.217 0 0 0 0.15,0.749 c 0.03,0.013 0.06,0.02 0.09,0.02 A 0.273,0.273 0 0 0 0.387,0.729 L 0.393,0.753 H 0.48 V 0.269 M 0.388,0.356 v 0.298 a 0.341,0.341 0 0 1 -0.13,0.03 0.149,0.149 0 0 1 -0.12,-0.05 C 0.11,0.6 0.095,0.55 0.095,0.486 0.095,0.426 0.105,0.379 0.127,0.347 0.148,0.316 0.184,0.3 0.234,0.3 c 0.026,0 0.053,0.005 0.08,0.015 0.027,0.01 0.052,0.024 0.074,0.041 z"
       id="path3852" />
  </g>
  <g
     id="use2316"
     transform="matrix(9.00118,0,0,-9.01095,752.175,18.386)">
    <path
       d="M 0.495,0.276 H 0.093 c 0,-0.034 0.005,-0.063 0.015,-0.088 A 0.165,0.165 0 0 1 0.21,0.092 0.243,0.243 0 0 1 0.287,0.08 c 0.037,0 0.074,0.007 0.113,0.022 a 0.28,0.28 0 0 1 0.08,0.044 h 0.005 v -0.1 A 0.757,0.757 0 0 0 0.39,0.013 0.384,0.384 0 0 0 0.288,0 0.293,0.293 0 0 0 0.076,0.073 C 0.026,0.123 0,0.193 0,0.283 a 0.3,0.3 0 0 0 0.073,0.212 0.25,0.25 0 0 0 0.192,0.078 c 0.075,0 0.13,-0.021 0.17,-0.063 0.04,-0.043 0.06,-0.104 0.06,-0.183 v -0.05 m -0.09,0.07 A 0.162,0.162 0 0 1 0.37,0.458 C 0.345,0.484 0.31,0.498 0.26,0.498 A 0.16,0.16 0 0 1 0.143,0.454 0.17,0.17 0 0 1 0.093,0.346 h 0.313 z"
       id="path3446" />
  </g>
  <g
     id="use2317"
     transform="matrix(9.00118,0,0,-9.01095,757.54,18.408)">
    <path
       d="M 0.503,0.288 A 0.306,0.306 0 0 0 0.435,0.078 0.232,0.232 0 0 0 0.252,0 0.234,0.234 0 0 0 0.068,0.077 0.307,0.307 0 0 0 0,0.287 c 0,0.09 0.023,0.16 0.068,0.211 A 0.233,0.233 0 0 0 0.252,0.576 0.232,0.232 0 0 0 0.435,0.498 0.306,0.306 0 0 0 0.503,0.288 m -0.094,0 c 0,0.07 -0.014,0.123 -0.042,0.157 A 0.14,0.14 0 0 1 0.252,0.497 0.14,0.14 0 0 1 0.136,0.445 C 0.108,0.41 0.095,0.358 0.095,0.288 A 0.25,0.25 0 0 1 0.136,0.132 0.139,0.139 0 0 1 0.252,0.079 c 0.049,0 0.087,0.018 0.115,0.052 0.028,0.036 0.042,0.088 0.042,0.157 z"
       id="path2823" />
  </g>
  <g
     id="use2318"
     transform="matrix(9.00118,0,0,-9.01095,763.35,18.271)">
    <path
       d="M 0.456,0 H 0.364 V 0.31 A 0.53,0.53 0 0 1 0.36,0.38 0.13,0.13 0 0 1 0.344,0.433 0.073,0.073 0 0 1 0.309,0.463 0.147,0.147 0 0 1 0.249,0.473 0.19,0.19 0 0 1 0.17,0.455 0.4,0.4 0 0 1 0.092,0.407 V 0 H 0 V 0.545 H 0.092 V 0.485 A 0.373,0.373 0 0 0 0.18,0.54 C 0.21,0.553 0.242,0.56 0.274,0.56 0.334,0.56 0.379,0.543 0.41,0.507 0.44,0.472 0.456,0.421 0.456,0.354 Z"
       id="path2920" />
  </g>
  <g
     id="use2319"
     transform="matrix(9.00118,0,0,-9.01095,768.235,18.271)">
    <path
       d="M 0,0 Z"
       id="path2713" />
  </g>
  <g
     id="use2320"
     transform="matrix(9.00118,0,0,-9.01095,771.909,18.408)">
    <path
       d="M 0.583,0.659 A 0.328,0.328 0 0 0 0.651,0.539 0.5,0.5 0 0 0 0.675,0.379 0.496,0.496 0 0 0 0.651,0.217 0.327,0.327 0 0 0 0.583,0.1 0.289,0.289 0 0 0 0.477,0.025 0.367,0.367 0 0 0 0.337,0 0.37,0.37 0 0 0 0.197,0.025 0.289,0.289 0 0 0 0.092,0.1 0.333,0.333 0 0 0 0.024,0.219 0.507,0.507 0 0 0 0.001,0.379 c 0,0.06 0.008,0.113 0.023,0.16 A 0.34,0.34 0 0 0 0.093,0.659 0.28,0.28 0 0 0 0.199,0.733 0.374,0.374 0 0 0 0.339,0.758 0.36,0.36 0 0 0 0.479,0.732 0.29,0.29 0 0 0 0.583,0.66 M 0.575,0.379 A 0.334,0.334 0 0 1 0.51,0.596 0.212,0.212 0 0 1 0.337,0.673 0.214,0.214 0 0 1 0.163,0.596 0.335,0.335 0 0 1 0.1,0.378 0.33,0.33 0 0 1 0.165,0.16 c 0.043,-0.05 0.1,-0.077 0.173,-0.077 0.072,0 0.13,0.027 0.172,0.077 a 0.33,0.33 0 0 1 0.065,0.22 z"
       id="path3719" />
  </g>
  <g
     id="use2321"
     transform="matrix(9.00118,0,0,-9.01095,779.265,18.408)">
    <path
       d="M 0.456,0.015 H 0.364 v 0.06 A 0.447,0.447 0 0 0 0.275,0.02 0.222,0.222 0 0 0 0.182,0 0.172,0.172 0 0 0 0.048,0.052 C 0.016,0.087 0,0.14 0,0.207 V 0.56 H 0.092 V 0.25 c 0,-0.028 0.001,-0.051 0.004,-0.071 A 0.13,0.13 0 0 1 0.112,0.129 0.079,0.079 0 0 1 0.146,0.097 0.15,0.15 0 0 1 0.208,0.087 c 0.023,0 0.05,0.007 0.077,0.019 a 0.361,0.361 0 0 1 0.08,0.047 v 0.408 h 0.091 z"
       id="path3760" />
  </g>
  <g
     id="use2322"
     transform="matrix(9.00118,0,0,-9.01095,784.458,18.368)">
    <path
       d="M 0.343,0.016 A 0.498,0.498 0 0 0 0.233,0 C 0.176,0 0.133,0.015 0.104,0.045 0.076,0.075 0.062,0.123 0.062,0.189 v 0.29 H 0 V 0.556 H 0.062 V 0.713 H 0.154 V 0.556 h 0.19 V 0.48 H 0.154 V 0.23 c 0,-0.028 0,-0.05 0.002,-0.067 A 0.11,0.11 0 0 1 0.169,0.118 0.068,0.068 0 0 1 0.2,0.09 0.186,0.186 0 0 1 0.303,0.087 0.359,0.359 0 0 1 0.338,0.098 h 0.005 z"
       id="path3153" />
  </g>
  <g
     id="use2323"
     transform="matrix(9.00118,0,0,-9.01095,788.553,18.271)">
    <path
       d="M 0.092,0 H 0 v 0.76 h 0.092 z"
       id="path3009" />
  </g>
  <g
     id="use2324"
     transform="matrix(9.00118,0,0,-9.01095,790.967,18.271)">
    <path
       d="M 0.104,0.637 H 0 V 0.732 H 0.104 V 0.637 M 0.098,0 H 0.006 v 0.545 h 0.092 z"
       id="path3640" />
  </g>
  <g
     id="use2325"
     transform="matrix(9.00118,0,0,-9.01095,793.477,18.271)">
    <path
       d="M 0.456,0 H 0.364 V 0.31 A 0.53,0.53 0 0 1 0.36,0.38 0.13,0.13 0 0 1 0.344,0.433 0.073,0.073 0 0 1 0.309,0.463 0.147,0.147 0 0 1 0.249,0.473 0.19,0.19 0 0 1 0.17,0.455 0.4,0.4 0 0 1 0.092,0.407 V 0 H 0 V 0.545 H 0.092 V 0.485 A 0.373,0.373 0 0 0 0.18,0.54 C 0.21,0.553 0.242,0.56 0.274,0.56 0.334,0.56 0.379,0.543 0.41,0.507 0.44,0.472 0.456,0.421 0.456,0.354 Z"
       id="path2921" />
  </g>
  <g
     id="use2326"
     transform="matrix(9.00118,0,0,-9.01095,798.828,18.386)">
    <path
       d="M 0.495,0.276 H 0.093 c 0,-0.034 0.005,-0.063 0.015,-0.088 A 0.165,0.165 0 0 1 0.21,0.092 0.243,0.243 0 0 1 0.287,0.08 c 0.037,0 0.074,0.007 0.113,0.022 a 0.28,0.28 0 0 1 0.08,0.044 h 0.005 v -0.1 A 0.757,0.757 0 0 0 0.39,0.013 0.384,0.384 0 0 0 0.288,0 0.293,0.293 0 0 0 0.076,0.073 C 0.026,0.123 0,0.193 0,0.283 a 0.3,0.3 0 0 0 0.073,0.212 0.25,0.25 0 0 0 0.192,0.078 c 0.075,0 0.13,-0.021 0.17,-0.063 0.04,-0.043 0.06,-0.104 0.06,-0.183 v -0.05 m -0.09,0.07 A 0.162,0.162 0 0 1 0.37,0.458 C 0.345,0.484 0.31,0.498 0.26,0.498 A 0.16,0.16 0 0 1 0.143,0.454 0.17,0.17 0 0 1 0.093,0.346 h 0.313 z"
       id="path3447" />
  </g>
  <g
     id="use2327"
     transform="matrix(9.00118,0,0,-9.01095,803.727,18.271)">
    <path
       d="M 0,0 Z"
       id="path2714" />
  </g>
  <g
     id="use2328"
     transform="matrix(9.00118,0,0,-9.01095,807.497,18.271)">
    <path
       d="M 0.287,0 H 0 V 0.074 H 0.095 V 0.653 H 0 V 0.727 H 0.287 V 0.653 H 0.192 V 0.074 h 0.095 z"
       id="path3675" />
  </g>
  <g
     id="use2329"
     transform="matrix(9.00118,0,0,-9.01095,811.146,18.381)">
    <path
       d="M 0.442,0.046 A 0.588,0.588 0 0 0 0.355,0.012 0.33,0.33 0 0 0 0.159,0.017 0.224,0.224 0 0 0 0.019,0.159 0.367,0.367 0 0 0 0,0.284 c 0,0.09 0.024,0.16 0.073,0.21 0.05,0.05 0.114,0.076 0.195,0.076 A 0.324,0.324 0 0 0 0.359,0.557 0.479,0.479 0 0 0 0.442,0.525 V 0.423 H 0.437 A 0.348,0.348 0 0 1 0.351,0.473 0.235,0.235 0 0 1 0.264,0.491 0.155,0.155 0 0 1 0.14,0.438 C 0.11,0.403 0.095,0.352 0.095,0.284 0.095,0.218 0.11,0.168 0.14,0.132 A 0.154,0.154 0 0 1 0.264,0.08 0.248,0.248 0 0 1 0.372,0.106 0.455,0.455 0 0 1 0.438,0.147 h 0.004 v -0.1 z"
       id="path3714" />
  </g>
  <g
     id="use2330"
     transform="matrix(9.00118,0,0,-9.01095,815.84,18.408)">
    <path
       d="M 0.503,0.288 A 0.306,0.306 0 0 0 0.435,0.078 0.232,0.232 0 0 0 0.252,0 0.234,0.234 0 0 0 0.068,0.077 0.307,0.307 0 0 0 0,0.287 c 0,0.09 0.023,0.16 0.068,0.211 A 0.233,0.233 0 0 0 0.252,0.576 0.232,0.232 0 0 0 0.435,0.498 0.306,0.306 0 0 0 0.503,0.288 m -0.094,0 c 0,0.07 -0.014,0.123 -0.042,0.157 A 0.14,0.14 0 0 1 0.252,0.497 0.14,0.14 0 0 1 0.136,0.445 C 0.108,0.41 0.095,0.358 0.095,0.288 A 0.25,0.25 0 0 1 0.136,0.132 0.139,0.139 0 0 1 0.252,0.079 c 0.049,0 0.087,0.018 0.115,0.052 0.028,0.036 0.042,0.088 0.042,0.157 z"
       id="path2824" />
  </g>
  <g
     id="use2331"
     transform="matrix(9.00118,0,0,-9.01095,821.651,18.271)">
    <path
       d="M 0.456,0 H 0.364 V 0.31 A 0.53,0.53 0 0 1 0.36,0.38 0.13,0.13 0 0 1 0.344,0.433 0.073,0.073 0 0 1 0.309,0.463 0.147,0.147 0 0 1 0.249,0.473 0.19,0.19 0 0 1 0.17,0.455 0.4,0.4 0 0 1 0.092,0.407 V 0 H 0 V 0.545 H 0.092 V 0.485 A 0.373,0.373 0 0 0 0.18,0.54 C 0.21,0.553 0.242,0.56 0.274,0.56 0.334,0.56 0.379,0.543 0.41,0.507 0.44,0.472 0.456,0.421 0.456,0.354 Z"
       id="path2922" />
  </g>
  <g
     id="use2348"
     transform="matrix(40.0052,0,0,-40.04865,670.865,98.41)">
    <path
       d="M 0.394,0.155 H 0.185 L 0.137,0 H 0 L 0.226,0.7 H 0.363 L 0.588,0 H 0.444 l -0.05,0.155 m -0.177,0.11 h 0.15 L 0.296,0.499 H 0.287 Z"
       id="path2424" />
  </g>
  <g
     id="use2349"
     transform="matrix(40.0052,0,0,-40.04865,695.708,98.41)">
    <path
       d="M 0.286,0.151 H 0.293 L 0.405,0.5 h 0.14 L 0.354,0 H 0.215 L 0,0.5 h 0.151 z"
       id="path2429" />
  </g>
  <g
     id="use2350"
     transform="matrix(40.0052,0,0,-40.04865,720.191,98.41)">
    <path
       d="M 0,0.11 H 0.124 V 0.39 H 0 V 0.5 H 0.225 L 0.24,0.434 h 0.004 c 0.019,0.022 0.04,0.04 0.064,0.055 a 0.158,0.158 0 0 0 0.084,0.022 c 0.04,0 0.071,-0.015 0.094,-0.044 C 0.509,0.437 0.521,0.389 0.521,0.32 H 0.404 C 0.404,0.344 0.4,0.361 0.393,0.372 0.386,0.383 0.375,0.389 0.36,0.389 A 0.1,0.1 0 0 1 0.295,0.369 0.207,0.207 0 0 1 0.254,0.323 V 0.11 H 0.471 V 0 H 0 Z"
       id="path2434" />
  </g>
  <g
     id="use2351"
     transform="matrix(40.0052,0,0,-40.04865,744.034,98.971)">
    <path
       d="m 0,0.264 c 0,0.042 0.006,0.08 0.019,0.112 A 0.23,0.23 0 0 0 0.156,0.51 0.314,0.314 0 0 0 0.265,0.528 c 0.042,0 0.08,-0.006 0.112,-0.019 A 0.228,0.228 0 0 0 0.461,0.455 0.215,0.215 0 0 0 0.512,0.372 0.311,0.311 0 0 0 0.53,0.264 0.308,0.308 0 0 0 0.511,0.152 0.23,0.23 0 0 0 0.373,0.017 0.322,0.322 0 0 0 0.265,0 0.316,0.316 0 0 0 0.152,0.019 0.237,0.237 0 0 0 0.069,0.072 0.235,0.235 0 0 0 0.017,0.156 0.328,0.328 0 0 0 0,0.264 m 0.134,0 c 0,-0.022 0.003,-0.042 0.009,-0.061 A 0.15,0.15 0 0 1 0.169,0.154 0.123,0.123 0 0 1 0.21,0.121 0.13,0.13 0 0 1 0.265,0.11 c 0.039,0 0.07,0.012 0.094,0.037 0.025,0.025 0.037,0.064 0.037,0.117 A 0.171,0.171 0 0 1 0.362,0.375 0.116,0.116 0 0 1 0.265,0.418 0.147,0.147 0 0 1 0.213,0.409 0.101,0.101 0 0 1 0.171,0.382 0.139,0.139 0 0 1 0.144,0.334 0.216,0.216 0 0 1 0.134,0.264 Z"
       id="path2439" />
  </g>
  <path
     d="m648.828 73.793 1.461-1.395 6.82 8.024.125 3.637"
     fill="#8b72b9"
     id="path2392" />
  <path
     d="m642.867 67.703-5.12 33.41 19.714-15.386zm0 0"
     fill="#999"
     id="path2393" />
  <path
     transform="scale(.99891 1)"
     stroke-width="1.397"
     stroke-linecap="square"
     stroke-linejoin="round"
     fill="none"
     stroke="#3b3b3b"
     d="m643.565 67.703-5.126 33.41 19.736-15.386zm0 0"
     id="path2394" />
  <path
     d="M650.566 72.715c-.004-.02 2.254-2.231 3.539-3.383l2.489-2.238.062.605c.16 1.59.406 13.145.406 13.145-.218-.18-6.496-8.129-6.496-8.129zm0 0"
     fill="#1cac81"
     id="path2395" />
  <path
     transform="scale(.99891 1)"
     stroke-width="1.397"
     stroke-linecap="square"
     stroke-linejoin="round"
     fill="none"
     stroke="#3b3b3b"
     d="m649.005 73.918 8.857-8.238.282 14.191.109 5.719zm0 0"
     id="path2396" />
  <path
     d="m639.285 91.086-13.004-.391 11.465 10.258zm0 0"
     fill="#666"
     id="path2397" />
  <path
     transform="scale(.99891 1)"
     stroke-width="1.397"
     stroke-linecap="square"
     stroke-linejoin="round"
     fill="none"
     stroke="#3b3b3b"
     d="m639.979 91.086-13.018-.391 11.478 10.258zm0 0"
     id="path2398" />
  <path
     d="m627.309 63.746-.466 3.09"
     fill="#4d4d4d"
     id="path2399" />
  <path
     transform="scale(.99891 1)"
     stroke-width="1.397"
     stroke-linecap="square"
     stroke-linejoin="round"
     fill="none"
     stroke="#666"
     d="m627.99 63.746-.466 3.09"
     id="path2400" />
  <path
     d="m632.453 65.125-1.172 7.406"
     fill="#4d4d4d"
     id="path2401" />
  <path
     transform="scale(.99891 1)"
     stroke-width="1.397"
     stroke-linecap="square"
     stroke-linejoin="round"
     fill="none"
     stroke="#666"
     d="m633.14 65.125-1.173 7.406"
     id="path2402" />
  <path
     d="m635.332 66.051-1.554 9.711"
     fill="#4d4d4d"
     id="path2403" />
  <path
     transform="scale(.99891 1)"
     stroke-width="1.397"
     stroke-linecap="square"
     stroke-linejoin="round"
     fill="none"
     stroke="#666"
     d="m636.022 66.051-1.556 9.711"
     id="path2404" />
  <path
     d="M657.715 71c0-.887-.051-2.273-.024-2.781l.067-1.309 1.637.867 1.707 1.157-.29 1.394-.179 1.508-1.125.406-1.789.699zm0 0"
     fill="#1cac81"
     id="path2405" />
  <path
     d="M624.91 64.645c-.656-.801-1.285-1.649-1.269-1.665.031-.031 2.898.754 2.961.817.039.035-.332 2.371-.321 2.445.031.176-.715-.797-1.371-1.597zm0 0"
     fill="#666"
     id="path2406" />
  <path
     transform="scale(.99891 1)"
     stroke-width="1.397"
     stroke-linecap="square"
     stroke-linejoin="round"
     fill="none"
     stroke="#3b3b3b"
     d="m640.992 84.391 2.565-16.703-21.179-5.985zm0 0"
     id="path2407" />
  <path
     transform="scale(.99891 1)"
     stroke-width="1.516"
     stroke-linecap="square"
     stroke-linejoin="round"
     fill="none"
     stroke="#fc0"
     d="m662.875 71.34-1.005-2.375.059 2.758 1.584-1.098"
     id="path2408" />
  <path
     transform="scale(.99891 1)"
     stroke-width="1.397"
     stroke-linecap="square"
     stroke-linejoin="round"
     fill="none"
     stroke="#3b3b3b"
     d="m657.862 65.676.156 7.929 6.992-2.953zm0 0"
     id="path2409" />
  <path
     d="M637.215 79.43c-1.426-1.742-2.625-3.215-2.66-3.274-.055-.094 1.402-9.531 1.484-9.59.016-.015 1.348.352 2.957.809 2.012.57 2.938.875 2.957.973.02.097-1.82 12.371-2.117 14.109-.012.078-1.191-1.285-2.621-3.027zM632.57 73.758l-.605-.727.558-3.574c.305-1.965.586-3.609.625-3.652.036-.043.375.011.75.125.618.183.68.226.637.414-.027.117-.332 1.984-.676 4.148-.343 2.164-.64 3.949-.656 3.965-.019.016-.305-.297-.633-.699zM629.461 70.008c-.684-.832-1.41-1.723-1.613-1.977l-.379-.457.25-1.64c.133-.903.258-1.649.269-1.664.039-.04 3.688 1.011 3.688 1.062 0 .047-.926 5.949-.961 6.121-.008.039-.574-.613-1.254-1.445zm0 0"
     fill="#ccc"
     id="path2410" />
</svg>
