<svg xmlns="http://www.w3.org/2000/svg" xmlns:xlink="http://www.w3.org/1999/xlink" width="842pt" height="596pt"
     viewBox="0 0 842 596">
	<symbol id="a">
		<path d="M.394.155H.185L.137 0H0l.226.7h.137L.588 0H.444l-.05.155m-.177.11h.15L.296.499H.287L.217.265z"/>
	</symbol>
	<symbol id="b">
		<path d="M.286.151h.007L.405.5h.14L.354 0H.215L0 .5h.151L.286.151z"/>
	</symbol>
	<symbol id="c">
		<path d="M0 .11h.124v.28H0V.5h.225L.24.434h.004c.019.022.04.04.064.055a.158.158 0 0 0 .084.022c.04 0 .071-.015.094-.044C.509.437.521.389.521.32H.404C.404.344.4.361.393.372.386.383.375.389.36.389a.1.1 0 0 1-.065-.02.207.207 0 0 1-.041-.046V.11h.217V0H0v.11z"/>
	</symbol>
	<symbol id="d">
		<path d="M0 .264c0 .042.006.08.019.112A.23.23 0 0 0 .156.51a.314.314 0 0 0 .109.018c.042 0 .08-.006.112-.019A.228.228 0 0 0 .461.455.215.215 0 0 0 .512.372.311.311 0 0 0 .53.264.308.308 0 0 0 .511.152.23.23 0 0 0 .373.017.322.322 0 0 0 .265 0a.316.316 0 0 0-.113.019.237.237 0 0 0-.083.053.235.235 0 0 0-.052.084A.328.328 0 0 0 0 .264m.134 0c0-.022.003-.042.009-.061A.15.15 0 0 1 .169.154.123.123 0 0 1 .21.121.13.13 0 0 1 .265.11c.039 0 .07.012.094.037.025.025.037.064.037.117a.171.171 0 0 1-.034.111.116.116 0 0 1-.097.043.147.147 0 0 1-.052-.009.101.101 0 0 1-.042-.027.139.139 0 0 1-.027-.048.216.216 0 0 1-.01-.07z"/>
	</symbol>
	<use xlink:href="#a" transform="matrix(40.0052 0 0 -40.04865 398.388 236.83)"/>
	<use xlink:href="#b" transform="matrix(40.0052 0 0 -40.04865 423.231 236.83)"/>
	<use xlink:href="#c" transform="matrix(40.0052 0 0 -40.04865 447.715 236.83)"/>
	<use xlink:href="#d" transform="matrix(40.0052 0 0 -40.04865 471.558 237.39)"/>
	<use xlink:href="#a" transform="matrix(40.0052 0 0 -40.04865 400.958 92.382)"/>
	<use xlink:href="#b" transform="matrix(40.0052 0 0 -40.04865 425.801 92.382)"/>
	<use xlink:href="#c" transform="matrix(40.0052 0 0 -40.04865 450.284 92.382)"/>
	<use xlink:href="#d" transform="matrix(40.0052 0 0 -40.04865 474.127 92.943)"/>
	<symbol id="e">
		<path d="M.548.224a.213.213 0 0 0-.02-.096A.193.193 0 0 0 .473.06a.255.255 0 0 0-.09-.046A.472.472 0 0 0 .257 0H0v.727h.215a.886.886 0 0 0 .12-.006A.242.242 0 0 0 .41.697.135.135 0 0 0 .468.643.16.16 0 0 0 .486.564.147.147 0 0 0 .46.476.19.19 0 0 0 .39.417V.414A.2.2 0 0 0 .506.349.185.185 0 0 0 .548.224M.386.55a.101.101 0 0 1-.009.045.068.068 0 0 1-.028.029.135.135 0 0 1-.056.016.801.801 0 0 1-.081.004H.097v-.21h.125c.03 0 .054.001.072.004.018.003.034.01.05.02a.08.08 0 0 1 .032.037c.006.016.01.034.01.055M.448.22c0 .029-.005.052-.013.07a.106.106 0 0 1-.048.043A.158.158 0 0 1 .33.35a.71.71 0 0 1-.081.004H.097v-.27h.128c.042 0 .077.002.104.006.027.004.049.013.066.024a.123.123 0 0 1 .04.044.136.136 0 0 1 .013.063z"/>
	</symbol>
	<symbol id="f">
		<path d="M.092 0H0v.76h.092V0z"/>
	</symbol>
	<symbol id="g">
		<path d="M.503.288a.306.306 0 0 0-.068-.21A.232.232 0 0 0 .252 0a.234.234 0 0 0-.184.077.307.307 0 0 0-.068.21c0 .09.023.16.068.211a.233.233 0 0 0 .184.078.232.232 0 0 0 .183-.078.306.306 0 0 0 .068-.21m-.094 0c0 .07-.014.123-.042.157a.14.14 0 0 1-.115.052.14.14 0 0 1-.116-.052C.108.41.095.358.095.288A.25.25 0 0 1 .136.132.139.139 0 0 1 .252.079c.049 0 .087.018.115.052.028.036.042.088.042.157z"/>
	</symbol>
	<symbol id="h">
		<path d="M.48.292A.364.364 0 0 0 .46.169.272.272 0 0 0 .41.077.216.216 0 0 0 .242 0 .264.264 0 0 0 .16.011a.366.366 0 0 0-.068.03L.086.015H0v.76h.092V.503a.377.377 0 0 0 .082.052c.029.014.061.02.097.02A.18.18 0 0 0 .424.502.341.341 0 0 0 .48.292M.385.29c0 .065-.01.114-.032.148C.332.47.297.487.249.487A.205.205 0 0 1 .168.471.33.33 0 0 1 .092.426V.114a.273.273 0 0 1 .13-.031c.051 0 .091.016.12.05C.37.165.385.217.385.29z"/>
	</symbol>
	<symbol id="i">
		<path d="M0 0z"/>
	</symbol>
	<symbol id="j">
		<path d="M.464.641H.097V.436h.316V.35H.097V0H0v.727h.464V.641z"/>
	</symbol>
	<symbol id="k">
		<path d="M.463.015h-.09v.058A1.57 1.57 0 0 1 .338.05.263.263 0 0 0 .176 0C.127 0 .086.016.051.049A.164.164 0 0 0 0 .173c0 .042.009.075.026.1a.179.179 0 0 0 .077.061.41.41 0 0 0 .12.03c.046.005.096.009.15.011V.39C.372.41.367.428.36.44A.078.078 0 0 1 .33.474a.13.13 0 0 1-.047.015.404.404 0 0 1-.23-.033H.048v.093a.897.897 0 0 0 .178.025.451.451 0 0 0 .1-.01A.192.192 0 0 0 .4.532.144.144 0 0 0 .447.474.214.214 0 0 0 .463.385v-.37M.373.15v.152a3.722 3.722 0 0 1-.1-.007.51.51 0 0 1-.09-.014A.147.147 0 0 1 .12.245.086.086 0 0 1 .095.18c0-.032.01-.055.028-.071C.142.093.171.085.209.085c.033 0 .062.007.089.019a.408.408 0 0 1 .074.045z"/>
	</symbol>
	<symbol id="l">
		<path d="M.343.016A.498.498 0 0 0 .233 0C.176 0 .133.015.104.045.076.075.062.123.062.189v.29H0v.077h.062v.157h.092V.556h.19V.48h-.19V.23c0-.028 0-.05.002-.067A.11.11 0 0 1 .169.118.068.068 0 0 1 .2.09.186.186 0 0 1 .303.087a.359.359 0 0 1 .035.011h.005V.016z"/>
	</symbol>
	<symbol id="m">
		<path d="M.287 0H0v.074h.095v.579H0v.074h.287V.653H.192V.074h.095V0z"/>
	</symbol>
	<symbol id="n">
		<path d="M.442.046A.588.588 0 0 0 .355.012a.33.33 0 0 0-.196.005.224.224 0 0 0-.14.142A.367.367 0 0 0 0 .284c0 .09.024.16.073.21.05.05.114.076.195.076A.324.324 0 0 0 .359.557.479.479 0 0 0 .442.525V.423H.437a.348.348 0 0 1-.086.05.235.235 0 0 1-.087.018A.155.155 0 0 1 .14.438C.11.403.095.352.095.284.095.218.11.168.14.132A.154.154 0 0 1 .264.08a.248.248 0 0 1 .108.026.455.455 0 0 1 .066.041h.004v-.1z"/>
	</symbol>
	<symbol id="o">
		<path d="M.456 0H.364v.31A.53.53 0 0 1 .36.38a.13.13 0 0 1-.016.053.073.073 0 0 1-.035.03.147.147 0 0 1-.06.01A.19.19 0 0 1 .17.455.4.4 0 0 1 .092.407V0H0v.545h.092v-.06A.373.373 0 0 0 .18.54c.03.013.062.02.094.02C.334.56.379.543.41.507.44.472.456.421.456.354V0z"/>
	</symbol>
	<symbol id="p">
		<path d="M.305 0H0v.088h.305V0z"/>
	</symbol>
	<symbol id="q">
		<path d="M.602 0H.476L.233.29H.097V0H0v.727h.204c.044 0 .08-.003.11-.009a.227.227 0 0 0 .079-.03.18.18 0 0 0 .061-.063.184.184 0 0 0 .023-.096.215.215 0 0 0-.04-.132.241.241 0 0 0-.109-.08L.602 0M.375.522c0 .021-.003.04-.01.056a.094.094 0 0 1-.037.04.13.13 0 0 1-.05.02.344.344 0 0 1-.068.006H.097V.37h.097c.03 0 .058.002.08.007a.13.13 0 0 1 .09.078c.008.017.011.04.011.067z"/>
	</symbol>
	<symbol id="r">
		<path d="M.495.276H.093c0-.034.005-.063.015-.088A.165.165 0 0 1 .21.092.243.243 0 0 1 .287.08C.324.08.361.087.4.102a.28.28 0 0 1 .08.044h.005v-.1A.757.757 0 0 0 .39.013.384.384 0 0 0 .288 0a.293.293 0 0 0-.212.073C.026.123 0 .193 0 .283a.3.3 0 0 0 .073.212.25.25 0 0 0 .192.078C.34.573.395.552.435.51c.04-.043.06-.104.06-.183v-.05m-.09.07A.162.162 0 0 1 .37.458C.345.484.31.498.26.498A.16.16 0 0 1 .143.454a.17.17 0 0 1-.05-.108h.313z"/>
	</symbol>
	<symbol id="s">
		<path d="M.48.015H.388v.057A.332.332 0 0 0 .306.02.228.228 0 0 0 .212 0a.185.185 0 0 0-.155.075A.338.338 0 0 0 0 .284C0 .33.007.37.02.407A.288.288 0 0 0 .073.5a.226.226 0 0 0 .17.076.284.284 0 0 0 .145-.037v.236H.48v-.76M.388.15v.313a.302.302 0 0 1-.13.03.145.145 0 0 1-.12-.054.238.238 0 0 1-.043-.152c0-.065.01-.114.033-.148C.15.104.186.088.234.088a.2.2 0 0 1 .08.016.343.343 0 0 1 .074.045z"/>
	</symbol>
	<symbol id="t">
		<path d="M.558.307A.487.487 0 0 0 .541.17.222.222 0 0 0 .396.017.364.364 0 0 0 .279 0a.355.355 0 0 0-.12.018.223.223 0 0 0-.142.15.488.488 0 0 0-.017.14v.434h.097v-.44c0-.04.002-.07.007-.093A.187.187 0 0 1 .132.147.133.133 0 0 1 .19.099.222.222 0 0 1 .279.083c.035 0 .064.005.089.016.024.01.044.026.058.048.013.019.022.04.027.063A.407.407 0 0 1 .461.3v.442h.097V.307z"/>
	</symbol>
	<symbol id="u">
		<path d="M.48.48A.37.37 0 0 0 .46.36.266.266 0 0 0 .408.266.227.227 0 0 0 .24.19.298.298 0 0 0 .092.23V0H0v.747h.092V.689C.116.71.144.727.174.741c.03.014.063.02.097.02A.18.18 0 0 0 .425.688.34.34 0 0 0 .48.48M.385.478a.261.261 0 0 1-.033.147C.329.658.295.675.248.675a.201.201 0 0 1-.08-.018.36.36 0 0 1-.076-.045V.303a.294.294 0 0 1 .13-.03c.052 0 .092.017.12.052.029.034.043.085.043.153z"/>
	</symbol>
	<symbol id="v">
		<path d="M.734.545.592 0H.507l-.14.42L.228 0H.144L0 .545h.096l.1-.422.136.422h.076l.14-.422.094.422h.092z"/>
	</symbol>
	<symbol id="w">
		<path d="M.34.445H.335a.303.303 0 0 1-.085.01.187.187 0 0 1-.082-.02.37.37 0 0 1-.076-.048V0H0v.545h.092v-.08c.036.03.068.05.096.062a.21.21 0 0 0 .085.018A.288.288 0 0 0 .34.54V.445z"/>
	</symbol>
	<symbol id="x">
		<path d="M.658 0H.555L.484.203H.169L.1 0H0l.265.727h.129L.658 0M.454.286.327.643.199.286h.255z"/>
	</symbol>
	<symbol id="y">
		<path d="M.48.269C.48.176.459.109.417.065.375.022.31 0 .223 0a.561.561 0 0 0-.166.023v.094h.005A.695.695 0 0 1 .133.096.373.373 0 0 1 .231.083c.031 0 .057.003.078.01A.112.112 0 0 1 .38.172a.228.228 0 0 1 .007.06v.05a.36.36 0 0 0-.08-.05.246.246 0 0 0-.096-.016.19.19 0 0 0-.155.07.31.31 0 0 0-.057.2c0 .046.007.087.02.12a.278.278 0 0 0 .054.089.217.217 0 0 0 .077.054c.03.013.06.02.09.02a.273.273 0 0 0 .147-.04l.006.024H.48V.269M.388.356v.298a.341.341 0 0 1-.13.03.149.149 0 0 1-.12-.05C.11.6.095.55.095.486c0-.06.01-.107.032-.139C.148.316.184.3.234.3.26.3.287.305.314.315c.027.01.052.024.074.041z"/>
	</symbol>
	<symbol id="z">
		<path d="M.583.659a.328.328 0 0 0 .068-.12.5.5 0 0 0 .024-.16.496.496 0 0 0-.024-.162A.327.327 0 0 0 .583.1.289.289 0 0 0 .477.025.367.367 0 0 0 .337 0a.37.37 0 0 0-.14.025A.289.289 0 0 0 .092.1a.333.333 0 0 0-.068.119.507.507 0 0 0-.023.16c0 .06.008.113.023.16a.34.34 0 0 0 .069.12.28.28 0 0 0 .106.074.374.374 0 0 0 .14.025.36.36 0 0 0 .14-.026A.29.29 0 0 0 .583.66M.575.379A.334.334 0 0 1 .51.596a.212.212 0 0 1-.173.077.214.214 0 0 1-.174-.077A.335.335 0 0 1 .1.378.33.33 0 0 1 .165.16C.208.11.265.083.338.083.41.083.468.11.51.16a.33.33 0 0 1 .065.22z"/>
	</symbol>
	<symbol id="A">
		<path d="M.456.015H.364v.06A.447.447 0 0 0 .275.02.222.222 0 0 0 .182 0a.172.172 0 0 0-.134.052C.016.087 0 .14 0 .207V.56h.092V.25c0-.028.001-.051.004-.071a.13.13 0 0 1 .016-.05.079.079 0 0 1 .034-.032.15.15 0 0 1 .062-.01c.023 0 .05.007.077.019a.361.361 0 0 1 .08.047v.408h.091V.015z"/>
	</symbol>
	<symbol id="B">
		<path d="M.104.637H0v.095h.104V.637M.098 0H.006v.545h.092V0z"/>
	</symbol>
	<use xlink:href="#e" transform="matrix(9.00118 0 0 -9.01095 61.683 169.67)"/>
	<use xlink:href="#f" transform="matrix(9.00118 0 0 -9.01095 67.8 169.67)"/>
	<use xlink:href="#g" transform="matrix(9.00118 0 0 -9.01095 69.911 169.806)"/>
	<use xlink:href="#h" transform="matrix(9.00118 0 0 -9.01095 75.722 169.806)"/>
	<use xlink:href="#i" transform="matrix(9.00118 0 0 -9.01095 80.517 169.67)"/>
	<use xlink:href="#j" transform="matrix(9.00118 0 0 -9.01095 84.564 169.67)"/>
	<use xlink:href="#f" transform="matrix(9.00118 0 0 -9.01095 89.683 169.67)"/>
	<use xlink:href="#k" transform="matrix(9.00118 0 0 -9.01095 91.784 169.806)"/>
	<use xlink:href="#l" transform="matrix(9.00118 0 0 -9.01095 97.01 169.766)"/>
	<use xlink:href="#i" transform="matrix(9.00118 0 0 -9.01095 100.283 169.67)"/>
	<use xlink:href="#m" transform="matrix(9.00118 0 0 -9.01095 104.054 169.67)"/>
	<use xlink:href="#n" transform="matrix(9.00118 0 0 -9.01095 107.703 169.78)"/>
	<use xlink:href="#g" transform="matrix(9.00118 0 0 -9.01095 112.397 169.806)"/>
	<use xlink:href="#o" transform="matrix(9.00118 0 0 -9.01095 118.208 169.67)"/>
	<use xlink:href="#i" transform="matrix(9.00118 0 0 -9.01095 123.092 169.67)"/>
	<use xlink:href="#p" transform="matrix(9.00118 0 0 -9.01095 126.933 167.201)"/>
	<use xlink:href="#i" transform="matrix(9.00118 0 0 -9.01095 130.347 169.67)"/>
	<use xlink:href="#q" transform="matrix(9.00118 0 0 -9.01095 134.395 169.67)"/>
	<use xlink:href="#g" transform="matrix(9.00118 0 0 -9.01095 140.021 169.806)"/>
	<use xlink:href="#l" transform="matrix(9.00118 0 0 -9.01095 145.292 169.766)"/>
	<use xlink:href="#k" transform="matrix(9.00118 0 0 -9.01095 149.023 169.806)"/>
	<use xlink:href="#l" transform="matrix(9.00118 0 0 -9.01095 154.248 169.766)"/>
	<use xlink:href="#r" transform="matrix(9.00118 0 0 -9.01095 157.988 169.784)"/>
	<use xlink:href="#s" transform="matrix(9.00118 0 0 -9.01095 163.361 169.806)"/>
	<use xlink:href="#i" transform="matrix(9.00118 0 0 -9.01095 168.494 169.67)"/>
	<use xlink:href="#l" transform="matrix(9.00118 0 0 -9.01095 171.935 169.766)"/>
	<use xlink:href="#g" transform="matrix(9.00118 0 0 -9.01095 175.675 169.806)"/>
	<use xlink:href="#i" transform="matrix(9.00118 0 0 -9.01095 180.673 169.67)"/>
	<use xlink:href="#t" transform="matrix(9.00118 0 0 -9.01095 184.623 169.806)"/>
	<use xlink:href="#u" transform="matrix(9.00118 0 0 -9.01095 191.243 171.482)"/>
	<use xlink:href="#v" transform="matrix(9.00118 0 0 -9.01095 196.416 169.67)"/>
	<use xlink:href="#k" transform="matrix(9.00118 0 0 -9.01095 203.768 169.806)"/>
	<use xlink:href="#w" transform="matrix(9.00118 0 0 -9.01095 209.533 169.67)"/>
	<use xlink:href="#s" transform="matrix(9.00118 0 0 -9.01095 213.039 169.806)"/>
	<use xlink:href="#i" transform="matrix(9.00118 0 0 -9.01095 218.172 169.67)"/>
	<use xlink:href="#x" transform="matrix(9.00118 0 0 -9.01095 221.454 169.67)"/>
	<use xlink:href="#o" transform="matrix(9.00118 0 0 -9.01095 228.31 169.67)"/>
	<use xlink:href="#y" transform="matrix(9.00118 0 0 -9.01095 233.67 171.53)"/>
	<use xlink:href="#f" transform="matrix(9.00118 0 0 -9.01095 239.624 169.67)"/>
	<use xlink:href="#r" transform="matrix(9.00118 0 0 -9.01095 241.734 169.784)"/>
	<use xlink:href="#e" transform="matrix(9.00118 0 0 -9.01095 53 19.966)"/>
	<use xlink:href="#f" transform="matrix(9.00118 0 0 -9.01095 59.118 19.966)"/>
	<use xlink:href="#g" transform="matrix(9.00118 0 0 -9.01095 61.228 20.103)"/>
	<use xlink:href="#h" transform="matrix(9.00118 0 0 -9.01095 67.04 20.103)"/>
	<use xlink:href="#i" transform="matrix(9.00118 0 0 -9.01095 71.834 19.966)"/>
	<use xlink:href="#z" transform="matrix(9.00118 0 0 -9.01095 75.508 20.103)"/>
	<use xlink:href="#A" transform="matrix(9.00118 0 0 -9.01095 82.864 20.103)"/>
	<use xlink:href="#l" transform="matrix(9.00118 0 0 -9.01095 88.056 20.063)"/>
	<use xlink:href="#f" transform="matrix(9.00118 0 0 -9.01095 92.152 19.966)"/>
	<use xlink:href="#B" transform="matrix(9.00118 0 0 -9.01095 94.566 19.966)"/>
	<use xlink:href="#o" transform="matrix(9.00118 0 0 -9.01095 97.076 19.966)"/>
	<use xlink:href="#r" transform="matrix(9.00118 0 0 -9.01095 102.427 20.08)"/>
	<use xlink:href="#i" transform="matrix(9.00118 0 0 -9.01095 107.325 19.966)"/>
	<use xlink:href="#m" transform="matrix(9.00118 0 0 -9.01095 111.096 19.966)"/>
	<use xlink:href="#n" transform="matrix(9.00118 0 0 -9.01095 114.745 20.076)"/>
	<use xlink:href="#g" transform="matrix(9.00118 0 0 -9.01095 119.439 20.103)"/>
	<use xlink:href="#o" transform="matrix(9.00118 0 0 -9.01095 125.25 19.966)"/>
	<use xlink:href="#i" transform="matrix(9.00118 0 0 -9.01095 130.134 19.966)"/>
	<use xlink:href="#p" transform="matrix(9.00118 0 0 -9.01095 133.975 17.498)"/>
	<use xlink:href="#i" transform="matrix(9.00118 0 0 -9.01095 137.39 19.966)"/>
	<use xlink:href="#q" transform="matrix(9.00118 0 0 -9.01095 141.437 19.966)"/>
	<use xlink:href="#g" transform="matrix(9.00118 0 0 -9.01095 147.063 20.103)"/>
	<use xlink:href="#l" transform="matrix(9.00118 0 0 -9.01095 152.334 20.063)"/>
	<use xlink:href="#k" transform="matrix(9.00118 0 0 -9.01095 156.065 20.103)"/>
	<use xlink:href="#l" transform="matrix(9.00118 0 0 -9.01095 161.29 20.063)"/>
	<use xlink:href="#r" transform="matrix(9.00118 0 0 -9.01095 165.03 20.08)"/>
	<use xlink:href="#s" transform="matrix(9.00118 0 0 -9.01095 170.403 20.103)"/>
	<use xlink:href="#i" transform="matrix(9.00118 0 0 -9.01095 175.536 19.966)"/>
	<use xlink:href="#l" transform="matrix(9.00118 0 0 -9.01095 178.977 20.063)"/>
	<use xlink:href="#g" transform="matrix(9.00118 0 0 -9.01095 182.717 20.103)"/>
	<use xlink:href="#i" transform="matrix(9.00118 0 0 -9.01095 187.715 19.966)"/>
	<use xlink:href="#t" transform="matrix(9.00118 0 0 -9.01095 191.666 20.103)"/>
	<use xlink:href="#u" transform="matrix(9.00118 0 0 -9.01095 198.285 21.779)"/>
	<use xlink:href="#v" transform="matrix(9.00118 0 0 -9.01095 203.458 19.966)"/>
	<use xlink:href="#k" transform="matrix(9.00118 0 0 -9.01095 210.81 20.103)"/>
	<use xlink:href="#w" transform="matrix(9.00118 0 0 -9.01095 216.576 19.966)"/>
	<use xlink:href="#s" transform="matrix(9.00118 0 0 -9.01095 220.08 20.103)"/>
	<use xlink:href="#i" transform="matrix(9.00118 0 0 -9.01095 225.214 19.966)"/>
	<use xlink:href="#x" transform="matrix(9.00118 0 0 -9.01095 228.496 19.966)"/>
	<use xlink:href="#o" transform="matrix(9.00118 0 0 -9.01095 235.352 19.966)"/>
	<use xlink:href="#y" transform="matrix(9.00118 0 0 -9.01095 240.711 21.827)"/>
	<use xlink:href="#f" transform="matrix(9.00118 0 0 -9.01095 246.666 19.966)"/>
	<use xlink:href="#r" transform="matrix(9.00118 0 0 -9.01095 248.777 20.08)"/>
	<path d="M367.422 83.567c.563-2.005.129-3.254-2.89-2.856l31.635-30.793c.348-.156.399.086.146.465zm0 0"
	      fill="#000094"/>
	<path transform="matrix(.99891 -.12698 -.12684 -1 0 0)" stroke-width="1.368" fill="none" stroke="#000094"
	      d="M351.542-128.204c.805 1.902.534 3.186-2.491 3.172l35.016 26.347c.362.11.382-.135.085-.476zm0 0"/>
	<path d="M365.754 98.032s-1.023-1.055.176-2.493c.894-1.07 2.112-.469 2.112-.469s1.126.664.177 2.153c-1.235 1.937-2.465.809-2.465.809zm0 0"
	      fill="#1cccfc"/>
	<path transform="matrix(.99891 -.12698 -.12684 -1 0 0)" stroke-width="1.368" fill="none" stroke="#000094"
	      d="M348.091-142.231s-.876 1.166.485 2.431c1.015.942 2.14.197 2.14.197s1.026-.794-.095-2.14c-1.459-1.752-2.53-.488-2.53-.488zm0 0"/>
	<path d="m396.399 49.782-43.801 21.64s-14.442 9.66-13.168 13.273c1.234 3.504 14.05-3.992 15.387-4.359 1.335-.367 2.023.508 2.018 1.129-.007.895-2.023 3.52-1.097 4.59.926 1.066 4.227-1.156 4.227-1.156l2.683-1.997zm0 0"
	      fill="#1cccfc"/>
	<path transform="matrix(.99891 -.12698 -.12684 -1 0 0)" stroke-width="1.368" fill="none" stroke="#000094"
	      d="m384.312-98.58-45.857-15.818s-15.435-7.7-14.632-11.415c.778-3.603 14.342 2.171 15.704 2.365 1.362.194 1.93-.753 1.848-1.363-.119-.88-2.433-3.211-1.655-4.38.779-1.165 4.309.609 4.309.609l2.893 1.629zm0 0"/>
	<path d="m396.563 49.97-29.888 34.3s-5.394 6.327-5.269 8.094c.125 1.761 7.16-4.083 7.16-4.083s.79-.793 1.492-.683c.707.105-.116 1.399-.116 1.399s-1.31 2.933-.556 3.432c.759.496 2.844-1.745 2.844-1.745s.52-.563 1.032-.43c.511.133.172 1.363.172 1.363s-4.004 8.919-2.48 9.532c2.331.933 6.073-6.457 7.32-8.762.316-.633 18.289-42.418 18.289-42.418zm0 0"
	      fill="#1cccfc"/>
	<path transform="matrix(.99891 -.12698 -.12684 -1 0 0)" stroke-width="1.368" fill="none" stroke="#000094"
	      d="m384.45-98.785-33.731-30.017s-6.105-5.553-6.203-7.307c-.097-1.749 7.564 3.122 7.564 3.122s.877.682 1.556.486c.683-.192-.29-1.362-.29-1.362s-1.656-2.723-.976-3.309c.685-.583 3.02 1.362 3.02 1.362s.582.489 1.07.294c.487-.195-.001-1.363-.001-1.363s-5.059-8.276-3.635-9.07c2.181-1.21 6.791 5.595 8.307 7.707.391.583 23.319 39.457 23.319 39.457zm0 0"/>
	<path d="M350.449 92.675s-1.399-.983.309-3.007c1.574-1.86 2.844-.953 2.844-.953s1.328.852-.071 2.578c-1.843 2.282-3.082 1.382-3.082 1.382zm0 0"
	      fill="#1cccfc"/>
	<path transform="matrix(.99891 -.12698 -.12684 -1 0 0)" stroke-width="1.368" fill="none" stroke="#000094"
	      d="M333.682-135.045s-1.255 1.143.68 2.921c1.783 1.633 2.921.582 2.921.582s1.202-1.004-.392-2.528c-2.101-2.015-3.209-.975-3.209-.975zm0 0"/>
	<symbol id="C">
		<path d="M.74.727.475 0h-.21L0 .727h.197l.176-.51.175.51H.74z"/>
	</symbol>
	<symbol id="D">
		<path d="M.63.17H.531V0H.352v.17H0v.137L.34.73h.191V.302h.1V.17M.351.302v.263L.141.302h.211z"/>
	</symbol>
	<symbol id="E">
		<path d="M.183 0H0v.192h.183V0z"/>
	</symbol>
	<symbol id="F">
		<path d="M.485 0H0v.127h.153v.384H0V.63a.56.56 0 0 1 .067.004c.022.003.04.008.054.014A.09.09 0 0 1 .16.68.1.1 0 0 1 .174.73h.161V.127h.15V0z"/>
	</symbol>
	<symbol id="G">
		<path d="M.57 0H0v.12a2.932 2.932 0 0 1 .236.193c.04.038.068.07.084.1a.165.165 0 0 1 .025.083c0 .033-.01.059-.032.077C.292.59.261.6.221.6A.271.271 0 0 1 .126.582.437.437 0 0 1 .035.534H.019v.162A.622.622 0 0 0 .257.74c.091 0 .16-.019.208-.057A.195.195 0 0 0 .537.52a.264.264 0 0 0-.035-.13.53.53 0 0 0-.105-.128A1.33 1.33 0 0 0 .244.139h.327V0z"/>
	</symbol>
	<use xlink:href="#C" transform="matrix(9.00118 0 0 -9.01095 15.25 18.582)"/>
	<use xlink:href="#D" transform="matrix(9.00118 0 0 -9.01095 22.39 18.6)"/>
	<use xlink:href="#E" transform="matrix(9.00118 0 0 -9.01095 29.225 18.582)"/>
	<use xlink:href="#F" transform="matrix(9.00118 0 0 -9.01095 32.84 18.582)"/>
	<use xlink:href="#C" transform="matrix(9.00118 0 0 -9.01095 19.579 169.467)"/>
	<use xlink:href="#D" transform="matrix(9.00118 0 0 -9.01095 26.72 169.485)"/>
	<use xlink:href="#E" transform="matrix(9.00118 0 0 -9.01095 33.554 169.467)"/>
	<use xlink:href="#G" transform="matrix(9.00118 0 0 -9.01095 36.812 169.467)"/>
	<path d="M363.117 230.672c.59-2.094.137-3.402-3.019-2.988l33.082-32.168c.363-.164.414.089.148.488zm0 0"
	      fill="#000094"/>
	<path d="M361.367 245.789s-1.07-1.105.184-2.609c.933-1.118 2.211-.485 2.211-.485s1.176.692.179 2.25c-1.293 2.024-2.574.844-2.574.844zM393.422 195.375l-45.793 22.594s-15.098 10.09-13.77 13.867c1.289 3.66 14.688-4.164 16.082-4.547 1.399-.383 2.118.527 2.114 1.18-.008.933-2.117 3.676-1.149 4.797.965 1.117 4.414-1.207 4.414-1.207l2.809-2.086zm0 0"
	      fill="#1cccfc"/>
	<path d="m393.594 195.566-31.258 35.836s-5.641 6.614-5.512 8.457c.129 1.844 7.488-4.261 7.488-4.261s.825-.828 1.559-.715c.738.113-.125 1.465-.125 1.465s-1.367 3.066-.578 3.586c.789.519 2.969-1.825 2.969-1.825s.547-.586 1.082-.445c.531.137.179 1.422.179 1.422s-4.191 9.324-2.597 9.961c2.433.98 6.347-6.742 7.652-9.152.332-.661 19.141-44.329 19.141-44.329zM345.371 240.18s-1.461-1.028.328-3.141c1.645-1.945 2.969-.996 2.969-.996s1.387.895-.07 2.695c-1.93 2.383-3.227 1.442-3.227 1.442zm0 0"
	      fill="#1cccfc"/>
	<use xlink:href="#a" transform="matrix(40.0052 0 0 -40.04865 125.596 536.219)"/>
	<use xlink:href="#b" transform="matrix(40.0052 0 0 -40.04865 150.44 536.219)"/>
	<use xlink:href="#c" transform="matrix(40.0052 0 0 -40.04865 174.923 536.219)"/>
	<use xlink:href="#d" transform="matrix(40.0052 0 0 -40.04865 198.766 536.78)"/>
	<use xlink:href="#a" transform="matrix(40.0052 0 0 -40.04865 123.665 391.77)"/>
	<use xlink:href="#b" transform="matrix(40.0052 0 0 -40.04865 148.508 391.77)"/>
	<use xlink:href="#c" transform="matrix(40.0052 0 0 -40.04865 172.991 391.77)"/>
	<use xlink:href="#d" transform="matrix(40.0052 0 0 -40.04865 196.835 392.332)"/>
	<symbol id="H">
		<path d="M.613.266H.347V0h-.08v.266H0v.078h.266V.61h.081V.344h.266V.266z"/>
	</symbol>
	<symbol id="I">
		<path d="M.556 0H.46v.356H.097V0H0v.727h.097V.442h.362v.285h.097V0z"/>
	</symbol>
	<symbol id="J">
		<path d="M.44 0H0v.068l.318.4H.007v.077h.425V.48L.112.078H.44V0z"/>
	</symbol>
	<use xlink:href="#e" transform="matrix(9.00118 0 0 -9.01095 327.35 169.954)"/>
	<use xlink:href="#f" transform="matrix(9.00118 0 0 -9.01095 333.468 169.954)"/>
	<use xlink:href="#g" transform="matrix(9.00118 0 0 -9.01095 335.579 170.09)"/>
	<use xlink:href="#h" transform="matrix(9.00118 0 0 -9.01095 341.39 170.09)"/>
	<use xlink:href="#i" transform="matrix(9.00118 0 0 -9.01095 346.184 169.954)"/>
	<use xlink:href="#j" transform="matrix(9.00118 0 0 -9.01095 350.232 169.954)"/>
	<use xlink:href="#f" transform="matrix(9.00118 0 0 -9.01095 355.35 169.954)"/>
	<use xlink:href="#k" transform="matrix(9.00118 0 0 -9.01095 357.452 170.09)"/>
	<use xlink:href="#l" transform="matrix(9.00118 0 0 -9.01095 362.677 170.05)"/>
	<use xlink:href="#i" transform="matrix(9.00118 0 0 -9.01095 365.95 169.954)"/>
	<use xlink:href="#m" transform="matrix(9.00118 0 0 -9.01095 369.721 169.954)"/>
	<use xlink:href="#n" transform="matrix(9.00118 0 0 -9.01095 373.37 170.064)"/>
	<use xlink:href="#g" transform="matrix(9.00118 0 0 -9.01095 378.064 170.09)"/>
	<use xlink:href="#o" transform="matrix(9.00118 0 0 -9.01095 383.875 169.954)"/>
	<use xlink:href="#i" transform="matrix(9.00118 0 0 -9.01095 388.76 169.954)"/>
	<use xlink:href="#p" transform="matrix(9.00118 0 0 -9.01095 392.6 167.485)"/>
	<use xlink:href="#i" transform="matrix(9.00118 0 0 -9.01095 396.015 169.954)"/>
	<use xlink:href="#q" transform="matrix(9.00118 0 0 -9.01095 400.062 169.954)"/>
	<use xlink:href="#g" transform="matrix(9.00118 0 0 -9.01095 405.689 170.09)"/>
	<use xlink:href="#l" transform="matrix(9.00118 0 0 -9.01095 410.96 170.05)"/>
	<use xlink:href="#k" transform="matrix(9.00118 0 0 -9.01095 414.69 170.09)"/>
	<use xlink:href="#l" transform="matrix(9.00118 0 0 -9.01095 419.915 170.05)"/>
	<use xlink:href="#r" transform="matrix(9.00118 0 0 -9.01095 423.655 170.068)"/>
	<use xlink:href="#s" transform="matrix(9.00118 0 0 -9.01095 429.029 170.09)"/>
	<use xlink:href="#i" transform="matrix(9.00118 0 0 -9.01095 434.162 169.954)"/>
	<use xlink:href="#t" transform="matrix(9.00118 0 0 -9.01095 438.113 170.09)"/>
	<use xlink:href="#u" transform="matrix(9.00118 0 0 -9.01095 444.732 171.767)"/>
	<use xlink:href="#i" transform="matrix(9.00118 0 0 -9.01095 449.527 169.954)"/>
	<use xlink:href="#H" transform="matrix(9.00118 0 0 -9.01095 453.618 169.835)"/>
	<use xlink:href="#i" transform="matrix(9.00118 0 0 -9.01095 460.058 169.954)"/>
	<use xlink:href="#j" transform="matrix(9.00118 0 0 -9.01095 464.106 169.954)"/>
	<use xlink:href="#f" transform="matrix(9.00118 0 0 -9.01095 469.224 169.954)"/>
	<use xlink:href="#B" transform="matrix(9.00118 0 0 -9.01095 471.638 169.954)"/>
	<use xlink:href="#u" transform="matrix(9.00118 0 0 -9.01095 474.148 171.767)"/>
	<use xlink:href="#u" transform="matrix(9.00118 0 0 -9.01095 479.756 171.767)"/>
	<use xlink:href="#r" transform="matrix(9.00118 0 0 -9.01095 485.016 170.068)"/>
	<use xlink:href="#s" transform="matrix(9.00118 0 0 -9.01095 490.39 170.09)"/>
	<use xlink:href="#i" transform="matrix(9.00118 0 0 -9.01095 495.523 169.954)"/>
	<use xlink:href="#I" transform="matrix(9.00118 0 0 -9.01095 499.57 169.954)"/>
	<use xlink:href="#g" transform="matrix(9.00118 0 0 -9.01095 505.917 170.09)"/>
	<use xlink:href="#w" transform="matrix(9.00118 0 0 -9.01095 511.728 169.954)"/>
	<use xlink:href="#B" transform="matrix(9.00118 0 0 -9.01095 515.528 169.954)"/>
	<use xlink:href="#J" transform="matrix(9.00118 0 0 -9.01095 517.633 169.954)"/>
	<use xlink:href="#g" transform="matrix(9.00118 0 0 -9.01095 522.362 170.09)"/>
	<use xlink:href="#o" transform="matrix(9.00118 0 0 -9.01095 528.173 169.954)"/>
	<use xlink:href="#l" transform="matrix(9.00118 0 0 -9.01095 533.33 170.05)"/>
	<use xlink:href="#k" transform="matrix(9.00118 0 0 -9.01095 537.061 170.09)"/>
	<use xlink:href="#f" transform="matrix(9.00118 0 0 -9.01095 542.836 169.954)"/>
	<use xlink:href="#e" transform="matrix(9.00118 0 0 -9.01095 318.823 18.756)"/>
	<use xlink:href="#f" transform="matrix(9.00118 0 0 -9.01095 324.94 18.756)"/>
	<use xlink:href="#g" transform="matrix(9.00118 0 0 -9.01095 327.051 18.892)"/>
	<use xlink:href="#h" transform="matrix(9.00118 0 0 -9.01095 332.862 18.892)"/>
	<use xlink:href="#i" transform="matrix(9.00118 0 0 -9.01095 337.657 18.756)"/>
	<use xlink:href="#z" transform="matrix(9.00118 0 0 -9.01095 341.33 18.892)"/>
	<use xlink:href="#A" transform="matrix(9.00118 0 0 -9.01095 348.687 18.892)"/>
	<use xlink:href="#l" transform="matrix(9.00118 0 0 -9.01095 353.88 18.853)"/>
	<use xlink:href="#f" transform="matrix(9.00118 0 0 -9.01095 357.975 18.756)"/>
	<use xlink:href="#B" transform="matrix(9.00118 0 0 -9.01095 360.389 18.756)"/>
	<use xlink:href="#o" transform="matrix(9.00118 0 0 -9.01095 362.899 18.756)"/>
	<use xlink:href="#r" transform="matrix(9.00118 0 0 -9.01095 368.25 18.87)"/>
	<use xlink:href="#i" transform="matrix(9.00118 0 0 -9.01095 373.148 18.756)"/>
	<use xlink:href="#m" transform="matrix(9.00118 0 0 -9.01095 376.919 18.756)"/>
	<use xlink:href="#n" transform="matrix(9.00118 0 0 -9.01095 380.568 18.866)"/>
	<use xlink:href="#g" transform="matrix(9.00118 0 0 -9.01095 385.262 18.892)"/>
	<use xlink:href="#o" transform="matrix(9.00118 0 0 -9.01095 391.073 18.756)"/>
	<use xlink:href="#i" transform="matrix(9.00118 0 0 -9.01095 395.957 18.756)"/>
	<use xlink:href="#p" transform="matrix(9.00118 0 0 -9.01095 399.798 16.288)"/>
	<use xlink:href="#i" transform="matrix(9.00118 0 0 -9.01095 403.212 18.756)"/>
	<use xlink:href="#q" transform="matrix(9.00118 0 0 -9.01095 407.26 18.756)"/>
	<use xlink:href="#g" transform="matrix(9.00118 0 0 -9.01095 412.886 18.892)"/>
	<use xlink:href="#l" transform="matrix(9.00118 0 0 -9.01095 418.157 18.853)"/>
	<use xlink:href="#k" transform="matrix(9.00118 0 0 -9.01095 421.888 18.892)"/>
	<use xlink:href="#l" transform="matrix(9.00118 0 0 -9.01095 427.113 18.853)"/>
	<use xlink:href="#r" transform="matrix(9.00118 0 0 -9.01095 430.853 18.87)"/>
	<use xlink:href="#s" transform="matrix(9.00118 0 0 -9.01095 436.226 18.892)"/>
	<use xlink:href="#i" transform="matrix(9.00118 0 0 -9.01095 441.36 18.756)"/>
	<use xlink:href="#t" transform="matrix(9.00118 0 0 -9.01095 445.31 18.892)"/>
	<use xlink:href="#u" transform="matrix(9.00118 0 0 -9.01095 451.93 20.569)"/>
	<use xlink:href="#i" transform="matrix(9.00118 0 0 -9.01095 456.724 18.756)"/>
	<use xlink:href="#H" transform="matrix(9.00118 0 0 -9.01095 460.816 18.637)"/>
	<use xlink:href="#i" transform="matrix(9.00118 0 0 -9.01095 467.256 18.756)"/>
	<use xlink:href="#j" transform="matrix(9.00118 0 0 -9.01095 471.303 18.756)"/>
	<use xlink:href="#f" transform="matrix(9.00118 0 0 -9.01095 476.422 18.756)"/>
	<use xlink:href="#B" transform="matrix(9.00118 0 0 -9.01095 478.835 18.756)"/>
	<use xlink:href="#u" transform="matrix(9.00118 0 0 -9.01095 481.346 20.569)"/>
	<use xlink:href="#u" transform="matrix(9.00118 0 0 -9.01095 486.953 20.569)"/>
	<use xlink:href="#r" transform="matrix(9.00118 0 0 -9.01095 492.214 18.87)"/>
	<use xlink:href="#s" transform="matrix(9.00118 0 0 -9.01095 497.587 18.892)"/>
	<use xlink:href="#i" transform="matrix(9.00118 0 0 -9.01095 502.72 18.756)"/>
	<use xlink:href="#I" transform="matrix(9.00118 0 0 -9.01095 506.768 18.756)"/>
	<use xlink:href="#g" transform="matrix(9.00118 0 0 -9.01095 513.115 18.892)"/>
	<use xlink:href="#w" transform="matrix(9.00118 0 0 -9.01095 518.926 18.756)"/>
	<use xlink:href="#B" transform="matrix(9.00118 0 0 -9.01095 522.725 18.756)"/>
	<use xlink:href="#J" transform="matrix(9.00118 0 0 -9.01095 524.831 18.756)"/>
	<use xlink:href="#g" transform="matrix(9.00118 0 0 -9.01095 529.56 18.892)"/>
	<use xlink:href="#o" transform="matrix(9.00118 0 0 -9.01095 535.37 18.756)"/>
	<use xlink:href="#l" transform="matrix(9.00118 0 0 -9.01095 540.528 18.853)"/>
	<use xlink:href="#k" transform="matrix(9.00118 0 0 -9.01095 544.259 18.892)"/>
	<use xlink:href="#f" transform="matrix(9.00118 0 0 -9.01095 550.033 18.756)"/>
	<path d="M100.582 383.012v9.152l-43.87 6.238zm0 0" fill="#0068e0"/>
	<path transform="scale(-.99891 1)" stroke-width="1.379" fill="none" stroke="#000094"
	      d="M-100.691 383.012v9.152l43.918 6.238zm0 0"/>
	<path d="M89.61 368.691c-.81 1.918-.54 3.211 2.507 3.2l-35.258 26.558c-.366.11-.382-.137-.086-.48zm0 0"
	      fill="#000094"/>
	<path transform="scale(-.99891 1)" stroke-width="1.379" fill="none" stroke="#000094"
	      d="M-89.707 368.691c.81 1.918.54 3.211-2.51 3.2l35.296 26.558c.367.11.383-.137.086-.48zm0 0"/>
	<path d="M93.086 354.551s.879 1.179-.493 2.453c-1.018.949-2.155.195-2.155.195s-1.032-.797.097-2.156c1.473-1.766 2.55-.492 2.55-.492zm0 0"
	      fill="#1cccfc"/>
	<path transform="scale(-.99891 1)" stroke-width="1.379" fill="none" stroke="#000094"
	      d="M-93.187 354.551s-.88 1.179.493 2.453c1.02.949 2.158.195 2.158.195s1.033-.797-.097-2.156c-1.475-1.766-2.554-.492-2.554-.492zm0 0"/>
	<path d="m56.61 398.555 46.175-15.946s15.543-7.761 14.734-11.507c-.78-3.629-14.437 2.187-15.812 2.382-1.371.2-1.941-.754-1.86-1.371.117-.886 2.45-3.238 1.665-4.414-.785-1.179-4.337.613-4.337.613l-2.913 1.641zm0 0"
	      fill="#1cccfc"/>
	<path transform="scale(-.99891 1)" stroke-width="1.379" fill="none" stroke="#000094"
	      d="m-56.671 398.555-46.226-15.946s-15.56-7.761-14.75-11.507c.782-3.629 14.453 2.187 15.83 2.382 1.372.2 1.943-.754 1.861-1.371-.117-.886-2.452-3.238-1.666-4.414.786-1.179 4.341.613 4.341.613l2.917 1.641zm0 0"/>
	<path d="m56.473 398.352 33.965-30.262s6.148-5.598 6.246-7.363c.097-1.766-7.618 3.144-7.618 3.144s-.883.688-1.566.492c-.687-.195.293-1.375.293-1.375s1.664-2.746.98-3.336c-.687-.586-3.04 1.375-3.04 1.375s-.584.493-1.077.293c-.488-.195 0-1.371 0-1.371s5.094-8.344 3.66-9.144c-2.195-1.223-6.836 5.64-8.363 7.769-.39.59-23.48 39.778-23.48 39.778zm0 0"
	      fill="#1cccfc"/>
	<path transform="scale(-.99891 1)" stroke-width="1.379" fill="none" stroke="#000094"
	      d="m-56.534 398.352-34.002-30.262s-6.155-5.598-6.253-7.363c-.097-1.766 7.626 3.144 7.626 3.144s.884.688 1.568.492c.688-.195-.293-1.375-.293-1.375s-1.666-2.746-.982-3.336c.688-.586 3.043 1.375 3.043 1.375s.586.493 1.079.293c.489-.195 0-1.371 0-1.371s-5.099-8.344-3.664-9.144c2.197-1.223 6.843 5.64 8.372 7.769.391.59 23.506 39.778 23.506 39.778zm0 0"/>
	<path d="M107.594 361.797s1.266 1.152-.688 2.945c-1.793 1.645-2.937.586-2.937.586s-1.212-1.012.39-2.551c2.117-2.027 3.235-.98 3.235-.98zm0 0"
	      fill="#1cccfc"/>
	<path transform="scale(-.99891 1)" stroke-width="1.379" fill="none" stroke="#000094"
	      d="M-107.711 361.797s-1.267 1.152.689 2.945c1.795 1.645 2.94.586 2.94.586s1.213-1.012-.391-2.551c-2.119-2.027-3.238-.98-3.238-.98zm0 0"/>
	<use xlink:href="#a" transform="matrix(40.0052 0 0 -40.04865 393.873 392.313)"/>
	<use xlink:href="#b" transform="matrix(40.0052 0 0 -40.04865 418.716 392.313)"/>
	<use xlink:href="#c" transform="matrix(40.0052 0 0 -40.04865 443.2 392.313)"/>
	<use xlink:href="#d" transform="matrix(40.0052 0 0 -40.04865 467.043 392.873)"/>
	<path d="m378.715 370.113 1.371 7.032-31.176 28.683zm0 0" fill="#0068e0"/>
	<path transform="matrix(-.99891 .59629 .59564 1 0 0)" stroke-width="1.185" fill="none" stroke="#000094"
	      d="m-116.876 439.805 2.08 5.791 35.641 7.431zm0 0"/>
	<path d="M361.969 363.442c.28 2.058 1.18 3.034 3.788 1.46L349.06 405.79c-.254.285-.4.083-.317-.37zm0 0"
	      fill="#000094"/>
	<path transform="matrix(-.99891 .59629 .59564 1 0 0)" stroke-width="1.185" fill="none" stroke="#000094"
	      d="M-107.444 427.509c.698 1.642.464 2.758-2.155 2.746l30.317 22.809c.313.098.331-.115.071-.413zm0 0"/>
	<path d="M357.719 349.515s1.359.56.831 2.356c-.39 1.34-1.749 1.273-1.749 1.273s-1.297-.156-1.02-1.902c.36-2.269 1.938-1.727 1.938-1.727zm0 0"
	      fill="#1cccfc"/>
	<path transform="matrix(-.99891 .59629 .59564 1 0 0)" stroke-width="1.185" fill="none" stroke="#000094"
	      d="M-110.431 415.364s-.758 1.011.422 2.104c.878.817 1.852.169 1.852.169s.889-.686-.084-1.852c-1.263-1.516-2.19-.421-2.19-.421zm0 0"/>
	<path d="m348.902 406.008 31.505-37.371s9.377-14.637 6.765-17.438c-2.528-2.715-11.282 9.285-12.36 10.156-1.078.872-2.059.349-2.304-.226-.352-.82.449-4.035-.824-4.644-1.278-.61-3.414 2.75-3.414 2.75l-1.66 2.906zm0 0"
	      fill="#1cccfc"/>
	<path transform="matrix(-.99891 .59629 .59564 1 0 0)" stroke-width="1.185" fill="none" stroke="#000094"
	      d="m-79.07 453.156-39.705-13.695s-13.364-6.668-12.667-9.885c.673-3.116 12.416 1.882 13.595 2.05 1.18.168 1.674-.65 1.603-1.182-.101-.76-2.107-2.779-1.435-3.789.676-1.012 3.731.525 3.731.525l2.505 1.413zm0 0"/>
	<path d="m348.68 405.902 13.69-43.402s2.419-7.962 1.599-9.527c-.82-1.57-4.934 6.605-4.934 6.605s-.406 1.043-1.094 1.227c-.691.183-.453-1.332-.453-1.332s.027-3.211-.863-3.367c-.89-.153-1.907 2.737-1.907 2.737s-.253.723-.777.806c-.52.081-.703-1.18-.703-1.18s.109-9.778-1.532-9.727c-2.51.074-2.987 8.347-3.21 10.96-.036.704.183 46.2.183 46.2zm0 0"
	      fill="#1cccfc"/>
	<path transform="matrix(-.99891 .59629 .59564 1 0 0)" stroke-width="1.185" fill="none" stroke="#000094"
	      d="m-78.952 452.98-29.203-25.989s-5.288-4.808-5.371-6.324c-.085-1.52 6.549 2.7 6.549 2.7s.759.59 1.348.423c.591-.169-.252-1.182-.252-1.182s-1.432-2.357-.843-2.864c.59-.505 2.612 1.18 2.612 1.18s.505.422.928.252c.42-.169 0-1.18 0-1.18s-4.381-7.165-3.147-7.85c1.887-1.051 5.878 4.842 7.192 6.672.336.503 20.187 34.162 20.187 34.162zm0 0"/>
	<path d="M373.887 348.297s1.675.344.918 2.883c-.7 2.331-2.227 2.011-2.227 2.011s-1.559-.253-.969-2.39c.782-2.828 2.278-2.504 2.278-2.504zm0 0"
	      fill="#1cccfc"/>
	<path transform="matrix(-.99891 .59629 .59564 1 0 0)" stroke-width="1.185" fill="none" stroke="#000094"
	      d="M-122.907 421.585s-1.086.991.59 2.531c1.542 1.412 2.529.503 2.529.503s1.04-.873-.336-2.19c-1.821-1.742-2.783-.844-2.783-.844zm0 0"/>
	<symbol id="K">
		<path d="M.565.261A.259.259 0 0 0 .544.156.227.227 0 0 0 .482.073.299.299 0 0 0 .38.018.459.459 0 0 0 .246 0 .701.701 0 0 0 0 .044v.16h.02A.513.513 0 0 1 .117.162.313.313 0 0 1 .285.15a.12.12 0 0 1 .057.026c.01.01.02.02.025.03.006.011.008.027.008.049a.078.078 0 0 1-.011.043.088.088 0 0 1-.03.03.16.16 0 0 1-.063.021.474.474 0 0 1-.222-.017H.027v.41h.517V.603h-.34V.484A.912.912 0 0 0 .39.475.286.286 0 0 0 .47.443a.192.192 0 0 0 .07-.07A.223.223 0 0 0 .565.26z"/>
	</symbol>
	<symbol id="L">
		<path d="M.595.263a.272.272 0 0 0-.02-.106.23.23 0 0 0-.058-.083A.273.273 0 0 0 .425.02.352.352 0 0 0 .303 0a.386.386 0 0 0-.12.018.246.246 0 0 0-.16.163.6.6 0 0 0-.001.329c.015.049.039.093.072.13a.317.317 0 0 0 .124.086c.05.02.112.03.182.03A.688.688 0 0 0 .533.744V.6H.515a.278.278 0 0 1-.116.022.214.214 0 0 1-.147-.046A.197.197 0 0 1 .19.45a.394.394 0 0 0 .08.036.3.3 0 0 0 .169.004A.204.204 0 0 0 .57.383a.262.262 0 0 0 .024-.12M.373.153c.01.012.018.025.023.04a.17.17 0 0 1 .01.062.14.14 0 0 1-.01.058.092.092 0 0 1-.029.037.099.099 0 0 1-.041.018.224.224 0 0 1-.138-.012.422.422 0 0 0 0-.044c0-.04.003-.073.011-.1A.147.147 0 0 1 .231.154C.241.143.251.135.264.13a.102.102 0 0 1 .109.022z"/>
	</symbol>
	<use xlink:href="#C" transform="matrix(9.00118 0 0 -9.01095 291.278 18.57)"/>
	<use xlink:href="#K" transform="matrix(9.00118 0 0 -9.01095 298.77 18.707)"/>
	<use xlink:href="#E" transform="matrix(9.00118 0 0 -9.01095 305.253 18.57)"/>
	<use xlink:href="#F" transform="matrix(9.00118 0 0 -9.01095 308.868 18.57)"/>
	<use xlink:href="#C" transform="matrix(9.00118 0 0 -9.01095 293.404 169.456)"/>
	<use xlink:href="#K" transform="matrix(9.00118 0 0 -9.01095 300.897 169.592)"/>
	<use xlink:href="#E" transform="matrix(9.00118 0 0 -9.01095 307.38 169.456)"/>
	<use xlink:href="#G" transform="matrix(9.00118 0 0 -9.01095 310.638 169.456)"/>
	<use xlink:href="#C" transform="matrix(9.00118 0 0 -9.01095 571.959 169.892)"/>
	<use xlink:href="#L" transform="matrix(9.00118 0 0 -9.01095 579.32 170.028)"/>
	<use xlink:href="#E" transform="matrix(9.00118 0 0 -9.01095 585.935 169.892)"/>
	<use xlink:href="#G" transform="matrix(9.00118 0 0 -9.01095 589.193 169.892)"/>
	<symbol id="M">
		<path d="M.532.747.214 0H.116l.101.228L0 .747h.1L.267.342l.169.405h.096z"/>
	</symbol>
	<use xlink:href="#z" transform="matrix(9.00118 0 0 -9.01095 56.094 464.542)"/>
	<use xlink:href="#w" transform="matrix(9.00118 0 0 -9.01095 63.485 464.406)"/>
	<use xlink:href="#B" transform="matrix(9.00118 0 0 -9.01095 67.285 464.406)"/>
	<use xlink:href="#y" transform="matrix(9.00118 0 0 -9.01095 69.457 466.267)"/>
	<use xlink:href="#B" transform="matrix(9.00118 0 0 -9.01095 75.359 464.406)"/>
	<use xlink:href="#o" transform="matrix(9.00118 0 0 -9.01095 77.87 464.406)"/>
	<use xlink:href="#k" transform="matrix(9.00118 0 0 -9.01095 83.211 464.542)"/>
	<use xlink:href="#f" transform="matrix(9.00118 0 0 -9.01095 88.986 464.406)"/>
	<use xlink:href="#i" transform="matrix(9.00118 0 0 -9.01095 90.63 464.406)"/>
	<use xlink:href="#e" transform="matrix(9.00118 0 0 -9.01095 94.677 464.406)"/>
	<use xlink:href="#f" transform="matrix(9.00118 0 0 -9.01095 100.795 464.406)"/>
	<use xlink:href="#g" transform="matrix(9.00118 0 0 -9.01095 102.905 464.542)"/>
	<use xlink:href="#h" transform="matrix(9.00118 0 0 -9.01095 108.716 464.542)"/>
	<use xlink:href="#i" transform="matrix(9.00118 0 0 -9.01095 113.511 464.406)"/>
	<use xlink:href="#j" transform="matrix(9.00118 0 0 -9.01095 117.558 464.406)"/>
	<use xlink:href="#f" transform="matrix(9.00118 0 0 -9.01095 122.677 464.406)"/>
	<use xlink:href="#k" transform="matrix(9.00118 0 0 -9.01095 124.778 464.542)"/>
	<use xlink:href="#l" transform="matrix(9.00118 0 0 -9.01095 130.004 464.502)"/>
	<use xlink:href="#i" transform="matrix(9.00118 0 0 -9.01095 133.278 464.406)"/>
	<use xlink:href="#m" transform="matrix(9.00118 0 0 -9.01095 137.048 464.406)"/>
	<use xlink:href="#n" transform="matrix(9.00118 0 0 -9.01095 140.697 464.516)"/>
	<use xlink:href="#g" transform="matrix(9.00118 0 0 -9.01095 145.391 464.542)"/>
	<use xlink:href="#o" transform="matrix(9.00118 0 0 -9.01095 151.202 464.406)"/>
	<use xlink:href="#i" transform="matrix(9.00118 0 0 -9.01095 156.087 464.406)"/>
	<use xlink:href="#p" transform="matrix(9.00118 0 0 -9.01095 159.927 461.937)"/>
	<use xlink:href="#i" transform="matrix(9.00118 0 0 -9.01095 163.341 464.406)"/>
	<use xlink:href="#j" transform="matrix(9.00118 0 0 -9.01095 167.389 464.406)"/>
	<use xlink:href="#f" transform="matrix(9.00118 0 0 -9.01095 172.507 464.406)"/>
	<use xlink:href="#B" transform="matrix(9.00118 0 0 -9.01095 174.921 464.406)"/>
	<use xlink:href="#u" transform="matrix(9.00118 0 0 -9.01095 177.431 466.218)"/>
	<use xlink:href="#u" transform="matrix(9.00118 0 0 -9.01095 183.039 466.218)"/>
	<use xlink:href="#r" transform="matrix(9.00118 0 0 -9.01095 188.3 464.52)"/>
	<use xlink:href="#s" transform="matrix(9.00118 0 0 -9.01095 193.673 464.542)"/>
	<use xlink:href="#i" transform="matrix(9.00118 0 0 -9.01095 198.806 464.406)"/>
	<use xlink:href="#I" transform="matrix(9.00118 0 0 -9.01095 202.854 464.406)"/>
	<use xlink:href="#g" transform="matrix(9.00118 0 0 -9.01095 209.2 464.542)"/>
	<use xlink:href="#w" transform="matrix(9.00118 0 0 -9.01095 215.011 464.406)"/>
	<use xlink:href="#B" transform="matrix(9.00118 0 0 -9.01095 218.81 464.406)"/>
	<use xlink:href="#J" transform="matrix(9.00118 0 0 -9.01095 220.917 464.406)"/>
	<use xlink:href="#g" transform="matrix(9.00118 0 0 -9.01095 225.645 464.542)"/>
	<use xlink:href="#o" transform="matrix(9.00118 0 0 -9.01095 231.456 464.406)"/>
	<use xlink:href="#l" transform="matrix(9.00118 0 0 -9.01095 236.613 464.502)"/>
	<use xlink:href="#k" transform="matrix(9.00118 0 0 -9.01095 240.345 464.542)"/>
	<use xlink:href="#f" transform="matrix(9.00118 0 0 -9.01095 246.119 464.406)"/>
	<use xlink:href="#f" transform="matrix(9.00118 0 0 -9.01095 248.585 464.406)"/>
	<use xlink:href="#M" transform="matrix(9.00118 0 0 -9.01095 250.498 466.218)"/>
	<symbol id="N">
		<path d="M.57.583.24 0H.033l.342.588H0v.14h.57V.582z"/>
	</symbol>
	<use xlink:href="#C" transform="matrix(9.00118 0 0 -9.01095 20.259 464.736)"/>
	<use xlink:href="#N" transform="matrix(9.00118 0 0 -9.01095 27.716 464.736)"/>
	<use xlink:href="#E" transform="matrix(9.00118 0 0 -9.01095 34.234 464.736)"/>
	<use xlink:href="#G" transform="matrix(9.00118 0 0 -9.01095 37.493 464.736)"/>
	<use xlink:href="#C" transform="matrix(9.00118 0 0 -9.01095 570.553 17.727)"/>
	<use xlink:href="#L" transform="matrix(9.00118 0 0 -9.01095 577.913 17.863)"/>
	<use xlink:href="#E" transform="matrix(9.00118 0 0 -9.01095 584.528 17.727)"/>
	<use xlink:href="#F" transform="matrix(9.00118 0 0 -9.01095 588.143 17.727)"/>
	<use xlink:href="#z" transform="matrix(9.00118 0 0 -9.01095 50.819 316.566)"/>
	<use xlink:href="#w" transform="matrix(9.00118 0 0 -9.01095 58.21 316.43)"/>
	<use xlink:href="#B" transform="matrix(9.00118 0 0 -9.01095 62.01 316.43)"/>
	<use xlink:href="#y" transform="matrix(9.00118 0 0 -9.01095 64.182 318.291)"/>
	<use xlink:href="#B" transform="matrix(9.00118 0 0 -9.01095 70.084 316.43)"/>
	<use xlink:href="#o" transform="matrix(9.00118 0 0 -9.01095 72.594 316.43)"/>
	<use xlink:href="#k" transform="matrix(9.00118 0 0 -9.01095 77.936 316.566)"/>
	<use xlink:href="#f" transform="matrix(9.00118 0 0 -9.01095 83.71 316.43)"/>
	<use xlink:href="#i" transform="matrix(9.00118 0 0 -9.01095 85.355 316.43)"/>
	<use xlink:href="#e" transform="matrix(9.00118 0 0 -9.01095 89.403 316.43)"/>
	<use xlink:href="#f" transform="matrix(9.00118 0 0 -9.01095 95.52 316.43)"/>
	<use xlink:href="#g" transform="matrix(9.00118 0 0 -9.01095 97.63 316.566)"/>
	<use xlink:href="#h" transform="matrix(9.00118 0 0 -9.01095 103.441 316.566)"/>
	<use xlink:href="#i" transform="matrix(9.00118 0 0 -9.01095 108.236 316.43)"/>
	<use xlink:href="#z" transform="matrix(9.00118 0 0 -9.01095 111.91 316.566)"/>
	<use xlink:href="#A" transform="matrix(9.00118 0 0 -9.01095 119.266 316.566)"/>
	<use xlink:href="#l" transform="matrix(9.00118 0 0 -9.01095 124.459 316.527)"/>
	<use xlink:href="#f" transform="matrix(9.00118 0 0 -9.01095 128.555 316.43)"/>
	<use xlink:href="#B" transform="matrix(9.00118 0 0 -9.01095 130.968 316.43)"/>
	<use xlink:href="#o" transform="matrix(9.00118 0 0 -9.01095 133.478 316.43)"/>
	<use xlink:href="#r" transform="matrix(9.00118 0 0 -9.01095 138.829 316.544)"/>
	<use xlink:href="#i" transform="matrix(9.00118 0 0 -9.01095 143.728 316.43)"/>
	<use xlink:href="#m" transform="matrix(9.00118 0 0 -9.01095 147.498 316.43)"/>
	<use xlink:href="#n" transform="matrix(9.00118 0 0 -9.01095 151.147 316.54)"/>
	<use xlink:href="#g" transform="matrix(9.00118 0 0 -9.01095 155.841 316.566)"/>
	<use xlink:href="#o" transform="matrix(9.00118 0 0 -9.01095 161.652 316.43)"/>
	<use xlink:href="#i" transform="matrix(9.00118 0 0 -9.01095 166.537 316.43)"/>
	<use xlink:href="#p" transform="matrix(9.00118 0 0 -9.01095 170.378 313.962)"/>
	<use xlink:href="#i" transform="matrix(9.00118 0 0 -9.01095 173.792 316.43)"/>
	<use xlink:href="#j" transform="matrix(9.00118 0 0 -9.01095 177.84 316.43)"/>
	<use xlink:href="#f" transform="matrix(9.00118 0 0 -9.01095 182.958 316.43)"/>
	<use xlink:href="#B" transform="matrix(9.00118 0 0 -9.01095 185.371 316.43)"/>
	<use xlink:href="#u" transform="matrix(9.00118 0 0 -9.01095 187.881 318.243)"/>
	<use xlink:href="#u" transform="matrix(9.00118 0 0 -9.01095 193.49 318.243)"/>
	<use xlink:href="#r" transform="matrix(9.00118 0 0 -9.01095 198.75 316.544)"/>
	<use xlink:href="#s" transform="matrix(9.00118 0 0 -9.01095 204.123 316.566)"/>
	<use xlink:href="#i" transform="matrix(9.00118 0 0 -9.01095 209.256 316.43)"/>
	<use xlink:href="#I" transform="matrix(9.00118 0 0 -9.01095 213.304 316.43)"/>
	<use xlink:href="#g" transform="matrix(9.00118 0 0 -9.01095 219.65 316.566)"/>
	<use xlink:href="#w" transform="matrix(9.00118 0 0 -9.01095 225.461 316.43)"/>
	<use xlink:href="#B" transform="matrix(9.00118 0 0 -9.01095 229.261 316.43)"/>
	<use xlink:href="#J" transform="matrix(9.00118 0 0 -9.01095 231.367 316.43)"/>
	<use xlink:href="#g" transform="matrix(9.00118 0 0 -9.01095 236.096 316.566)"/>
	<use xlink:href="#o" transform="matrix(9.00118 0 0 -9.01095 241.907 316.43)"/>
	<use xlink:href="#l" transform="matrix(9.00118 0 0 -9.01095 247.064 316.527)"/>
	<use xlink:href="#k" transform="matrix(9.00118 0 0 -9.01095 250.795 316.566)"/>
	<use xlink:href="#f" transform="matrix(9.00118 0 0 -9.01095 256.57 316.43)"/>
	<use xlink:href="#f" transform="matrix(9.00118 0 0 -9.01095 259.036 316.43)"/>
	<use xlink:href="#M" transform="matrix(9.00118 0 0 -9.01095 260.948 318.243)"/>
	<use xlink:href="#C" transform="matrix(9.00118 0 0 -9.01095 18.848 316.454)"/>
	<use xlink:href="#N" transform="matrix(9.00118 0 0 -9.01095 26.305 316.454)"/>
	<use xlink:href="#E" transform="matrix(9.00118 0 0 -9.01095 32.824 316.454)"/>
	<use xlink:href="#F" transform="matrix(9.00118 0 0 -9.01095 36.438 316.454)"/>
	<symbol id="O">
		<path d="M.56.22A.192.192 0 0 0 .54.138a.197.197 0 0 0-.055-.07.295.295 0 0 0-.091-.05A.391.391 0 0 0 .269 0 .627.627 0 0 0 0 .058V.18h.007A.402.402 0 0 1 .134.11.418.418 0 0 1 .27.082c.06 0 .106.012.14.034.033.023.05.053.05.09C.46.239.452.263.436.278a.16.16 0 0 1-.072.036.715.715 0 0 1-.08.016l-.09.016a.27.27 0 0 0-.143.07.182.182 0 0 0-.047.13c0 .06.026.11.078.149.051.039.116.058.195.058a.63.63 0 0 0 .254-.05V.588H.524A.418.418 0 0 1 .276.67.218.218 0 0 1 .153.638.097.097 0 0 1 .105.555C.105.525.113.5.128.483a.159.159 0 0 1 .083-.04L.3.428a1.23 1.23 0 0 0 .097-.02A.253.253 0 0 0 .52.342.17.17 0 0 0 .56.221z"/>
	</symbol>
	<symbol id="P">
		<path d="M.456 0H.364v.31A.53.53 0 0 1 .36.38a.13.13 0 0 1-.016.053.073.073 0 0 1-.035.03.147.147 0 0 1-.06.01A.19.19 0 0 1 .17.455.4.4 0 0 1 .092.407V0H0v.76h.092V.485A.373.373 0 0 0 .18.54c.03.013.062.02.094.02C.334.56.379.543.41.507.44.472.456.421.456.354V0z"/>
	</symbol>
	<symbol id="Q">
		<path d="M.616.641h-.26V0H.26v.641H0v.086h.616V.641z"/>
	</symbol>
	<symbol id="R">
		<path d="M.491 0h-.12L.15.239.091.182V0H0v.76h.092V.272l.265.273h.116L.219.293.491 0z"/>
	</symbol>
	<use xlink:href="#O" transform="matrix(9.00118 0 0 -9.01095 327.936 463.113)"/>
	<use xlink:href="#f" transform="matrix(9.00118 0 0 -9.01095 334.326 462.995)"/>
	<use xlink:href="#B" transform="matrix(9.00118 0 0 -9.01095 336.74 462.995)"/>
	<use xlink:href="#y" transform="matrix(9.00118 0 0 -9.01095 338.911 464.856)"/>
	<use xlink:href="#P" transform="matrix(9.00118 0 0 -9.01095 344.857 462.995)"/>
	<use xlink:href="#l" transform="matrix(9.00118 0 0 -9.01095 350.015 463.091)"/>
	<use xlink:href="#f" transform="matrix(9.00118 0 0 -9.01095 354.11 462.995)"/>
	<use xlink:href="#M" transform="matrix(9.00118 0 0 -9.01095 356.023 464.807)"/>
	<use xlink:href="#i" transform="matrix(9.00118 0 0 -9.01095 361.084 462.995)"/>
	<use xlink:href="#Q" transform="matrix(9.00118 0 0 -9.01095 364.252 462.995)"/>
	<use xlink:href="#v" transform="matrix(9.00118 0 0 -9.01095 369.293 462.995)"/>
	<use xlink:href="#r" transform="matrix(9.00118 0 0 -9.01095 376.743 463.11)"/>
	<use xlink:href="#k" transform="matrix(9.00118 0 0 -9.01095 382.1 463.131)"/>
	<use xlink:href="#R" transform="matrix(9.00118 0 0 -9.01095 387.9 462.995)"/>
	<use xlink:href="#r" transform="matrix(9.00118 0 0 -9.01095 392.766 463.11)"/>
	<use xlink:href="#s" transform="matrix(9.00118 0 0 -9.01095 398.14 463.131)"/>
	<use xlink:href="#i" transform="matrix(9.00118 0 0 -9.01095 403.272 462.995)"/>
	<use xlink:href="#e" transform="matrix(9.00118 0 0 -9.01095 407.32 462.995)"/>
	<use xlink:href="#f" transform="matrix(9.00118 0 0 -9.01095 413.437 462.995)"/>
	<use xlink:href="#g" transform="matrix(9.00118 0 0 -9.01095 415.548 463.131)"/>
	<use xlink:href="#h" transform="matrix(9.00118 0 0 -9.01095 421.358 463.131)"/>
	<use xlink:href="#i" transform="matrix(9.00118 0 0 -9.01095 426.153 462.995)"/>
	<use xlink:href="#j" transform="matrix(9.00118 0 0 -9.01095 430.2 462.995)"/>
	<use xlink:href="#f" transform="matrix(9.00118 0 0 -9.01095 435.32 462.995)"/>
	<use xlink:href="#k" transform="matrix(9.00118 0 0 -9.01095 437.42 463.131)"/>
	<use xlink:href="#l" transform="matrix(9.00118 0 0 -9.01095 442.646 463.091)"/>
	<use xlink:href="#i" transform="matrix(9.00118 0 0 -9.01095 445.92 462.995)"/>
	<use xlink:href="#p" transform="matrix(9.00118 0 0 -9.01095 449.76 460.526)"/>
	<use xlink:href="#i" transform="matrix(9.00118 0 0 -9.01095 453.175 462.995)"/>
	<use xlink:href="#j" transform="matrix(9.00118 0 0 -9.01095 457.222 462.995)"/>
	<use xlink:href="#f" transform="matrix(9.00118 0 0 -9.01095 462.34 462.995)"/>
	<use xlink:href="#B" transform="matrix(9.00118 0 0 -9.01095 464.754 462.995)"/>
	<use xlink:href="#u" transform="matrix(9.00118 0 0 -9.01095 467.264 464.807)"/>
	<use xlink:href="#u" transform="matrix(9.00118 0 0 -9.01095 472.872 464.807)"/>
	<use xlink:href="#r" transform="matrix(9.00118 0 0 -9.01095 478.133 463.11)"/>
	<use xlink:href="#s" transform="matrix(9.00118 0 0 -9.01095 483.506 463.131)"/>
	<use xlink:href="#i" transform="matrix(9.00118 0 0 -9.01095 488.64 462.995)"/>
	<use xlink:href="#I" transform="matrix(9.00118 0 0 -9.01095 492.687 462.995)"/>
	<use xlink:href="#g" transform="matrix(9.00118 0 0 -9.01095 499.033 463.131)"/>
	<use xlink:href="#w" transform="matrix(9.00118 0 0 -9.01095 504.844 462.995)"/>
	<use xlink:href="#B" transform="matrix(9.00118 0 0 -9.01095 508.644 462.995)"/>
	<use xlink:href="#J" transform="matrix(9.00118 0 0 -9.01095 510.75 462.995)"/>
	<use xlink:href="#g" transform="matrix(9.00118 0 0 -9.01095 515.479 463.131)"/>
	<use xlink:href="#o" transform="matrix(9.00118 0 0 -9.01095 521.29 462.995)"/>
	<use xlink:href="#l" transform="matrix(9.00118 0 0 -9.01095 526.447 463.091)"/>
	<use xlink:href="#k" transform="matrix(9.00118 0 0 -9.01095 530.178 463.131)"/>
	<use xlink:href="#f" transform="matrix(9.00118 0 0 -9.01095 535.952 462.995)"/>
	<use xlink:href="#f" transform="matrix(9.00118 0 0 -9.01095 538.419 462.995)"/>
	<use xlink:href="#M" transform="matrix(9.00118 0 0 -9.01095 540.331 464.807)"/>
	<symbol id="S">
		<path d="M.614.22A.19.19 0 0 0 .532.062.368.368 0 0 0 .306 0c-.054 0-.1.006-.138.017a.28.28 0 0 0-.095.045.184.184 0 0 0-.073.15C0 .25.01.283.032.31a.257.257 0 0 0 .11.074v.003A.219.219 0 0 0 .05.46a.18.18 0 0 0-.03.103c0 .058.027.105.08.142A.36.36 0 0 0 .31.76a.38.38 0 0 0 .21-.05.152.152 0 0 0 .044-.226.247.247 0 0 0-.098-.068V.413A.244.244 0 0 0 .578.335.187.187 0 0 0 .614.22M.413.556a.07.07 0 0 1-.03.059.12.12 0 0 1-.075.022.157.157 0 0 1-.07-.017.072.072 0 0 1-.023-.022.051.051 0 0 1-.009-.03.06.06 0 0 1 .016-.046A.184.184 0 0 1 .276.49.91.91 0 0 1 .37.457a.218.218 0 0 1 .032.047c.006.014.01.031.01.052M.428.21C.428.235.422.253.41.265a.242.242 0 0 1-.072.041 2.787 2.787 0 0 0-.099.037.218.218 0 0 1-.038-.047.113.113 0 0 1-.016-.06A.1.1 0 0 1 .22.155a.146.146 0 0 1 .095-.03c.01 0 .023.001.037.004a.114.114 0 0 1 .036.015.1.1 0 0 1 .028.026.07.07 0 0 1 .01.041z"/>
	</symbol>
	<use xlink:href="#C" transform="matrix(9.00118 0 0 -9.01095 290.517 463.325)"/>
	<use xlink:href="#S" transform="matrix(9.00118 0 0 -9.01095 297.724 463.474)"/>
	<use xlink:href="#E" transform="matrix(9.00118 0 0 -9.01095 304.493 463.325)"/>
	<use xlink:href="#G" transform="matrix(9.00118 0 0 -9.01095 307.751 463.325)"/>
	<use xlink:href="#O" transform="matrix(9.00118 0 0 -9.01095 321.161 315.138)"/>
	<use xlink:href="#f" transform="matrix(9.00118 0 0 -9.01095 327.55 315.019)"/>
	<use xlink:href="#B" transform="matrix(9.00118 0 0 -9.01095 329.964 315.019)"/>
	<use xlink:href="#y" transform="matrix(9.00118 0 0 -9.01095 332.136 316.88)"/>
	<use xlink:href="#P" transform="matrix(9.00118 0 0 -9.01095 338.082 315.019)"/>
	<use xlink:href="#l" transform="matrix(9.00118 0 0 -9.01095 343.24 315.116)"/>
	<use xlink:href="#f" transform="matrix(9.00118 0 0 -9.01095 347.335 315.019)"/>
	<use xlink:href="#M" transform="matrix(9.00118 0 0 -9.01095 349.248 316.832)"/>
	<use xlink:href="#i" transform="matrix(9.00118 0 0 -9.01095 354.308 315.019)"/>
	<use xlink:href="#Q" transform="matrix(9.00118 0 0 -9.01095 357.477 315.019)"/>
	<use xlink:href="#v" transform="matrix(9.00118 0 0 -9.01095 362.518 315.019)"/>
	<use xlink:href="#r" transform="matrix(9.00118 0 0 -9.01095 369.968 315.133)"/>
	<use xlink:href="#k" transform="matrix(9.00118 0 0 -9.01095 375.324 315.155)"/>
	<use xlink:href="#R" transform="matrix(9.00118 0 0 -9.01095 381.125 315.019)"/>
	<use xlink:href="#r" transform="matrix(9.00118 0 0 -9.01095 385.99 315.133)"/>
	<use xlink:href="#s" transform="matrix(9.00118 0 0 -9.01095 391.364 315.155)"/>
	<use xlink:href="#i" transform="matrix(9.00118 0 0 -9.01095 396.497 315.019)"/>
	<use xlink:href="#e" transform="matrix(9.00118 0 0 -9.01095 400.545 315.019)"/>
	<use xlink:href="#f" transform="matrix(9.00118 0 0 -9.01095 406.662 315.019)"/>
	<use xlink:href="#g" transform="matrix(9.00118 0 0 -9.01095 408.772 315.155)"/>
	<use xlink:href="#h" transform="matrix(9.00118 0 0 -9.01095 414.583 315.155)"/>
	<use xlink:href="#i" transform="matrix(9.00118 0 0 -9.01095 419.378 315.019)"/>
	<use xlink:href="#z" transform="matrix(9.00118 0 0 -9.01095 423.052 315.155)"/>
	<use xlink:href="#A" transform="matrix(9.00118 0 0 -9.01095 430.408 315.155)"/>
	<use xlink:href="#l" transform="matrix(9.00118 0 0 -9.01095 435.6 315.116)"/>
	<use xlink:href="#f" transform="matrix(9.00118 0 0 -9.01095 439.697 315.019)"/>
	<use xlink:href="#B" transform="matrix(9.00118 0 0 -9.01095 442.11 315.019)"/>
	<use xlink:href="#o" transform="matrix(9.00118 0 0 -9.01095 444.62 315.019)"/>
	<use xlink:href="#r" transform="matrix(9.00118 0 0 -9.01095 449.97 315.133)"/>
	<use xlink:href="#i" transform="matrix(9.00118 0 0 -9.01095 454.87 315.019)"/>
	<use xlink:href="#p" transform="matrix(9.00118 0 0 -9.01095 458.71 312.55)"/>
	<use xlink:href="#i" transform="matrix(9.00118 0 0 -9.01095 462.125 315.019)"/>
	<use xlink:href="#j" transform="matrix(9.00118 0 0 -9.01095 466.172 315.019)"/>
	<use xlink:href="#f" transform="matrix(9.00118 0 0 -9.01095 471.29 315.019)"/>
	<use xlink:href="#B" transform="matrix(9.00118 0 0 -9.01095 473.704 315.019)"/>
	<use xlink:href="#u" transform="matrix(9.00118 0 0 -9.01095 476.214 316.832)"/>
	<use xlink:href="#u" transform="matrix(9.00118 0 0 -9.01095 481.822 316.832)"/>
	<use xlink:href="#r" transform="matrix(9.00118 0 0 -9.01095 487.083 315.133)"/>
	<use xlink:href="#s" transform="matrix(9.00118 0 0 -9.01095 492.456 315.155)"/>
	<use xlink:href="#i" transform="matrix(9.00118 0 0 -9.01095 497.59 315.019)"/>
	<use xlink:href="#I" transform="matrix(9.00118 0 0 -9.01095 501.637 315.019)"/>
	<use xlink:href="#g" transform="matrix(9.00118 0 0 -9.01095 507.984 315.155)"/>
	<use xlink:href="#w" transform="matrix(9.00118 0 0 -9.01095 513.794 315.019)"/>
	<use xlink:href="#B" transform="matrix(9.00118 0 0 -9.01095 517.594 315.019)"/>
	<use xlink:href="#J" transform="matrix(9.00118 0 0 -9.01095 519.7 315.019)"/>
	<use xlink:href="#g" transform="matrix(9.00118 0 0 -9.01095 524.429 315.155)"/>
	<use xlink:href="#o" transform="matrix(9.00118 0 0 -9.01095 530.24 315.019)"/>
	<use xlink:href="#l" transform="matrix(9.00118 0 0 -9.01095 535.397 315.116)"/>
	<use xlink:href="#k" transform="matrix(9.00118 0 0 -9.01095 539.128 315.155)"/>
	<use xlink:href="#f" transform="matrix(9.00118 0 0 -9.01095 544.902 315.019)"/>
	<use xlink:href="#f" transform="matrix(9.00118 0 0 -9.01095 547.369 315.019)"/>
	<use xlink:href="#M" transform="matrix(9.00118 0 0 -9.01095 549.281 316.832)"/>
	<use xlink:href="#i" transform="matrix(9.00118 0 0 -9.01095 554.342 315.019)"/>
	<use xlink:href="#k" transform="matrix(9.00118 0 0 -9.01095 467.44 326.678)"/>
	<use xlink:href="#o" transform="matrix(9.00118 0 0 -9.01095 473.206 326.542)"/>
	<use xlink:href="#s" transform="matrix(9.00118 0 0 -9.01095 478.565 326.678)"/>
	<use xlink:href="#i" transform="matrix(9.00118 0 0 -9.01095 483.698 326.542)"/>
	<use xlink:href="#O" transform="matrix(9.00118 0 0 -9.01095 487.455 326.66)"/>
	<use xlink:href="#l" transform="matrix(9.00118 0 0 -9.01095 493.296 326.638)"/>
	<use xlink:href="#r" transform="matrix(9.00118 0 0 -9.01095 497.036 326.656)"/>
	<use xlink:href="#r" transform="matrix(9.00118 0 0 -9.01095 502.4 326.656)"/>
	<use xlink:href="#u" transform="matrix(9.00118 0 0 -9.01095 508.112 328.354)"/>
	<use xlink:href="#r" transform="matrix(9.00118 0 0 -9.01095 513.373 326.656)"/>
	<use xlink:href="#w" transform="matrix(9.00118 0 0 -9.01095 519.085 326.542)"/>
	<use xlink:href="#i" transform="matrix(9.00118 0 0 -9.01095 522.115 326.542)"/>
	<use xlink:href="#x" transform="matrix(9.00118 0 0 -9.01095 525.398 326.542)"/>
	<use xlink:href="#o" transform="matrix(9.00118 0 0 -9.01095 532.253 326.542)"/>
	<use xlink:href="#y" transform="matrix(9.00118 0 0 -9.01095 537.613 328.403)"/>
	<use xlink:href="#f" transform="matrix(9.00118 0 0 -9.01095 543.568 326.542)"/>
	<use xlink:href="#r" transform="matrix(9.00118 0 0 -9.01095 545.678 326.656)"/>
	<use xlink:href="#k" transform="matrix(9.00118 0 0 -9.01095 457.879 474.801)"/>
	<use xlink:href="#o" transform="matrix(9.00118 0 0 -9.01095 463.645 474.665)"/>
	<use xlink:href="#s" transform="matrix(9.00118 0 0 -9.01095 469.004 474.801)"/>
	<use xlink:href="#i" transform="matrix(9.00118 0 0 -9.01095 474.137 474.665)"/>
	<use xlink:href="#O" transform="matrix(9.00118 0 0 -9.01095 477.894 474.784)"/>
	<use xlink:href="#l" transform="matrix(9.00118 0 0 -9.01095 483.735 474.762)"/>
	<use xlink:href="#r" transform="matrix(9.00118 0 0 -9.01095 487.475 474.78)"/>
	<use xlink:href="#r" transform="matrix(9.00118 0 0 -9.01095 492.84 474.78)"/>
	<use xlink:href="#u" transform="matrix(9.00118 0 0 -9.01095 498.551 476.478)"/>
	<use xlink:href="#r" transform="matrix(9.00118 0 0 -9.01095 503.812 474.78)"/>
	<use xlink:href="#w" transform="matrix(9.00118 0 0 -9.01095 509.524 474.665)"/>
	<use xlink:href="#i" transform="matrix(9.00118 0 0 -9.01095 512.554 474.665)"/>
	<use xlink:href="#x" transform="matrix(9.00118 0 0 -9.01095 515.837 474.665)"/>
	<use xlink:href="#o" transform="matrix(9.00118 0 0 -9.01095 522.692 474.665)"/>
	<use xlink:href="#y" transform="matrix(9.00118 0 0 -9.01095 528.052 476.526)"/>
	<use xlink:href="#f" transform="matrix(9.00118 0 0 -9.01095 534.007 474.665)"/>
	<use xlink:href="#r" transform="matrix(9.00118 0 0 -9.01095 536.117 474.78)"/>
	<use xlink:href="#C" transform="matrix(9.00118 0 0 -9.01095 289.106 315.043)"/>
	<use xlink:href="#S" transform="matrix(9.00118 0 0 -9.01095 296.313 315.193)"/>
	<use xlink:href="#E" transform="matrix(9.00118 0 0 -9.01095 303.082 315.043)"/>
	<use xlink:href="#F" transform="matrix(9.00118 0 0 -9.01095 306.696 315.043)"/>
	<path d="M99.879 528.777v9.567l-45.856 6.519zm0 0" fill="#0068e0"/>
	<path d="M88.41 513.812c-.848 2-.562 3.356 2.621 3.34L54.18 544.914c-.383.113-.403-.144-.09-.504zm0 0"
	      fill="#000094"/>
	<path d="M92.043 499.031s.922 1.231-.512 2.567c-1.066.992-2.254.203-2.254.203s-1.082-.836.102-2.254c1.535-1.848 2.664-.516 2.664-.516zM53.918 545.023l48.266-16.664s16.246-8.117 15.398-12.027c-.82-3.797-15.094 2.285-16.527 2.492-1.434.203-2.032-.793-1.946-1.437.125-.93 2.563-3.383 1.743-4.614-.821-1.23-4.536.641-4.536.641l-3.046 1.719zm0 0"
	      fill="#1cccfc"/>
	<path d="m53.777 544.809 35.5-31.625s6.426-5.852 6.528-7.7c.101-1.843-7.961 3.289-7.961 3.289s-.922.719-1.641.512c-.715-.203.309-1.433.309-1.433s1.742-2.872 1.023-3.489c-.715-.613-3.176 1.438-3.176 1.438s-.613.511-1.125.308c-.511-.207 0-1.437 0-1.437s5.325-8.719 3.825-9.555c-2.293-1.277-7.145 5.895-8.743 8.121-.41.614-24.539 41.571-24.539 41.571zM107.207 506.605s1.32 1.204-.719 3.079c-1.875 1.718-3.07.613-3.07.613s-1.266-1.063.41-2.664c2.211-2.125 3.379-1.028 3.379-1.028zm0 0"
	      fill="#1cccfc"/>
	<use xlink:href="#a" transform="matrix(40.0052 0 0 -40.04865 397.088 540.451)"/>
	<use xlink:href="#b" transform="matrix(40.0052 0 0 -40.04865 421.931 540.451)"/>
	<use xlink:href="#c" transform="matrix(40.0052 0 0 -40.04865 446.414 540.451)"/>
	<use xlink:href="#d" transform="matrix(40.0052 0 0 -40.04865 470.258 541.012)"/>
	<path d="m381.246 517.742 1.063 8.621-33.141 28.938zm0 0" fill="#0068e0"/>
	<path d="M362.07 511.664c.41 2.082 1.461 3.035 4.336 1.324l-17.07 42.27c-.277.297-.445.097-.375-.363zm0 0"
	      fill="#000094"/>
	<path d="M356.68 497.688s1.554.511 1.039 2.363c-.383 1.375-1.918 1.367-1.918 1.367s-1.469-.106-1.235-1.891c.309-2.324 2.114-1.839 2.114-1.839zM349.164 555.484l33.922-39.316s9.945-15.273 6.883-18.012c-2.969-2.652-12.324 9.914-13.504 10.848-1.18.93-2.305.437-2.606-.133-.433-.82.332-4.121-1.132-4.687-1.465-.567-3.731 2.941-3.731 2.941l-1.75 3.023zm0 0"
	      fill="#1cccfc"/>
	<path d="m348.91 555.387 13.574-44.696s2.383-8.195 1.391-9.753c-.992-1.559-5.277 6.925-5.277 6.925s-.414 1.078-1.184 1.293c-.769.215-.566-1.336-.566-1.336s-.11-3.265-1.118-3.382c-1.011-.122-2.035 2.863-2.035 2.863s-.254.742-.84.847c-.582.11-.843-1.168-.843-1.168s-.297-9.941-2.149-9.824c-2.824.184-3.008 8.614-3.144 11.278-.012.718 2.191 46.953 2.191 46.953zM374.859 495.77s1.907.277 1.157 2.89c-.684 2.402-2.418 2.137-2.418 2.137s-1.77-.188-1.196-2.387c.754-2.91 2.457-2.64 2.457-2.64zm0 0"
	      fill="#1cccfc"/>
	<symbol id="T">
		<path d="M.603.066A2.142 2.142 0 0 1 .554.044.461.461 0 0 0 .433.007a.447.447 0 0 0-.22.015.296.296 0 0 0-.187.187A.482.482 0 0 0 0 .376c0 .06.008.113.025.16A.307.307 0 0 0 .21.729a.41.41 0 0 0 .146.025A.491.491 0 0 0 .603.69V.575H.596a.43.43 0 0 1-.12.073A.346.346 0 0 1 .35.67a.262.262 0 0 1-.1-.018.215.215 0 0 1-.078-.055.257.257 0 0 1-.053-.093.408.408 0 0 1-.018-.129C.1.325.107.281.12.244a.268.268 0 0 1 .054-.09.215.215 0 0 1 .08-.053A.275.275 0 0 1 .35.083.355.355 0 0 1 .596.18h.007V.066z"/>
	</symbol>
	<use xlink:href="#O" transform="matrix(9.00118 0 0 -9.01095 615.224 463.267)"/>
	<use xlink:href="#f" transform="matrix(9.00118 0 0 -9.01095 621.614 463.148)"/>
	<use xlink:href="#B" transform="matrix(9.00118 0 0 -9.01095 624.027 463.148)"/>
	<use xlink:href="#y" transform="matrix(9.00118 0 0 -9.01095 626.199 465.01)"/>
	<use xlink:href="#P" transform="matrix(9.00118 0 0 -9.01095 632.145 463.148)"/>
	<use xlink:href="#l" transform="matrix(9.00118 0 0 -9.01095 637.302 463.245)"/>
	<use xlink:href="#f" transform="matrix(9.00118 0 0 -9.01095 641.398 463.148)"/>
	<use xlink:href="#M" transform="matrix(9.00118 0 0 -9.01095 643.31 464.96)"/>
	<use xlink:href="#i" transform="matrix(9.00118 0 0 -9.01095 648.371 463.148)"/>
	<use xlink:href="#Q" transform="matrix(9.00118 0 0 -9.01095 651.54 463.148)"/>
	<use xlink:href="#v" transform="matrix(9.00118 0 0 -9.01095 656.58 463.148)"/>
	<use xlink:href="#r" transform="matrix(9.00118 0 0 -9.01095 664.031 463.262)"/>
	<use xlink:href="#k" transform="matrix(9.00118 0 0 -9.01095 669.387 463.284)"/>
	<use xlink:href="#R" transform="matrix(9.00118 0 0 -9.01095 675.188 463.148)"/>
	<use xlink:href="#r" transform="matrix(9.00118 0 0 -9.01095 680.053 463.262)"/>
	<use xlink:href="#s" transform="matrix(9.00118 0 0 -9.01095 685.427 463.284)"/>
	<use xlink:href="#i" transform="matrix(9.00118 0 0 -9.01095 690.56 463.148)"/>
	<use xlink:href="#e" transform="matrix(9.00118 0 0 -9.01095 694.607 463.148)"/>
	<use xlink:href="#f" transform="matrix(9.00118 0 0 -9.01095 700.725 463.148)"/>
	<use xlink:href="#g" transform="matrix(9.00118 0 0 -9.01095 702.835 463.284)"/>
	<use xlink:href="#h" transform="matrix(9.00118 0 0 -9.01095 708.646 463.284)"/>
	<use xlink:href="#i" transform="matrix(9.00118 0 0 -9.01095 713.44 463.148)"/>
	<use xlink:href="#j" transform="matrix(9.00118 0 0 -9.01095 717.488 463.148)"/>
	<use xlink:href="#f" transform="matrix(9.00118 0 0 -9.01095 722.607 463.148)"/>
	<use xlink:href="#k" transform="matrix(9.00118 0 0 -9.01095 724.708 463.284)"/>
	<use xlink:href="#l" transform="matrix(9.00118 0 0 -9.01095 729.933 463.245)"/>
	<use xlink:href="#i" transform="matrix(9.00118 0 0 -9.01095 733.207 463.148)"/>
	<use xlink:href="#p" transform="matrix(9.00118 0 0 -9.01095 737.048 460.68)"/>
	<use xlink:href="#i" transform="matrix(9.00118 0 0 -9.01095 740.462 463.148)"/>
	<use xlink:href="#O" transform="matrix(9.00118 0 0 -9.01095 744.22 463.267)"/>
	<use xlink:href="#f" transform="matrix(9.00118 0 0 -9.01095 750.61 463.148)"/>
	<use xlink:href="#B" transform="matrix(9.00118 0 0 -9.01095 753.023 463.148)"/>
	<use xlink:href="#y" transform="matrix(9.00118 0 0 -9.01095 755.195 465.01)"/>
	<use xlink:href="#P" transform="matrix(9.00118 0 0 -9.01095 761.14 463.148)"/>
	<use xlink:href="#l" transform="matrix(9.00118 0 0 -9.01095 766.298 463.245)"/>
	<use xlink:href="#i" transform="matrix(9.00118 0 0 -9.01095 769.572 463.148)"/>
	<use xlink:href="#x" transform="matrix(9.00118 0 0 -9.01095 772.855 463.148)"/>
	<use xlink:href="#o" transform="matrix(9.00118 0 0 -9.01095 779.71 463.148)"/>
	<use xlink:href="#y" transform="matrix(9.00118 0 0 -9.01095 785.07 465.01)"/>
	<use xlink:href="#f" transform="matrix(9.00118 0 0 -9.01095 791.024 463.148)"/>
	<use xlink:href="#r" transform="matrix(9.00118 0 0 -9.01095 793.135 463.262)"/>
	<use xlink:href="#i" transform="matrix(9.00118 0 0 -9.01095 798.034 463.148)"/>
	<use xlink:href="#T" transform="matrix(9.00118 0 0 -9.01095 801.707 463.267)"/>
	<use xlink:href="#P" transform="matrix(9.00118 0 0 -9.01095 808.298 463.148)"/>
	<use xlink:href="#k" transform="matrix(9.00118 0 0 -9.01095 813.64 463.284)"/>
	<use xlink:href="#o" transform="matrix(9.00118 0 0 -9.01095 819.405 463.148)"/>
	<use xlink:href="#y" transform="matrix(9.00118 0 0 -9.01095 824.765 465.01)"/>
	<use xlink:href="#r" transform="matrix(9.00118 0 0 -9.01095 830.364 463.262)"/>
	<symbol id="U">
		<path d="M.595.418A.592.592 0 0 0 .57.248a.324.324 0 0 0-.2-.22A.507.507 0 0 0 .194 0 .754.754 0 0 0 .06.012v.143h.02A.28.28 0 0 1 .195.133c.024 0 .05.003.074.01a.174.174 0 0 1 .11.084C.392.25.4.276.405.307a.502.502 0 0 0-.08-.038.311.311 0 0 0-.169-.003.21.21 0 0 0-.133.107.263.263 0 0 0-.023.12c0 .077.027.14.081.19.054.048.126.073.213.073a.367.367 0 0 0 .12-.018.237.237 0 0 0 .091-.054.262.262 0 0 0 .067-.107.487.487 0 0 0 .023-.159M.408.446a.34.34 0 0 1-.012.097.143.143 0 0 1-.031.06.082.082 0 0 1-.033.022.112.112 0 0 1-.076 0A.094.094 0 0 1 .223.603.12.12 0 0 1 .198.562.177.177 0 0 1 .19.502c0-.023.003-.043.01-.058A.092.092 0 0 1 .228.407.103.103 0 0 1 .268.39a.227.227 0 0 1 .098 0A.26.26 0 0 1 .406.4v.016l.002.03z"/>
	</symbol>
	<use xlink:href="#C" transform="matrix(9.00118 0 0 -9.01095 570.304 463.478)"/>
	<use xlink:href="#U" transform="matrix(9.00118 0 0 -9.01095 577.533 463.606)"/>
	<use xlink:href="#E" transform="matrix(9.00118 0 0 -9.01095 584.28 463.478)"/>
	<use xlink:href="#G" transform="matrix(9.00118 0 0 -9.01095 587.538 463.478)"/>
	<use xlink:href="#O" transform="matrix(9.00118 0 0 -9.01095 597.947 315.291)"/>
	<use xlink:href="#f" transform="matrix(9.00118 0 0 -9.01095 604.337 315.172)"/>
	<use xlink:href="#B" transform="matrix(9.00118 0 0 -9.01095 606.75 315.172)"/>
	<use xlink:href="#y" transform="matrix(9.00118 0 0 -9.01095 608.922 317.033)"/>
	<use xlink:href="#P" transform="matrix(9.00118 0 0 -9.01095 614.869 315.172)"/>
	<use xlink:href="#l" transform="matrix(9.00118 0 0 -9.01095 620.026 315.27)"/>
	<use xlink:href="#f" transform="matrix(9.00118 0 0 -9.01095 624.121 315.172)"/>
	<use xlink:href="#M" transform="matrix(9.00118 0 0 -9.01095 626.034 316.985)"/>
	<use xlink:href="#i" transform="matrix(9.00118 0 0 -9.01095 631.095 315.172)"/>
	<use xlink:href="#Q" transform="matrix(9.00118 0 0 -9.01095 634.263 315.172)"/>
	<use xlink:href="#v" transform="matrix(9.00118 0 0 -9.01095 639.304 315.172)"/>
	<use xlink:href="#r" transform="matrix(9.00118 0 0 -9.01095 646.754 315.287)"/>
	<use xlink:href="#k" transform="matrix(9.00118 0 0 -9.01095 652.11 315.309)"/>
	<use xlink:href="#R" transform="matrix(9.00118 0 0 -9.01095 657.911 315.172)"/>
	<use xlink:href="#r" transform="matrix(9.00118 0 0 -9.01095 662.777 315.287)"/>
	<use xlink:href="#s" transform="matrix(9.00118 0 0 -9.01095 668.15 315.309)"/>
	<use xlink:href="#i" transform="matrix(9.00118 0 0 -9.01095 673.283 315.172)"/>
	<use xlink:href="#e" transform="matrix(9.00118 0 0 -9.01095 677.33 315.172)"/>
	<use xlink:href="#f" transform="matrix(9.00118 0 0 -9.01095 683.448 315.172)"/>
	<use xlink:href="#g" transform="matrix(9.00118 0 0 -9.01095 685.558 315.309)"/>
	<use xlink:href="#h" transform="matrix(9.00118 0 0 -9.01095 691.37 315.309)"/>
	<use xlink:href="#i" transform="matrix(9.00118 0 0 -9.01095 696.164 315.172)"/>
	<use xlink:href="#z" transform="matrix(9.00118 0 0 -9.01095 699.838 315.309)"/>
	<use xlink:href="#A" transform="matrix(9.00118 0 0 -9.01095 707.194 315.309)"/>
	<use xlink:href="#l" transform="matrix(9.00118 0 0 -9.01095 712.387 315.27)"/>
	<use xlink:href="#f" transform="matrix(9.00118 0 0 -9.01095 716.482 315.172)"/>
	<use xlink:href="#B" transform="matrix(9.00118 0 0 -9.01095 718.896 315.172)"/>
	<use xlink:href="#o" transform="matrix(9.00118 0 0 -9.01095 721.406 315.172)"/>
	<use xlink:href="#r" transform="matrix(9.00118 0 0 -9.01095 726.757 315.287)"/>
	<use xlink:href="#i" transform="matrix(9.00118 0 0 -9.01095 731.656 315.172)"/>
	<use xlink:href="#p" transform="matrix(9.00118 0 0 -9.01095 735.496 312.704)"/>
	<use xlink:href="#i" transform="matrix(9.00118 0 0 -9.01095 738.91 315.172)"/>
	<use xlink:href="#O" transform="matrix(9.00118 0 0 -9.01095 742.668 315.291)"/>
	<use xlink:href="#f" transform="matrix(9.00118 0 0 -9.01095 749.058 315.172)"/>
	<use xlink:href="#B" transform="matrix(9.00118 0 0 -9.01095 751.471 315.172)"/>
	<use xlink:href="#y" transform="matrix(9.00118 0 0 -9.01095 753.643 317.033)"/>
	<use xlink:href="#P" transform="matrix(9.00118 0 0 -9.01095 759.59 315.172)"/>
	<use xlink:href="#l" transform="matrix(9.00118 0 0 -9.01095 764.746 315.27)"/>
	<use xlink:href="#i" transform="matrix(9.00118 0 0 -9.01095 768.02 315.172)"/>
	<use xlink:href="#x" transform="matrix(9.00118 0 0 -9.01095 771.303 315.172)"/>
	<use xlink:href="#o" transform="matrix(9.00118 0 0 -9.01095 778.159 315.172)"/>
	<use xlink:href="#y" transform="matrix(9.00118 0 0 -9.01095 783.518 317.033)"/>
	<use xlink:href="#f" transform="matrix(9.00118 0 0 -9.01095 789.473 315.172)"/>
	<use xlink:href="#r" transform="matrix(9.00118 0 0 -9.01095 791.583 315.287)"/>
	<use xlink:href="#i" transform="matrix(9.00118 0 0 -9.01095 796.482 315.172)"/>
	<use xlink:href="#T" transform="matrix(9.00118 0 0 -9.01095 800.156 315.291)"/>
	<use xlink:href="#P" transform="matrix(9.00118 0 0 -9.01095 806.746 315.172)"/>
	<use xlink:href="#k" transform="matrix(9.00118 0 0 -9.01095 812.088 315.309)"/>
	<use xlink:href="#o" transform="matrix(9.00118 0 0 -9.01095 817.854 315.172)"/>
	<use xlink:href="#y" transform="matrix(9.00118 0 0 -9.01095 823.213 317.033)"/>
	<use xlink:href="#r" transform="matrix(9.00118 0 0 -9.01095 828.812 315.287)"/>
	<use xlink:href="#C" transform="matrix(9.00118 0 0 -9.01095 568.893 315.197)"/>
	<use xlink:href="#U" transform="matrix(9.00118 0 0 -9.01095 576.122 315.324)"/>
	<use xlink:href="#E" transform="matrix(9.00118 0 0 -9.01095 582.869 315.197)"/>
	<use xlink:href="#F" transform="matrix(9.00118 0 0 -9.01095 586.483 315.197)"/>
	<use xlink:href="#a" transform="matrix(40.0052 0 0 -40.04865 673.976 236.59)"/>
	<use xlink:href="#b" transform="matrix(40.0052 0 0 -40.04865 698.82 236.59)"/>
	<use xlink:href="#c" transform="matrix(40.0052 0 0 -40.04865 723.302 236.59)"/>
	<use xlink:href="#d" transform="matrix(40.0052 0 0 -40.04865 747.145 237.15)"/>
	<use xlink:href="#a" transform="matrix(40.0052 0 0 -40.04865 674.015 90.828)"/>
	<use xlink:href="#b" transform="matrix(40.0052 0 0 -40.04865 698.859 90.828)"/>
	<use xlink:href="#c" transform="matrix(40.0052 0 0 -40.04865 723.342 90.828)"/>
	<use xlink:href="#d" transform="matrix(40.0052 0 0 -40.04865 747.185 91.388)"/>
	<path d="m651.977 66.211 1.464-1.395 6.817 8.024.125 3.637" fill="#a681ea"/>
	<path d="m646.015 60.117-5.121 33.414 19.715-15.386zm0 0" fill="#999"/>
	<path transform="scale(.99891 1)" stroke-width="1.397" stroke-linecap="square" stroke-linejoin="round" fill="none"
	      stroke="#3b3b3b" d="m646.717 60.117-5.127 33.414 19.737-15.386zm0 0"/>
	<path d="M653.719 65.133c-.008-.02 2.25-2.231 3.535-3.383l2.492-2.238.059.605c.16 1.59.406 13.145.406 13.145-.219-.18-6.492-8.129-6.492-8.129zm0 0"
	      fill="#2cdd97"/>
	<path transform="scale(.99891 1)" stroke-width="1.397" stroke-linecap="square" stroke-linejoin="round" fill="none"
	      stroke="#3b3b3b" d="m652.157 66.336 8.857-8.238.281 14.187.114 5.723zm0 0"/>
	<path d="m642.433 83.504-13.004-.391 11.465 10.254zm0 0" fill="#666"/>
	<path transform="scale(.99891 1)" stroke-width="1.397" stroke-linecap="square" stroke-linejoin="round" fill="none"
	      stroke="#3b3b3b" d="m643.131 83.504-13.018-.391 11.477 10.254zm0 0"/>
	<path d="m630.457 56.164-.465 3.09" fill="#4d4d4d"/>
	<path transform="scale(.99891 1)" stroke-width="1.397" stroke-linecap="square" stroke-linejoin="round" fill="none"
	      stroke="#666" d="m631.142 56.164-.466 3.09"/>
	<path d="m635.602 57.543-1.172 7.406" fill="#4d4d4d"/>
	<path transform="scale(.99891 1)" stroke-width="1.397" stroke-linecap="square" stroke-linejoin="round" fill="none"
	      stroke="#666" d="m636.292 57.543-1.173 7.406"/>
	<path d="m638.484 58.469-1.555 9.711" fill="#4d4d4d"/>
	<path transform="scale(.99891 1)" stroke-width="1.397" stroke-linecap="square" stroke-linejoin="round" fill="none"
	      stroke="#666" d="m639.178 58.469-1.557 9.711"/>
	<path d="M660.863 63.418c0-.887-.051-2.273-.023-2.781l.066-1.309 1.641.867 1.703 1.157-.289 1.394-.176 1.504-1.125.41-1.793.699zm0 0"
	      fill="#2cdd97"/>
	<path d="M628.059 57.062c-.657-.8-1.286-1.648-1.27-1.664.035-.035 2.899.754 2.965.817.039.035-.336 2.371-.32 2.445.031.176-.719-.797-1.375-1.598zm0 0"
	      fill="#666"/>
	<path transform="scale(.99891 1)" stroke-width="1.397" stroke-linecap="square" stroke-linejoin="round" fill="none"
	      stroke="#3b3b3b" d="m644.144 76.809 2.569-16.704-21.183-5.984zm0 0"/>
	<path transform="scale(.99891 1)" stroke-width="1.516" stroke-linecap="square" stroke-linejoin="round" fill="none"
	      stroke="#ffd944" d="m666.027 63.758-1.005-2.375.063 2.758 1.583-1.098"/>
	<path transform="scale(.99891 1)" stroke-width="1.397" stroke-linecap="square" stroke-linejoin="round" fill="none"
	      stroke="#3b3b3b" d="m661.014 58.094.156 7.929 6.996-2.953zm0 0"/>
	<path d="M640.367 71.848c-1.429-1.743-2.625-3.215-2.66-3.274-.059-.094 1.402-9.531 1.481-9.59.019-.015 1.347.348 2.96.809 2.012.57 2.934.875 2.954.973.019.097-1.821 12.371-2.118 14.109-.011.074-1.191-1.285-2.617-3.027zM635.719 66.176l-.602-.727.555-3.574c.305-1.965.586-3.609.625-3.652.035-.043.375.011.754.125.613.183.676.222.633.414-.028.117-.329 1.984-.676 4.148-.344 2.164-.641 3.949-.656 3.965-.016.016-.301-.297-.633-.699zM632.609 62.426a6350.19 6350.19 0 0 1-1.613-1.977l-.375-.457.246-1.64c.137-.903.258-1.649.27-1.664.043-.04 3.687 1.011 3.687 1.062 0 .043-.926 5.949-.961 6.121-.008.039-.57-.613-1.254-1.445zm0 0"
	      fill="#ccc"/>
	<path d="m645.816 206.891-5.125 33.41 19.715-15.383zm0 0" fill="#999"/>
	<path d="m651.066 213.363 9.032-8.492.277 14.188.039 5.867zm0 0" fill="#2cdd97"/>
	<path d="m651.055 213.375 1.379-1.293 7.968 9.578.02 3.27" fill="#a681ea"/>
	<path d="m642.234 230.277-13.004-.39 11.461 10.254zm0 0" fill="#666"/>
	<path d="m643.246 223.582 2.563-16.703-21.157-5.988zm0 0" fill="#ccc"/>
	<path d="M624.715 200.98c-.031-.039 6.078 1.618 6.144 1.68.039.035-.55 5.188-.593 5.129-1.7-2.195-3.805-4.68-5.551-6.809zm0 0"
	      fill="#666"/>
	<path d="m660.027 204.863.157 7.934 6.988-2.953zm0 0" fill="#1fbe8f"/>
	<path d="m633.531 211.719 1.09 1.355 1.606-8.906-1.368-.391zM637.641 204.59l1.351.336-1.789 11.277-1.164-1.406zm0 0"
	      fill="#666"/>
	<path d="m664.625 207.996.051 2.934 2.617-1.082zm0 0" fill="#f6d244"/>
	<use xlink:href="#a" transform="matrix(40.0052 0 0 -40.04865 675.21 386.441)"/>
	<use xlink:href="#b" transform="matrix(40.0052 0 0 -40.04865 700.053 386.441)"/>
	<use xlink:href="#c" transform="matrix(40.0052 0 0 -40.04865 724.536 386.441)"/>
	<use xlink:href="#d" transform="matrix(40.0052 0 0 -40.04865 748.379 387.002)"/>
	<path d="m628.422 378.489 1.687 6.96 40.293 13.028zm0 0" fill="#0068e0"/>
	<path transform="matrix(.99891 .10725 -.10713 1 0 0)" stroke-width="1.372" fill="none" stroke="#000094"
	      d="m662.082 307.479 2.408 6.702 41.259 8.603zm0 0"/>
	<path d="M640.855 365.422c.602 1.992.196 3.25-2.835 2.91l32.23 30.172c.352.152.394-.094.132-.47zm0 0"
	      fill="#000094"/>
	<path transform="matrix(.99891 .10725 -.10713 1 0 0)" stroke-width="1.372" fill="none" stroke="#000094"
	      d="M673.002 293.241c.807 1.906.538 3.193-2.498 3.178l35.098 26.408c.364.113.38-.135.081-.478zm0 0"/>
	<path d="M638.906 350.993s-1.004 1.073.226 2.491c.914 1.051 2.122.422 2.122.422s1.113-.683.133-2.156c-1.274-1.91-2.48-.757-2.48-.757zm0 0"
	      fill="#1cccfc"/>
	<path transform="matrix(.99891 .10725 -.10713 1 0 0)" stroke-width="1.372" fill="none" stroke="#000094"
	      d="M669.543 279.183s-.88 1.168.488 2.439c1.016.942 2.144.192 2.144.192s1.03-.794-.097-2.146c-1.463-1.753-2.535-.485-2.535-.485zm0 0"/>
	<path d="m670.485 398.637-44.216-20.785s-14.624-9.375-13.422-13.016c1.165-3.523 14.125 3.719 15.47 4.062 1.34.34 2.011-.546 1.995-1.167-.023-.895-2.09-3.48-1.187-4.567.906-1.09 4.246 1.07 4.246 1.07l2.727 1.945zm0 0"
	      fill="#1cccfc"/>
	<path transform="matrix(.99891 .10725 -.10713 1 0 0)" stroke-width="1.372" fill="none" stroke="#000094"
	      d="m705.848 322.933-45.964-15.855s-15.468-7.716-14.664-11.443c.779-3.607 14.374 2.177 15.741 2.374 1.362.194 1.933-.754 1.851-1.366-.118-.882-2.437-3.219-1.659-4.389.781-1.173 4.316.608 4.316.608l2.905 1.633zm0 0"/>
	<path d="m670.644 398.45-30.55-33.716s-5.516-6.222-5.426-7.988c.094-1.766 7.238 3.942 7.238 3.942s.805.777 1.508.656c.703-.125-.145-1.398-.145-1.398s-1.362-2.911-.62-3.422c.745-.512 2.875 1.691 2.875 1.691s.53.551 1.042.407c.508-.141.145-1.364.145-1.364s-4.176-8.84-2.664-9.484c2.312-.98 6.196 6.336 7.489 8.62.324.625 19.108 42.055 19.108 42.055zm0 0"
	      fill="#1cccfc"/>
	<path transform="matrix(.99891 .10725 -.10713 1 0 0)" stroke-width="1.372" fill="none" stroke="#000094"
	      d="m705.986 322.731-33.811-30.089s-6.118-5.566-6.217-7.321c-.094-1.756 7.582 3.128 7.582 3.128s.879.683 1.562.489c.682-.198-.292-1.367-.292-1.367s-1.657-2.733-.977-3.317c.684-.585 3.025 1.367 3.025 1.367s.584.488 1.075.291c.488-.193-.001-1.364-.001-1.364s-5.071-8.296-3.643-9.093c2.185-1.215 6.804 5.606 8.326 7.728.387.583 23.371 39.548 23.371 39.548zm0 0"/>
	<path d="M623.707 356.649s-1.38 1.008.371 2.995c1.606 1.832 2.859.903 2.859.903s1.31-.883-.117-2.578c-1.89-2.246-3.113-1.32-3.113-1.32zm0 0"
	      fill="#1cccfc"/>
	<path transform="matrix(.99891 .10725 -.10713 1 0 0)" stroke-width="1.372" fill="none" stroke="#000094"
	      d="M655.1 286.388s-1.258 1.143.685 2.922c1.783 1.641 2.925.589 2.925.589s1.202-1.012-.389-2.536c-2.109-2.02-3.221-.975-3.221-.975zm0 0"/>
	<use xlink:href="#a" transform="matrix(40.0052 0 0 -40.04865 676.99 527.508)"/>
	<use xlink:href="#b" transform="matrix(40.0052 0 0 -40.04865 701.833 527.508)"/>
	<use xlink:href="#c" transform="matrix(40.0052 0 0 -40.04865 726.317 527.508)"/>
	<use xlink:href="#d" transform="matrix(40.0052 0 0 -40.04865 750.16 528.069)"/>
	<path d="m625.301 519.336 2.703 8.254 42.293 12.062zm0 0" fill="#0068e0"/>
	<path d="M640.066 505.668c.52 2.059-.027 3.367-3.359 3.043l33.422 30.973c.379.152.445-.102.183-.489zm0 0"
	      fill="#000094"/>
	<path d="M639.004 490.723s-1.192 1.125.062 2.582c.93 1.082 2.321.418 2.321.418s1.281-.719.308-2.235c-1.265-1.972-2.691-.765-2.691-.765zM670.379 539.82l-47.414-21.121s-15.492-9.582-13.887-13.367c1.563-3.664 15.371 3.719 16.832 4.059 1.461.343 2.274-.582 2.301-1.227.043-.93-2.051-3.59-.965-4.726 1.082-1.133 4.621 1.074 4.621 1.074l2.871 1.988zm0 0"
	      fill="#1cccfc"/>
	<path d="m670.566 539.621-31.289-34.66s-5.636-6.399-5.402-8.231c.234-1.832 7.719 4.016 7.719 4.016s.832.801 1.621.664c.789-.133-.055-1.445-.055-1.445s-1.293-3.004-.43-3.543c.868-.535 3.059 1.726 3.059 1.726s.547.567 1.121.414c.574-.156.266-1.417.266-1.417s-3.957-9.125-2.231-9.805c2.633-1.043 6.383 6.508 7.641 8.859.316.649 17.98 43.422 17.98 43.422zM621.738 496.734s-1.605 1.063.18 3.106c1.641 1.883 3.102.906 3.102.906s1.515-.926.062-2.672c-1.922-2.308-3.344-1.34-3.344-1.34zm0 0"
	      fill="#1cccfc"/>
	<use xlink:href="#a" transform="matrix(40.0052 0 0 -40.04865 120.07 237.847)"/>
	<use xlink:href="#b" transform="matrix(40.0052 0 0 -40.04865 144.914 237.847)"/>
	<use xlink:href="#c" transform="matrix(40.0052 0 0 -40.04865 169.397 237.847)"/>
	<use xlink:href="#d" transform="matrix(40.0052 0 0 -40.04865 193.24 238.408)"/>
	<use xlink:href="#a" transform="matrix(40.0052 0 0 -40.04865 122.64 93.4)"/>
	<use xlink:href="#b" transform="matrix(40.0052 0 0 -40.04865 147.483 93.4)"/>
	<use xlink:href="#c" transform="matrix(40.0052 0 0 -40.04865 171.966 93.4)"/>
	<use xlink:href="#d" transform="matrix(40.0052 0 0 -40.04865 195.81 93.96)"/>
	<path d="M84.453 81.989c1.945-.735 3.226-.415 3.09 2.636l27.914-34.214c.125-.364-.12-.392-.476-.106zm0 0"
	      fill="#000094"/>
	<path transform="matrix(.03974 -1 .99891 .03978 0 0)" stroke-width="1.378" fill="none" stroke="#000094"
	      d="M-78.501 87.668c.811 1.915.542 3.208-2.509 3.193l35.27 26.541c.368.111.386-.136.087-.48zm0 0"/>
	<path d="M70.203 84.903s1.137.93 2.465-.395c.988-.98.28-2.148.28-2.148s-.752-1.063-2.155.011c-1.82 1.402-.59 2.532-.59 2.532zm0 0"
	      fill="#1cccfc"/>
	<path transform="matrix(.03974 -1 .99891 .03978 0 0)" stroke-width="1.378" fill="none" stroke="#000094"
	      d="M-81.977 73.541s-.883 1.173.492 2.448c1.018.948 2.156.195 2.156.195s1.031-.795-.097-2.154c-1.472-1.764-2.551-.489-2.551-.489zm0 0"/>
	<path d="M115.57 50.164 97.82 95.723s-8.367 15.238-12.07 14.28c-3.594-.929 2.758-14.359 3.008-15.722.25-1.363-.68-1.976-1.297-1.917-.891.081-3.328 2.32-4.473 1.491-1.144-.832.785-4.316.785-4.316l1.754-2.847zm0 0"
	      fill="#1cccfc"/>
	<path transform="matrix(.03974 -1 .99891 .03978 0 0)" stroke-width="1.378" fill="none" stroke="#000094"
	      d="m-45.489 117.506-46.193-15.932s-15.547-7.758-14.738-11.497c.785-3.629 14.446 2.186 15.817 2.382 1.371.195 1.946-.758 1.863-1.373-.117-.887-2.449-3.234-1.667-4.411.785-1.177 4.341.613 4.341.613l2.912 1.64zm0 0"/>
	<path d="M115.371 50.02 83.82 82.793s-5.831 5.925-7.601 5.953c-1.766.032 3.445-7.492 3.445-7.492s.718-.856.55-1.55c-.167-.692-1.382.24-1.382.24s-2.808 1.556-3.367.85c-.559-.712 1.492-2.985 1.492-2.985s.511-.57.336-1.067c-.176-.5-1.371-.055-1.371-.055s-8.532 4.762-9.27 3.298c-1.132-2.243 5.899-6.614 8.086-8.06.602-.366 40.633-21.905 40.633-21.905zm0 0"
	      fill="#1cccfc"/>
	<path transform="matrix(.03974 -1 .99891 .03978 0 0)" stroke-width="1.378" fill="none" stroke="#000094"
	      d="m-45.353 117.301-33.976-30.234s-6.148-5.593-6.246-7.361c-.102-1.764 7.617 3.146 7.617 3.146s.883.684 1.57.489c.684-.195-.296-1.373-.296-1.373s-1.664-2.745-.981-3.331c.688-.587 3.039 1.372 3.039 1.372s.59.489 1.079.294c.492-.196 0-1.373 0-1.373s-5.094-8.338-3.661-9.134c2.194-1.221 6.838 5.633 8.368 7.762.39.587 23.487 39.743 23.487 39.743zm0 0"/>
	<path d="M76.856 99.704s1.101 1.307 2.964-.571c1.715-1.727.707-2.918.707-2.918s-.965-1.25-2.563.293c-2.109 2.035-1.108 3.196-1.108 3.196zm0 0"
	      fill="#1cccfc"/>
	<path transform="matrix(.03974 -1 .99891 .03978 0 0)" stroke-width="1.378" fill="none" stroke="#000094"
	      d="M-96.49 80.778s-1.262 1.153.688 2.94c1.792 1.646 2.941.591 2.941.591s1.21-1.014-.394-2.55c-2.116-2.027-3.235-.981-3.235-.981zm0 0"/>
	<path d="M81.402 227.273c2.016-.804 3.364-.496 3.282 2.692l28.496-36.301c.125-.379-.129-.402-.5-.098zm0 0"
	      fill="#000094"/>
	<path d="M66.566 230.598s1.207.949 2.571-.457c1.011-1.047.25-2.254.25-2.254s-.809-1.098-2.254.054c-1.875 1.5-.567 2.657-.567 2.657zM113.297 193.41l-17.656 47.953s-8.45 16.09-12.34 15.16c-3.77-.898 2.601-15.058 2.84-16.488.234-1.43-.75-2.051-1.395-1.976-.93.101-3.434 2.488-4.644 1.644-1.211-.848.734-4.523.734-4.523l1.781-3.012zm0 0"
	      fill="#1cccfc"/>
	<path d="m113.086 193.262-32.332 34.867s-5.981 6.305-7.824 6.371c-1.844.062 3.453-7.902 3.453-7.902s.734-.907.547-1.629c-.192-.723-1.442.277-1.442.277s-2.902 1.684-3.504.953c-.597-.73 1.5-3.148 1.5-3.148s.528-.606.332-1.121c-.195-.516-1.433-.032-1.433-.032s-8.821 5.149-9.625 3.629c-1.227-2.32 6.035-7.027 8.293-8.578.625-.398 42.035-23.687 42.035-23.687zM73.809 245.934s1.175 1.347 3.086-.653c1.761-1.84.679-3.062.679-3.062s-1.031-1.285-2.672.355c-2.164 2.168-1.093 3.36-1.093 3.36zm0 0"
	      fill="#1cccfc"/>
	<path transform="scale(.99891 1)" stroke-width="1.419" stroke-linecap="round" stroke-linejoin="bevel" fill="none"
	      stroke="#ff3ad0" d="M281.97 2.266v592.925M562.61 2.266v592.925"/>
	<path transform="scale(.99891 1)" stroke-width="1.419" stroke-linecap="round" stroke-linejoin="bevel" fill="none"
	      stroke="#000" d="M.36 298h842.816"/>
	<path transform="scale(.99891 1)" stroke-width="1.419" stroke-linecap="round" stroke-dasharray="1.419045,4.257143"
	      stroke-linejoin="bevel" fill="none" stroke="#ff3ad0" d="M.047 150.445h842.82M.047 445.555h842.82"/>
	<symbol id="V">
		<path d="M.796 0H.704v.31a.653.653 0 0 1-.003.068.14.14 0 0 1-.013.053.074.074 0 0 1-.033.031.17.17 0 0 1-.138-.009A.46.46 0 0 1 .44.406.412.412 0 0 0 .444.349V0H.352v.31A.649.649 0 0 1 .35.38.14.14 0 0 1 .335.43a.071.071 0 0 1-.032.031.172.172 0 0 1-.136-.008.456.456 0 0 1-.075-.047V0H0v.545h.092v-.06A.406.406 0 0 0 .177.54.214.214 0 0 0 .363.537.144.144 0 0 0 .42.472.446.446 0 0 0 .522.54c.031.014.064.02.099.02C.68.56.725.543.753.507A.239.239 0 0 0 .796.354V0z"/>
	</symbol>
	<symbol id="W">
		<path d="M.476.507a.234.234 0 0 0-.064-.16.244.244 0 0 0-.09-.057A.385.385 0 0 0 .194.27H.097V0H0v.727h.197c.044 0 .08-.004.111-.011a.246.246 0 0 0 .08-.034.194.194 0 0 0 .065-.07.215.215 0 0 0 .023-.105M.375.505A.151.151 0 0 1 .362.57a.11.11 0 0 1-.04.046.158.158 0 0 1-.054.021.347.347 0 0 1-.076.007H.097v-.29h.081c.04 0 .071.003.095.01a.137.137 0 0 1 .102.14z"/>
	</symbol>
	<symbol id="X">
		<path d="M.648.068A.938.938 0 0 0 .518.02a.497.497 0 0 0-.292.003.32.32 0 0 0-.121.07.316.316 0 0 0-.078.119A.464.464 0 0 0 0 .378a.37.37 0 0 0 .102.275.38.38 0 0 0 .28.101A.552.552 0 0 0 .507.74a.67.67 0 0 0 .14-.05V.574h-.01a.766.766 0 0 1-.1.063.408.408 0 0 1-.173.035A.248.248 0 0 1 .17.593a.304.304 0 0 1-.07-.212C.1.287.125.214.175.161A.266.266 0 0 1 .377.084a.474.474 0 0 1 .175.034v.178H.357V.38h.29V.068z"/>
	</symbol>
	<use xlink:href="#z" transform="matrix(9.00118 0 0 -9.01095 607.614 169.742)"/>
	<use xlink:href="#w" transform="matrix(9.00118 0 0 -9.01095 615.005 169.606)"/>
	<use xlink:href="#B" transform="matrix(9.00118 0 0 -9.01095 618.805 169.606)"/>
	<use xlink:href="#y" transform="matrix(9.00118 0 0 -9.01095 620.977 171.467)"/>
	<use xlink:href="#k" transform="matrix(9.00118 0 0 -9.01095 626.567 169.742)"/>
	<use xlink:href="#V" transform="matrix(9.00118 0 0 -9.01095 632.332 169.606)"/>
	<use xlink:href="#B" transform="matrix(9.00118 0 0 -9.01095 641.047 169.606)"/>
	<use xlink:href="#i" transform="matrix(9.00118 0 0 -9.01095 642.744 169.606)"/>
	<use xlink:href="#W" transform="matrix(9.00118 0 0 -9.01095 646.791 169.606)"/>
	<use xlink:href="#B" transform="matrix(9.00118 0 0 -9.01095 652.11 169.606)"/>
	<use xlink:href="#y" transform="matrix(9.00118 0 0 -9.01095 654.281 171.467)"/>
	<use xlink:href="#r" transform="matrix(9.00118 0 0 -9.01095 659.88 169.72)"/>
	<use xlink:href="#g" transform="matrix(9.00118 0 0 -9.01095 665.245 169.742)"/>
	<use xlink:href="#o" transform="matrix(9.00118 0 0 -9.01095 671.056 169.606)"/>
	<use xlink:href="#i" transform="matrix(9.00118 0 0 -9.01095 675.94 169.606)"/>
	<use xlink:href="#j" transform="matrix(9.00118 0 0 -9.01095 679.988 169.606)"/>
	<use xlink:href="#f" transform="matrix(9.00118 0 0 -9.01095 685.106 169.606)"/>
	<use xlink:href="#k" transform="matrix(9.00118 0 0 -9.01095 687.208 169.742)"/>
	<use xlink:href="#l" transform="matrix(9.00118 0 0 -9.01095 692.433 169.702)"/>
	<use xlink:href="#i" transform="matrix(9.00118 0 0 -9.01095 695.707 169.606)"/>
	<use xlink:href="#p" transform="matrix(9.00118 0 0 -9.01095 699.548 167.137)"/>
	<use xlink:href="#i" transform="matrix(9.00118 0 0 -9.01095 702.962 169.606)"/>
	<use xlink:href="#X" transform="matrix(9.00118 0 0 -9.01095 706.635 169.733)"/>
	<use xlink:href="#w" transform="matrix(9.00118 0 0 -9.01095 713.92 169.606)"/>
	<use xlink:href="#r" transform="matrix(9.00118 0 0 -9.01095 717.415 169.72)"/>
	<use xlink:href="#r" transform="matrix(9.00118 0 0 -9.01095 722.78 169.72)"/>
	<use xlink:href="#o" transform="matrix(9.00118 0 0 -9.01095 728.492 169.606)"/>
	<use xlink:href="#i" transform="matrix(9.00118 0 0 -9.01095 733.377 169.606)"/>
	<use xlink:href="#H" transform="matrix(9.00118 0 0 -9.01095 737.468 169.487)"/>
	<use xlink:href="#i" transform="matrix(9.00118 0 0 -9.01095 743.908 169.606)"/>
	<use xlink:href="#W" transform="matrix(9.00118 0 0 -9.01095 747.955 169.606)"/>
	<use xlink:href="#A" transform="matrix(9.00118 0 0 -9.01095 753.282 169.742)"/>
	<use xlink:href="#w" transform="matrix(9.00118 0 0 -9.01095 759.015 169.606)"/>
	<use xlink:href="#u" transform="matrix(9.00118 0 0 -9.01095 762.858 171.418)"/>
	<use xlink:href="#f" transform="matrix(9.00118 0 0 -9.01095 768.475 169.606)"/>
	<use xlink:href="#r" transform="matrix(9.00118 0 0 -9.01095 770.585 169.72)"/>
	<use xlink:href="#i" transform="matrix(9.00118 0 0 -9.01095 775.484 169.606)"/>
	<use xlink:href="#e" transform="matrix(9.00118 0 0 -9.01095 779.532 169.606)"/>
	<use xlink:href="#w" transform="matrix(9.00118 0 0 -9.01095 785.64 169.606)"/>
	<use xlink:href="#B" transform="matrix(9.00118 0 0 -9.01095 789.44 169.606)"/>
	<use xlink:href="#y" transform="matrix(9.00118 0 0 -9.01095 791.612 171.467)"/>
	<use xlink:href="#P" transform="matrix(9.00118 0 0 -9.01095 797.558 169.606)"/>
	<use xlink:href="#l" transform="matrix(9.00118 0 0 -9.01095 802.715 169.702)"/>
	<use xlink:href="#r" transform="matrix(9.00118 0 0 -9.01095 806.455 169.72)"/>
	<use xlink:href="#o" transform="matrix(9.00118 0 0 -9.01095 812.167 169.606)"/>
	<use xlink:href="#r" transform="matrix(9.00118 0 0 -9.01095 817.517 169.72)"/>
	<use xlink:href="#s" transform="matrix(9.00118 0 0 -9.01095 822.89 169.742)"/>
	<use xlink:href="#i" transform="matrix(9.00118 0 0 -9.01095 828.024 169.606)"/>
	<use xlink:href="#z" transform="matrix(9.00118 0 0 -9.01095 598.848 18.451)"/>
	<use xlink:href="#w" transform="matrix(9.00118 0 0 -9.01095 606.24 18.315)"/>
	<use xlink:href="#B" transform="matrix(9.00118 0 0 -9.01095 610.04 18.315)"/>
	<use xlink:href="#y" transform="matrix(9.00118 0 0 -9.01095 612.211 20.176)"/>
	<use xlink:href="#k" transform="matrix(9.00118 0 0 -9.01095 617.801 18.451)"/>
	<use xlink:href="#V" transform="matrix(9.00118 0 0 -9.01095 623.567 18.315)"/>
	<use xlink:href="#B" transform="matrix(9.00118 0 0 -9.01095 632.281 18.315)"/>
	<use xlink:href="#i" transform="matrix(9.00118 0 0 -9.01095 633.978 18.315)"/>
	<use xlink:href="#W" transform="matrix(9.00118 0 0 -9.01095 638.026 18.315)"/>
	<use xlink:href="#B" transform="matrix(9.00118 0 0 -9.01095 643.343 18.315)"/>
	<use xlink:href="#y" transform="matrix(9.00118 0 0 -9.01095 645.515 20.176)"/>
	<use xlink:href="#r" transform="matrix(9.00118 0 0 -9.01095 651.114 18.43)"/>
	<use xlink:href="#g" transform="matrix(9.00118 0 0 -9.01095 656.479 18.451)"/>
	<use xlink:href="#o" transform="matrix(9.00118 0 0 -9.01095 662.29 18.315)"/>
	<use xlink:href="#i" transform="matrix(9.00118 0 0 -9.01095 667.175 18.315)"/>
	<use xlink:href="#z" transform="matrix(9.00118 0 0 -9.01095 670.848 18.451)"/>
	<use xlink:href="#A" transform="matrix(9.00118 0 0 -9.01095 678.205 18.451)"/>
	<use xlink:href="#l" transform="matrix(9.00118 0 0 -9.01095 683.397 18.412)"/>
	<use xlink:href="#f" transform="matrix(9.00118 0 0 -9.01095 687.493 18.315)"/>
	<use xlink:href="#B" transform="matrix(9.00118 0 0 -9.01095 689.907 18.315)"/>
	<use xlink:href="#o" transform="matrix(9.00118 0 0 -9.01095 692.417 18.315)"/>
	<use xlink:href="#r" transform="matrix(9.00118 0 0 -9.01095 697.767 18.43)"/>
	<use xlink:href="#i" transform="matrix(9.00118 0 0 -9.01095 702.666 18.315)"/>
	<use xlink:href="#p" transform="matrix(9.00118 0 0 -9.01095 706.507 15.847)"/>
	<use xlink:href="#i" transform="matrix(9.00118 0 0 -9.01095 709.921 18.315)"/>
	<use xlink:href="#X" transform="matrix(9.00118 0 0 -9.01095 713.595 18.443)"/>
	<use xlink:href="#w" transform="matrix(9.00118 0 0 -9.01095 720.879 18.315)"/>
	<use xlink:href="#r" transform="matrix(9.00118 0 0 -9.01095 724.375 18.43)"/>
	<use xlink:href="#r" transform="matrix(9.00118 0 0 -9.01095 729.74 18.43)"/>
	<use xlink:href="#o" transform="matrix(9.00118 0 0 -9.01095 735.451 18.315)"/>
	<use xlink:href="#i" transform="matrix(9.00118 0 0 -9.01095 740.336 18.315)"/>
	<use xlink:href="#H" transform="matrix(9.00118 0 0 -9.01095 744.427 18.196)"/>
	<use xlink:href="#i" transform="matrix(9.00118 0 0 -9.01095 750.867 18.315)"/>
	<use xlink:href="#W" transform="matrix(9.00118 0 0 -9.01095 754.915 18.315)"/>
	<use xlink:href="#A" transform="matrix(9.00118 0 0 -9.01095 760.241 18.451)"/>
	<use xlink:href="#w" transform="matrix(9.00118 0 0 -9.01095 765.974 18.315)"/>
	<use xlink:href="#u" transform="matrix(9.00118 0 0 -9.01095 769.818 20.128)"/>
	<use xlink:href="#f" transform="matrix(9.00118 0 0 -9.01095 775.434 18.315)"/>
	<use xlink:href="#r" transform="matrix(9.00118 0 0 -9.01095 777.545 18.43)"/>
	<use xlink:href="#i" transform="matrix(9.00118 0 0 -9.01095 782.443 18.315)"/>
	<use xlink:href="#e" transform="matrix(9.00118 0 0 -9.01095 786.49 18.315)"/>
	<use xlink:href="#w" transform="matrix(9.00118 0 0 -9.01095 792.6 18.315)"/>
	<use xlink:href="#B" transform="matrix(9.00118 0 0 -9.01095 796.4 18.315)"/>
	<use xlink:href="#y" transform="matrix(9.00118 0 0 -9.01095 798.571 20.176)"/>
	<use xlink:href="#P" transform="matrix(9.00118 0 0 -9.01095 804.517 18.315)"/>
	<use xlink:href="#l" transform="matrix(9.00118 0 0 -9.01095 809.674 18.412)"/>
	<use xlink:href="#r" transform="matrix(9.00118 0 0 -9.01095 813.414 18.43)"/>
	<use xlink:href="#o" transform="matrix(9.00118 0 0 -9.01095 819.126 18.315)"/>
	<use xlink:href="#r" transform="matrix(9.00118 0 0 -9.01095 824.477 18.43)"/>
	<use xlink:href="#s" transform="matrix(9.00118 0 0 -9.01095 829.85 18.451)"/>
	<use xlink:href="#i" transform="matrix(9.00118 0 0 -9.01095 834.983 18.315)"/>
</svg>
