<?xml version="1.0" encoding="UTF-8" standalone="no"?>
<svg
   width="842pt"
   height="596pt"
   viewBox="0 0 842 596"
   version="1.1"
   id="svg831"
   sodipodi:docname="Apache-Avro-Logo-v9.2.svg"
   inkscape:version="1.3 (0e150ed, 2023-07-21)"
   xmlns:inkscape="http://www.inkscape.org/namespaces/inkscape"
   xmlns:sodipodi="http://sodipodi.sourceforge.net/DTD/sodipodi-0.dtd"
   xmlns="http://www.w3.org/2000/svg"
   xmlns:svg="http://www.w3.org/2000/svg">
  <defs
     id="defs831" />
  <sodipodi:namedview
     id="namedview831"
     pagecolor="#ffffff"
     bordercolor="#000000"
     borderopacity="0.25"
     inkscape:showpageshadow="2"
     inkscape:pageopacity="0.0"
     inkscape:pagecheckerboard="0"
     inkscape:deskcolor="#d1d1d1"
     inkscape:document-units="pt"
     inkscape:zoom="0.71704276"
     inkscape:cx="847.22981"
     inkscape:cy="511.82443"
     inkscape:window-width="1392"
     inkscape:window-height="1051"
     inkscape:window-x="0"
     inkscape:window-y="472"
     inkscape:window-maximized="0"
     inkscape:current-layer="svg831" />
  <g
     id="use547"
     transform="matrix(9.00118,0,0,-9.01095,615.224,463.267)">
    <path
       d="M 0.56,0.22 A 0.192,0.192 0 0 0 0.54,0.138 0.197,0.197 0 0 0 0.485,0.068 0.295,0.295 0 0 0 0.394,0.018 0.391,0.391 0 0 0 0.269,0 0.627,0.627 0 0 0 0,0.058 V 0.18 H 0.007 A 0.402,0.402 0 0 1 0.134,0.11 0.418,0.418 0 0 1 0.27,0.082 c 0.06,0 0.106,0.012 0.14,0.034 0.033,0.023 0.05,0.053 0.05,0.09 0,0.033 -0.008,0.057 -0.024,0.072 A 0.16,0.16 0 0 1 0.364,0.314 0.715,0.715 0 0 1 0.284,0.33 l -0.09,0.016 a 0.27,0.27 0 0 0 -0.143,0.07 0.182,0.182 0 0 0 -0.047,0.13 c 0,0.06 0.026,0.11 0.078,0.149 0.051,0.039 0.116,0.058 0.195,0.058 A 0.63,0.63 0 0 0 0.531,0.703 V 0.588 H 0.524 A 0.418,0.418 0 0 1 0.276,0.67 0.218,0.218 0 0 1 0.153,0.638 0.097,0.097 0 0 1 0.105,0.555 C 0.105,0.525 0.113,0.5 0.128,0.483 A 0.159,0.159 0 0 1 0.211,0.443 L 0.3,0.428 A 1.23,1.23 0 0 0 0.397,0.408 0.253,0.253 0 0 0 0.52,0.342 0.17,0.17 0 0 0 0.56,0.221 Z"
       id="path1501" />
  </g>
  <g
     id="use548"
     transform="matrix(9.00118,0,0,-9.01095,621.614,463.148)">
    <path
       d="M 0.092,0 H 0 v 0.76 h 0.092 z"
       id="path933" />
  </g>
  <g
     id="use549"
     transform="matrix(9.00118,0,0,-9.01095,624.027,463.148)">
    <path
       d="M 0.104,0.637 H 0 V 0.732 H 0.104 V 0.637 M 0.098,0 H 0.006 v 0.545 h 0.092 z"
       id="path1416" />
  </g>
  <g
     id="use550"
     transform="matrix(9.00118,0,0,-9.01095,626.199,465.01)">
    <path
       d="M 0.48,0.269 C 0.48,0.176 0.459,0.109 0.417,0.065 0.375,0.022 0.31,0 0.223,0 A 0.561,0.561 0 0 0 0.057,0.023 V 0.117 H 0.062 A 0.695,0.695 0 0 1 0.133,0.096 0.373,0.373 0 0 1 0.231,0.083 c 0.031,0 0.057,0.003 0.078,0.01 a 0.112,0.112 0 0 1 0.071,0.079 0.228,0.228 0 0 1 0.007,0.06 v 0.05 a 0.36,0.36 0 0 0 -0.08,-0.05 0.246,0.246 0 0 0 -0.096,-0.016 0.19,0.19 0 0 0 -0.155,0.07 0.31,0.31 0 0 0 -0.057,0.2 c 0,0.046 0.007,0.087 0.02,0.12 A 0.278,0.278 0 0 0 0.073,0.695 0.217,0.217 0 0 0 0.15,0.749 c 0.03,0.013 0.06,0.02 0.09,0.02 A 0.273,0.273 0 0 0 0.387,0.729 L 0.393,0.753 H 0.48 V 0.269 M 0.388,0.356 v 0.298 a 0.341,0.341 0 0 1 -0.13,0.03 0.149,0.149 0 0 1 -0.12,-0.05 C 0.11,0.6 0.095,0.55 0.095,0.486 0.095,0.426 0.105,0.379 0.127,0.347 0.148,0.316 0.184,0.3 0.234,0.3 c 0.026,0 0.053,0.005 0.08,0.015 0.027,0.01 0.052,0.024 0.074,0.041 z"
       id="path1362" />
  </g>
  <g
     id="use551"
     transform="matrix(9.00118,0,0,-9.01095,632.145,463.148)">
    <path
       d="M 0.456,0 H 0.364 V 0.31 A 0.53,0.53 0 0 1 0.36,0.38 0.13,0.13 0 0 1 0.344,0.433 0.073,0.073 0 0 1 0.309,0.463 0.147,0.147 0 0 1 0.249,0.473 0.19,0.19 0 0 1 0.17,0.455 0.4,0.4 0 0 1 0.092,0.407 V 0 H 0 V 0.76 H 0.092 V 0.485 A 0.373,0.373 0 0 0 0.18,0.54 C 0.21,0.553 0.242,0.56 0.274,0.56 0.334,0.56 0.379,0.543 0.41,0.507 0.44,0.472 0.456,0.421 0.456,0.354 Z"
       id="path1507" />
  </g>
  <g
     id="use552"
     transform="matrix(9.00118,0,0,-9.01095,637.302,463.245)">
    <path
       d="M 0.343,0.016 A 0.498,0.498 0 0 0 0.233,0 C 0.176,0 0.133,0.015 0.104,0.045 0.076,0.075 0.062,0.123 0.062,0.189 v 0.29 H 0 V 0.556 H 0.062 V 0.713 H 0.154 V 0.556 h 0.19 V 0.48 H 0.154 V 0.23 c 0,-0.028 0,-0.05 0.002,-0.067 A 0.11,0.11 0 0 1 0.169,0.118 0.068,0.068 0 0 1 0.2,0.09 0.186,0.186 0 0 1 0.303,0.087 0.359,0.359 0 0 1 0.338,0.098 h 0.005 z"
       id="path1154" />
  </g>
  <g
     id="use553"
     transform="matrix(9.00118,0,0,-9.01095,641.398,463.148)">
    <path
       d="M 0.092,0 H 0 v 0.76 h 0.092 z"
       id="path934" />
  </g>
  <g
     id="use554"
     transform="matrix(9.00118,0,0,-9.01095,643.31,464.96)">
    <path
       d="M 0.532,0.747 0.214,0 H 0.116 L 0.217,0.228 0,0.747 H 0.1 L 0.267,0.342 0.436,0.747 Z"
       id="path1494" />
  </g>
  <g
     id="use555"
     transform="matrix(9.00118,0,0,-9.01095,648.371,463.148)">
    <path
       d="M 0,0 Z"
       id="path1054" />
  </g>
  <g
     id="use556"
     transform="matrix(9.00118,0,0,-9.01095,651.54,463.148)">
    <path
       d="M 0.616,0.641 H 0.356 V 0 H 0.26 V 0.641 H 0 v 0.086 h 0.616 z"
       id="path1517" />
  </g>
  <g
     id="use557"
     transform="matrix(9.00118,0,0,-9.01095,656.58,463.148)">
    <path
       d="M 0.734,0.545 0.592,0 H 0.507 L 0.367,0.42 0.228,0 H 0.144 L 0,0.545 h 0.096 l 0.1,-0.422 0.136,0.422 h 0.076 l 0.14,-0.422 0.094,0.422 z"
       id="path1326" />
  </g>
  <g
     id="use558"
     transform="matrix(9.00118,0,0,-9.01095,664.031,463.262)">
    <path
       d="M 0.495,0.276 H 0.093 c 0,-0.034 0.005,-0.063 0.015,-0.088 A 0.165,0.165 0 0 1 0.21,0.092 0.243,0.243 0 0 1 0.287,0.08 c 0.037,0 0.074,0.007 0.113,0.022 a 0.28,0.28 0 0 1 0.08,0.044 h 0.005 v -0.1 A 0.757,0.757 0 0 0 0.39,0.013 0.384,0.384 0 0 0 0.288,0 0.293,0.293 0 0 0 0.076,0.073 C 0.026,0.123 0,0.193 0,0.283 a 0.3,0.3 0 0 0 0.073,0.212 0.25,0.25 0 0 0 0.192,0.078 c 0.075,0 0.13,-0.021 0.17,-0.063 0.04,-0.043 0.06,-0.104 0.06,-0.183 v -0.05 m -0.09,0.07 A 0.162,0.162 0 0 1 0.37,0.458 C 0.345,0.484 0.31,0.498 0.26,0.498 A 0.16,0.16 0 0 1 0.143,0.454 0.17,0.17 0 0 1 0.093,0.346 h 0.313 z"
       id="path1256" />
  </g>
  <g
     id="use559"
     transform="matrix(9.00118,0,0,-9.01095,669.387,463.284)">
    <path
       d="M 0.463,0.015 H 0.373 V 0.073 A 1.57,1.57 0 0 1 0.338,0.05 0.263,0.263 0 0 0 0.176,0 C 0.127,0 0.086,0.016 0.051,0.049 A 0.164,0.164 0 0 0 0,0.173 c 0,0.042 0.009,0.075 0.026,0.1 a 0.179,0.179 0 0 0 0.077,0.061 0.41,0.41 0 0 0 0.12,0.03 c 0.046,0.005 0.096,0.009 0.15,0.011 V 0.39 C 0.372,0.41 0.367,0.428 0.36,0.44 A 0.078,0.078 0 0 1 0.33,0.474 0.13,0.13 0 0 1 0.283,0.489 0.404,0.404 0 0 1 0.053,0.456 H 0.048 V 0.549 A 0.897,0.897 0 0 0 0.226,0.574 0.451,0.451 0 0 0 0.326,0.564 0.192,0.192 0 0 0 0.4,0.532 0.144,0.144 0 0 0 0.447,0.474 0.214,0.214 0 0 0 0.463,0.385 V 0.015 M 0.373,0.15 V 0.302 A 3.722,3.722 0 0 1 0.273,0.295 0.51,0.51 0 0 1 0.183,0.281 0.147,0.147 0 0 1 0.12,0.245 0.086,0.086 0 0 1 0.095,0.18 c 0,-0.032 0.01,-0.055 0.028,-0.071 0.019,-0.016 0.048,-0.024 0.086,-0.024 0.033,0 0.062,0.007 0.089,0.019 a 0.408,0.408 0 0 1 0.074,0.045 z"
       id="path1118" />
  </g>
  <g
     id="use560"
     transform="matrix(9.00118,0,0,-9.01095,675.188,463.148)">
    <path
       d="M 0.491,0 H 0.371 L 0.15,0.239 0.091,0.182 V 0 H 0 V 0.76 H 0.092 V 0.272 L 0.357,0.545 H 0.473 L 0.219,0.293 Z"
       id="path1521" />
  </g>
  <g
     id="use561"
     transform="matrix(9.00118,0,0,-9.01095,680.053,463.262)">
    <path
       d="M 0.495,0.276 H 0.093 c 0,-0.034 0.005,-0.063 0.015,-0.088 A 0.165,0.165 0 0 1 0.21,0.092 0.243,0.243 0 0 1 0.287,0.08 c 0.037,0 0.074,0.007 0.113,0.022 a 0.28,0.28 0 0 1 0.08,0.044 h 0.005 v -0.1 A 0.757,0.757 0 0 0 0.39,0.013 0.384,0.384 0 0 0 0.288,0 0.293,0.293 0 0 0 0.076,0.073 C 0.026,0.123 0,0.193 0,0.283 a 0.3,0.3 0 0 0 0.073,0.212 0.25,0.25 0 0 0 0.192,0.078 c 0.075,0 0.13,-0.021 0.17,-0.063 0.04,-0.043 0.06,-0.104 0.06,-0.183 v -0.05 m -0.09,0.07 A 0.162,0.162 0 0 1 0.37,0.458 C 0.345,0.484 0.31,0.498 0.26,0.498 A 0.16,0.16 0 0 1 0.143,0.454 0.17,0.17 0 0 1 0.093,0.346 h 0.313 z"
       id="path1257" />
  </g>
  <g
     id="use562"
     transform="matrix(9.00118,0,0,-9.01095,685.427,463.284)">
    <path
       d="M 0.48,0.015 H 0.388 V 0.072 A 0.332,0.332 0 0 0 0.306,0.02 0.228,0.228 0 0 0 0.212,0 0.185,0.185 0 0 0 0.057,0.075 0.338,0.338 0 0 0 0,0.284 C 0,0.33 0.007,0.37 0.02,0.407 A 0.288,0.288 0 0 0 0.073,0.5 0.226,0.226 0 0 0 0.243,0.576 0.284,0.284 0 0 0 0.388,0.539 V 0.775 H 0.48 V 0.015 M 0.388,0.15 V 0.463 A 0.302,0.302 0 0 1 0.258,0.493 0.145,0.145 0 0 1 0.138,0.439 0.238,0.238 0 0 1 0.095,0.287 C 0.095,0.222 0.105,0.173 0.128,0.139 0.15,0.104 0.186,0.088 0.234,0.088 a 0.2,0.2 0 0 1 0.08,0.016 0.343,0.343 0 0 1 0.074,0.045 z"
       id="path1294" />
  </g>
  <g
     id="use563"
     transform="matrix(9.00118,0,0,-9.01095,690.56,463.148)">
    <path
       d="M 0,0 Z"
       id="path1055" />
  </g>
  <g
     id="use564"
     transform="matrix(9.00118,0,0,-9.01095,694.607,463.148)">
    <path
       d="M 0.548,0.224 A 0.213,0.213 0 0 0 0.528,0.128 0.193,0.193 0 0 0 0.473,0.06 0.255,0.255 0 0 0 0.383,0.014 0.472,0.472 0 0 0 0.257,0 H 0 V 0.727 H 0.215 A 0.886,0.886 0 0 0 0.335,0.721 0.242,0.242 0 0 0 0.41,0.697 0.135,0.135 0 0 0 0.468,0.643 0.16,0.16 0 0 0 0.486,0.564 0.147,0.147 0 0 0 0.46,0.476 0.19,0.19 0 0 0 0.39,0.417 V 0.414 A 0.2,0.2 0 0 0 0.506,0.349 0.185,0.185 0 0 0 0.548,0.224 M 0.386,0.55 A 0.101,0.101 0 0 1 0.377,0.595 0.068,0.068 0 0 1 0.349,0.624 0.135,0.135 0 0 1 0.293,0.64 0.801,0.801 0 0 1 0.212,0.644 H 0.097 v -0.21 h 0.125 c 0.03,0 0.054,0.001 0.072,0.004 0.018,0.003 0.034,0.01 0.05,0.02 a 0.08,0.08 0 0 1 0.032,0.037 c 0.006,0.016 0.01,0.034 0.01,0.055 M 0.448,0.22 c 0,0.029 -0.005,0.052 -0.013,0.07 A 0.106,0.106 0 0 1 0.387,0.333 0.158,0.158 0 0 1 0.33,0.35 0.71,0.71 0 0 1 0.249,0.354 H 0.097 v -0.27 h 0.128 c 0.042,0 0.077,0.002 0.104,0.006 0.027,0.004 0.049,0.013 0.066,0.024 a 0.123,0.123 0 0 1 0.04,0.044 0.136,0.136 0 0 1 0.013,0.063 z"
       id="path887" />
  </g>
  <g
     id="use565"
     transform="matrix(9.00118,0,0,-9.01095,700.725,463.148)">
    <path
       d="M 0.092,0 H 0 v 0.76 h 0.092 z"
       id="path935" />
  </g>
  <g
     id="use566"
     transform="matrix(9.00118,0,0,-9.01095,702.835,463.284)">
    <path
       d="M 0.503,0.288 A 0.306,0.306 0 0 0 0.435,0.078 0.232,0.232 0 0 0 0.252,0 0.234,0.234 0 0 0 0.068,0.077 0.307,0.307 0 0 0 0,0.287 c 0,0.09 0.023,0.16 0.068,0.211 A 0.233,0.233 0 0 0 0.252,0.576 0.232,0.232 0 0 0 0.435,0.498 0.306,0.306 0 0 0 0.503,0.288 m -0.094,0 c 0,0.07 -0.014,0.123 -0.042,0.157 A 0.14,0.14 0 0 1 0.252,0.497 0.14,0.14 0 0 1 0.136,0.445 C 0.108,0.41 0.095,0.358 0.095,0.288 A 0.25,0.25 0 0 1 0.136,0.132 0.139,0.139 0 0 1 0.252,0.079 c 0.049,0 0.087,0.018 0.115,0.052 0.028,0.036 0.042,0.088 0.042,0.157 z"
       id="path981" />
  </g>
  <g
     id="use567"
     transform="matrix(9.00118,0,0,-9.01095,708.646,463.284)">
    <path
       d="M 0.48,0.292 A 0.364,0.364 0 0 0 0.46,0.169 0.272,0.272 0 0 0 0.41,0.077 0.216,0.216 0 0 0 0.242,0 0.264,0.264 0 0 0 0.16,0.011 0.366,0.366 0 0 0 0.092,0.041 L 0.086,0.015 H 0 v 0.76 H 0.092 V 0.503 a 0.377,0.377 0 0 0 0.082,0.052 c 0.029,0.014 0.061,0.02 0.097,0.02 A 0.18,0.18 0 0 0 0.424,0.502 0.341,0.341 0 0 0 0.48,0.292 M 0.385,0.29 c 0,0.065 -0.01,0.114 -0.032,0.148 C 0.332,0.47 0.297,0.487 0.249,0.487 A 0.205,0.205 0 0 1 0.168,0.471 0.33,0.33 0 0 1 0.092,0.426 V 0.114 a 0.273,0.273 0 0 1 0.13,-0.031 c 0.051,0 0.091,0.016 0.12,0.05 0.028,0.032 0.043,0.084 0.043,0.157 z"
       id="path993" />
  </g>
  <g
     id="use568"
     transform="matrix(9.00118,0,0,-9.01095,713.44,463.148)">
    <path
       d="M 0,0 Z"
       id="path1056" />
  </g>
  <g
     id="use569"
     transform="matrix(9.00118,0,0,-9.01095,717.488,463.148)">
    <path
       d="M 0.464,0.641 H 0.097 V 0.436 H 0.413 V 0.35 H 0.097 V 0 H 0 v 0.727 h 0.464 z"
       id="path1094" />
  </g>
  <g
     id="use570"
     transform="matrix(9.00118,0,0,-9.01095,722.607,463.148)">
    <path
       d="M 0.092,0 H 0 v 0.76 h 0.092 z"
       id="path936" />
  </g>
  <g
     id="use571"
     transform="matrix(9.00118,0,0,-9.01095,724.708,463.284)">
    <path
       d="M 0.463,0.015 H 0.373 V 0.073 A 1.57,1.57 0 0 1 0.338,0.05 0.263,0.263 0 0 0 0.176,0 C 0.127,0 0.086,0.016 0.051,0.049 A 0.164,0.164 0 0 0 0,0.173 c 0,0.042 0.009,0.075 0.026,0.1 a 0.179,0.179 0 0 0 0.077,0.061 0.41,0.41 0 0 0 0.12,0.03 c 0.046,0.005 0.096,0.009 0.15,0.011 V 0.39 C 0.372,0.41 0.367,0.428 0.36,0.44 A 0.078,0.078 0 0 1 0.33,0.474 0.13,0.13 0 0 1 0.283,0.489 0.404,0.404 0 0 1 0.053,0.456 H 0.048 V 0.549 A 0.897,0.897 0 0 0 0.226,0.574 0.451,0.451 0 0 0 0.326,0.564 0.192,0.192 0 0 0 0.4,0.532 0.144,0.144 0 0 0 0.447,0.474 0.214,0.214 0 0 0 0.463,0.385 V 0.015 M 0.373,0.15 V 0.302 A 3.722,3.722 0 0 1 0.273,0.295 0.51,0.51 0 0 1 0.183,0.281 0.147,0.147 0 0 1 0.12,0.245 0.086,0.086 0 0 1 0.095,0.18 c 0,-0.032 0.01,-0.055 0.028,-0.071 0.019,-0.016 0.048,-0.024 0.086,-0.024 0.033,0 0.062,0.007 0.089,0.019 a 0.408,0.408 0 0 1 0.074,0.045 z"
       id="path1119" />
  </g>
  <g
     id="use572"
     transform="matrix(9.00118,0,0,-9.01095,729.933,463.245)">
    <path
       d="M 0.343,0.016 A 0.498,0.498 0 0 0 0.233,0 C 0.176,0 0.133,0.015 0.104,0.045 0.076,0.075 0.062,0.123 0.062,0.189 v 0.29 H 0 V 0.556 H 0.062 V 0.713 H 0.154 V 0.556 h 0.19 V 0.48 H 0.154 V 0.23 c 0,-0.028 0,-0.05 0.002,-0.067 A 0.11,0.11 0 0 1 0.169,0.118 0.068,0.068 0 0 1 0.2,0.09 0.186,0.186 0 0 1 0.303,0.087 0.359,0.359 0 0 1 0.338,0.098 h 0.005 z"
       id="path1155" />
  </g>
  <g
     id="use573"
     transform="matrix(9.00118,0,0,-9.01095,733.207,463.148)">
    <path
       d="M 0,0 Z"
       id="path1057" />
  </g>
  <g
     id="use574"
     transform="matrix(9.00118,0,0,-9.01095,737.048,460.68)">
    <path
       d="M 0.305,0 H 0 v 0.088 h 0.305 z"
       id="path1220" />
  </g>
  <g
     id="use575"
     transform="matrix(9.00118,0,0,-9.01095,740.462,463.148)">
    <path
       d="M 0,0 Z"
       id="path1058" />
  </g>
  <g
     id="use576"
     transform="matrix(9.00118,0,0,-9.01095,744.22,463.267)">
    <path
       d="M 0.56,0.22 A 0.192,0.192 0 0 0 0.54,0.138 0.197,0.197 0 0 0 0.485,0.068 0.295,0.295 0 0 0 0.394,0.018 0.391,0.391 0 0 0 0.269,0 0.627,0.627 0 0 0 0,0.058 V 0.18 H 0.007 A 0.402,0.402 0 0 1 0.134,0.11 0.418,0.418 0 0 1 0.27,0.082 c 0.06,0 0.106,0.012 0.14,0.034 0.033,0.023 0.05,0.053 0.05,0.09 0,0.033 -0.008,0.057 -0.024,0.072 A 0.16,0.16 0 0 1 0.364,0.314 0.715,0.715 0 0 1 0.284,0.33 l -0.09,0.016 a 0.27,0.27 0 0 0 -0.143,0.07 0.182,0.182 0 0 0 -0.047,0.13 c 0,0.06 0.026,0.11 0.078,0.149 0.051,0.039 0.116,0.058 0.195,0.058 A 0.63,0.63 0 0 0 0.531,0.703 V 0.588 H 0.524 A 0.418,0.418 0 0 1 0.276,0.67 0.218,0.218 0 0 1 0.153,0.638 0.097,0.097 0 0 1 0.105,0.555 C 0.105,0.525 0.113,0.5 0.128,0.483 A 0.159,0.159 0 0 1 0.211,0.443 L 0.3,0.428 A 1.23,1.23 0 0 0 0.397,0.408 0.253,0.253 0 0 0 0.52,0.342 0.17,0.17 0 0 0 0.56,0.221 Z"
       id="path1502" />
  </g>
  <g
     id="use577"
     transform="matrix(9.00118,0,0,-9.01095,750.61,463.148)">
    <path
       d="M 0.092,0 H 0 v 0.76 h 0.092 z"
       id="path937" />
  </g>
  <g
     id="use578"
     transform="matrix(9.00118,0,0,-9.01095,753.023,463.148)">
    <path
       d="M 0.104,0.637 H 0 V 0.732 H 0.104 V 0.637 M 0.098,0 H 0.006 v 0.545 h 0.092 z"
       id="path1417" />
  </g>
  <g
     id="use579"
     transform="matrix(9.00118,0,0,-9.01095,755.195,465.01)">
    <path
       d="M 0.48,0.269 C 0.48,0.176 0.459,0.109 0.417,0.065 0.375,0.022 0.31,0 0.223,0 A 0.561,0.561 0 0 0 0.057,0.023 V 0.117 H 0.062 A 0.695,0.695 0 0 1 0.133,0.096 0.373,0.373 0 0 1 0.231,0.083 c 0.031,0 0.057,0.003 0.078,0.01 a 0.112,0.112 0 0 1 0.071,0.079 0.228,0.228 0 0 1 0.007,0.06 v 0.05 a 0.36,0.36 0 0 0 -0.08,-0.05 0.246,0.246 0 0 0 -0.096,-0.016 0.19,0.19 0 0 0 -0.155,0.07 0.31,0.31 0 0 0 -0.057,0.2 c 0,0.046 0.007,0.087 0.02,0.12 A 0.278,0.278 0 0 0 0.073,0.695 0.217,0.217 0 0 0 0.15,0.749 c 0.03,0.013 0.06,0.02 0.09,0.02 A 0.273,0.273 0 0 0 0.387,0.729 L 0.393,0.753 H 0.48 V 0.269 M 0.388,0.356 v 0.298 a 0.341,0.341 0 0 1 -0.13,0.03 0.149,0.149 0 0 1 -0.12,-0.05 C 0.11,0.6 0.095,0.55 0.095,0.486 0.095,0.426 0.105,0.379 0.127,0.347 0.148,0.316 0.184,0.3 0.234,0.3 c 0.026,0 0.053,0.005 0.08,0.015 0.027,0.01 0.052,0.024 0.074,0.041 z"
       id="path1363" />
  </g>
  <g
     id="use580"
     transform="matrix(9.00118,0,0,-9.01095,761.14,463.148)">
    <path
       d="M 0.456,0 H 0.364 V 0.31 A 0.53,0.53 0 0 1 0.36,0.38 0.13,0.13 0 0 1 0.344,0.433 0.073,0.073 0 0 1 0.309,0.463 0.147,0.147 0 0 1 0.249,0.473 0.19,0.19 0 0 1 0.17,0.455 0.4,0.4 0 0 1 0.092,0.407 V 0 H 0 V 0.76 H 0.092 V 0.485 A 0.373,0.373 0 0 0 0.18,0.54 C 0.21,0.553 0.242,0.56 0.274,0.56 0.334,0.56 0.379,0.543 0.41,0.507 0.44,0.472 0.456,0.421 0.456,0.354 Z"
       id="path1508" />
  </g>
  <g
     id="use581"
     transform="matrix(9.00118,0,0,-9.01095,766.298,463.245)">
    <path
       d="M 0.343,0.016 A 0.498,0.498 0 0 0 0.233,0 C 0.176,0 0.133,0.015 0.104,0.045 0.076,0.075 0.062,0.123 0.062,0.189 v 0.29 H 0 V 0.556 H 0.062 V 0.713 H 0.154 V 0.556 h 0.19 V 0.48 H 0.154 V 0.23 c 0,-0.028 0,-0.05 0.002,-0.067 A 0.11,0.11 0 0 1 0.169,0.118 0.068,0.068 0 0 1 0.2,0.09 0.186,0.186 0 0 1 0.303,0.087 0.359,0.359 0 0 1 0.338,0.098 h 0.005 z"
       id="path1156" />
  </g>
  <g
     id="use582"
     transform="matrix(9.00118,0,0,-9.01095,769.572,463.148)">
    <path
       d="M 0,0 Z"
       id="path1059" />
  </g>
  <g
     id="use583"
     transform="matrix(9.00118,0,0,-9.01095,772.855,463.148)">
    <path
       d="M 0.658,0 H 0.555 L 0.484,0.203 H 0.169 L 0.1,0 H 0 L 0.265,0.727 H 0.394 L 0.658,0 M 0.454,0.286 0.327,0.643 0.199,0.286 Z"
       id="path1352" />
  </g>
  <g
     id="use584"
     transform="matrix(9.00118,0,0,-9.01095,779.71,463.148)">
    <path
       d="M 0.456,0 H 0.364 V 0.31 A 0.53,0.53 0 0 1 0.36,0.38 0.13,0.13 0 0 1 0.344,0.433 0.073,0.073 0 0 1 0.309,0.463 0.147,0.147 0 0 1 0.249,0.473 0.19,0.19 0 0 1 0.17,0.455 0.4,0.4 0 0 1 0.092,0.407 V 0 H 0 V 0.545 H 0.092 V 0.485 A 0.373,0.373 0 0 0 0.18,0.54 C 0.21,0.553 0.242,0.56 0.274,0.56 0.334,0.56 0.379,0.543 0.41,0.507 0.44,0.472 0.456,0.421 0.456,0.354 Z"
       id="path1200" />
  </g>
  <g
     id="use585"
     transform="matrix(9.00118,0,0,-9.01095,785.07,465.01)">
    <path
       d="M 0.48,0.269 C 0.48,0.176 0.459,0.109 0.417,0.065 0.375,0.022 0.31,0 0.223,0 A 0.561,0.561 0 0 0 0.057,0.023 V 0.117 H 0.062 A 0.695,0.695 0 0 1 0.133,0.096 0.373,0.373 0 0 1 0.231,0.083 c 0.031,0 0.057,0.003 0.078,0.01 a 0.112,0.112 0 0 1 0.071,0.079 0.228,0.228 0 0 1 0.007,0.06 v 0.05 a 0.36,0.36 0 0 0 -0.08,-0.05 0.246,0.246 0 0 0 -0.096,-0.016 0.19,0.19 0 0 0 -0.155,0.07 0.31,0.31 0 0 0 -0.057,0.2 c 0,0.046 0.007,0.087 0.02,0.12 A 0.278,0.278 0 0 0 0.073,0.695 0.217,0.217 0 0 0 0.15,0.749 c 0.03,0.013 0.06,0.02 0.09,0.02 A 0.273,0.273 0 0 0 0.387,0.729 L 0.393,0.753 H 0.48 V 0.269 M 0.388,0.356 v 0.298 a 0.341,0.341 0 0 1 -0.13,0.03 0.149,0.149 0 0 1 -0.12,-0.05 C 0.11,0.6 0.095,0.55 0.095,0.486 0.095,0.426 0.105,0.379 0.127,0.347 0.148,0.316 0.184,0.3 0.234,0.3 c 0.026,0 0.053,0.005 0.08,0.015 0.027,0.01 0.052,0.024 0.074,0.041 z"
       id="path1364" />
  </g>
  <g
     id="use586"
     transform="matrix(9.00118,0,0,-9.01095,791.024,463.148)">
    <path
       d="M 0.092,0 H 0 v 0.76 h 0.092 z"
       id="path938" />
  </g>
  <g
     id="use587"
     transform="matrix(9.00118,0,0,-9.01095,793.135,463.262)">
    <path
       d="M 0.495,0.276 H 0.093 c 0,-0.034 0.005,-0.063 0.015,-0.088 A 0.165,0.165 0 0 1 0.21,0.092 0.243,0.243 0 0 1 0.287,0.08 c 0.037,0 0.074,0.007 0.113,0.022 a 0.28,0.28 0 0 1 0.08,0.044 h 0.005 v -0.1 A 0.757,0.757 0 0 0 0.39,0.013 0.384,0.384 0 0 0 0.288,0 0.293,0.293 0 0 0 0.076,0.073 C 0.026,0.123 0,0.193 0,0.283 a 0.3,0.3 0 0 0 0.073,0.212 0.25,0.25 0 0 0 0.192,0.078 c 0.075,0 0.13,-0.021 0.17,-0.063 0.04,-0.043 0.06,-0.104 0.06,-0.183 v -0.05 m -0.09,0.07 A 0.162,0.162 0 0 1 0.37,0.458 C 0.345,0.484 0.31,0.498 0.26,0.498 A 0.16,0.16 0 0 1 0.143,0.454 0.17,0.17 0 0 1 0.093,0.346 h 0.313 z"
       id="path1258" />
  </g>
  <g
     id="use588"
     transform="matrix(9.00118,0,0,-9.01095,798.034,463.148)">
    <path
       d="M 0,0 Z"
       id="path1060" />
  </g>
  <g
     id="use589"
     transform="matrix(9.00118,0,0,-9.01095,801.707,463.267)">
    <path
       d="M 0.603,0.066 A 2.142,2.142 0 0 1 0.554,0.044 0.461,0.461 0 0 0 0.433,0.007 0.447,0.447 0 0 0 0.213,0.022 0.296,0.296 0 0 0 0.026,0.209 0.482,0.482 0 0 0 0,0.376 c 0,0.06 0.008,0.113 0.025,0.16 A 0.307,0.307 0 0 0 0.21,0.729 0.41,0.41 0 0 0 0.356,0.754 0.491,0.491 0 0 0 0.603,0.69 V 0.575 H 0.596 A 0.43,0.43 0 0 1 0.476,0.648 0.346,0.346 0 0 1 0.35,0.67 0.262,0.262 0 0 1 0.25,0.652 0.215,0.215 0 0 1 0.172,0.597 0.257,0.257 0 0 1 0.119,0.504 0.408,0.408 0 0 1 0.101,0.375 C 0.1,0.325 0.107,0.281 0.12,0.244 A 0.268,0.268 0 0 1 0.174,0.154 0.215,0.215 0 0 1 0.254,0.101 0.275,0.275 0 0 1 0.35,0.083 0.355,0.355 0 0 1 0.596,0.18 h 0.007 z"
       id="path1524" />
  </g>
  <g
     id="use590"
     transform="matrix(9.00118,0,0,-9.01095,808.298,463.148)">
    <path
       d="M 0.456,0 H 0.364 V 0.31 A 0.53,0.53 0 0 1 0.36,0.38 0.13,0.13 0 0 1 0.344,0.433 0.073,0.073 0 0 1 0.309,0.463 0.147,0.147 0 0 1 0.249,0.473 0.19,0.19 0 0 1 0.17,0.455 0.4,0.4 0 0 1 0.092,0.407 V 0 H 0 V 0.76 H 0.092 V 0.485 A 0.373,0.373 0 0 0 0.18,0.54 C 0.21,0.553 0.242,0.56 0.274,0.56 0.334,0.56 0.379,0.543 0.41,0.507 0.44,0.472 0.456,0.421 0.456,0.354 Z"
       id="path1509" />
  </g>
  <g
     id="use591"
     transform="matrix(9.00118,0,0,-9.01095,813.64,463.284)">
    <path
       d="M 0.463,0.015 H 0.373 V 0.073 A 1.57,1.57 0 0 1 0.338,0.05 0.263,0.263 0 0 0 0.176,0 C 0.127,0 0.086,0.016 0.051,0.049 A 0.164,0.164 0 0 0 0,0.173 c 0,0.042 0.009,0.075 0.026,0.1 a 0.179,0.179 0 0 0 0.077,0.061 0.41,0.41 0 0 0 0.12,0.03 c 0.046,0.005 0.096,0.009 0.15,0.011 V 0.39 C 0.372,0.41 0.367,0.428 0.36,0.44 A 0.078,0.078 0 0 1 0.33,0.474 0.13,0.13 0 0 1 0.283,0.489 0.404,0.404 0 0 1 0.053,0.456 H 0.048 V 0.549 A 0.897,0.897 0 0 0 0.226,0.574 0.451,0.451 0 0 0 0.326,0.564 0.192,0.192 0 0 0 0.4,0.532 0.144,0.144 0 0 0 0.447,0.474 0.214,0.214 0 0 0 0.463,0.385 V 0.015 M 0.373,0.15 V 0.302 A 3.722,3.722 0 0 1 0.273,0.295 0.51,0.51 0 0 1 0.183,0.281 0.147,0.147 0 0 1 0.12,0.245 0.086,0.086 0 0 1 0.095,0.18 c 0,-0.032 0.01,-0.055 0.028,-0.071 0.019,-0.016 0.048,-0.024 0.086,-0.024 0.033,0 0.062,0.007 0.089,0.019 a 0.408,0.408 0 0 1 0.074,0.045 z"
       id="path1120" />
  </g>
  <g
     id="use592"
     transform="matrix(9.00118,0,0,-9.01095,819.405,463.148)">
    <path
       d="M 0.456,0 H 0.364 V 0.31 A 0.53,0.53 0 0 1 0.36,0.38 0.13,0.13 0 0 1 0.344,0.433 0.073,0.073 0 0 1 0.309,0.463 0.147,0.147 0 0 1 0.249,0.473 0.19,0.19 0 0 1 0.17,0.455 0.4,0.4 0 0 1 0.092,0.407 V 0 H 0 V 0.545 H 0.092 V 0.485 A 0.373,0.373 0 0 0 0.18,0.54 C 0.21,0.553 0.242,0.56 0.274,0.56 0.334,0.56 0.379,0.543 0.41,0.507 0.44,0.472 0.456,0.421 0.456,0.354 Z"
       id="path1201" />
  </g>
  <g
     id="use593"
     transform="matrix(9.00118,0,0,-9.01095,824.765,465.01)">
    <path
       d="M 0.48,0.269 C 0.48,0.176 0.459,0.109 0.417,0.065 0.375,0.022 0.31,0 0.223,0 A 0.561,0.561 0 0 0 0.057,0.023 V 0.117 H 0.062 A 0.695,0.695 0 0 1 0.133,0.096 0.373,0.373 0 0 1 0.231,0.083 c 0.031,0 0.057,0.003 0.078,0.01 a 0.112,0.112 0 0 1 0.071,0.079 0.228,0.228 0 0 1 0.007,0.06 v 0.05 a 0.36,0.36 0 0 0 -0.08,-0.05 0.246,0.246 0 0 0 -0.096,-0.016 0.19,0.19 0 0 0 -0.155,0.07 0.31,0.31 0 0 0 -0.057,0.2 c 0,0.046 0.007,0.087 0.02,0.12 A 0.278,0.278 0 0 0 0.073,0.695 0.217,0.217 0 0 0 0.15,0.749 c 0.03,0.013 0.06,0.02 0.09,0.02 A 0.273,0.273 0 0 0 0.387,0.729 L 0.393,0.753 H 0.48 V 0.269 M 0.388,0.356 v 0.298 a 0.341,0.341 0 0 1 -0.13,0.03 0.149,0.149 0 0 1 -0.12,-0.05 C 0.11,0.6 0.095,0.55 0.095,0.486 0.095,0.426 0.105,0.379 0.127,0.347 0.148,0.316 0.184,0.3 0.234,0.3 c 0.026,0 0.053,0.005 0.08,0.015 0.027,0.01 0.052,0.024 0.074,0.041 z"
       id="path1365" />
  </g>
  <g
     id="use594"
     transform="matrix(9.00118,0,0,-9.01095,830.364,463.262)">
    <path
       d="M 0.495,0.276 H 0.093 c 0,-0.034 0.005,-0.063 0.015,-0.088 A 0.165,0.165 0 0 1 0.21,0.092 0.243,0.243 0 0 1 0.287,0.08 c 0.037,0 0.074,0.007 0.113,0.022 a 0.28,0.28 0 0 1 0.08,0.044 h 0.005 v -0.1 A 0.757,0.757 0 0 0 0.39,0.013 0.384,0.384 0 0 0 0.288,0 0.293,0.293 0 0 0 0.076,0.073 C 0.026,0.123 0,0.193 0,0.283 a 0.3,0.3 0 0 0 0.073,0.212 0.25,0.25 0 0 0 0.192,0.078 c 0.075,0 0.13,-0.021 0.17,-0.063 0.04,-0.043 0.06,-0.104 0.06,-0.183 v -0.05 m -0.09,0.07 A 0.162,0.162 0 0 1 0.37,0.458 C 0.345,0.484 0.31,0.498 0.26,0.498 A 0.16,0.16 0 0 1 0.143,0.454 0.17,0.17 0 0 1 0.093,0.346 h 0.313 z"
       id="path1259" />
  </g>
  <g
     id="use595"
     transform="matrix(9.00118,0,0,-9.01095,570.304,463.478)">
    <path
       d="M 0.74,0.727 0.475,0 H 0.265 L 0,0.727 h 0.197 l 0.176,-0.51 0.175,0.51 z"
       id="path1440" />
  </g>
  <g
     id="use596"
     transform="matrix(9.00118,0,0,-9.01095,577.533,463.606)">
    <path
       d="M 0.595,0.418 A 0.592,0.592 0 0 0 0.57,0.248 0.324,0.324 0 0 0 0.37,0.028 0.507,0.507 0 0 0 0.194,0 0.754,0.754 0 0 0 0.06,0.012 V 0.155 H 0.08 A 0.28,0.28 0 0 1 0.195,0.133 c 0.024,0 0.05,0.003 0.074,0.01 a 0.174,0.174 0 0 1 0.11,0.084 C 0.392,0.25 0.4,0.276 0.405,0.307 A 0.502,0.502 0 0 0 0.325,0.269 0.311,0.311 0 0 0 0.156,0.266 0.21,0.21 0 0 0 0.023,0.373 0.263,0.263 0 0 0 0,0.493 c 0,0.077 0.027,0.14 0.081,0.19 0.054,0.048 0.126,0.073 0.213,0.073 A 0.367,0.367 0 0 0 0.414,0.738 0.237,0.237 0 0 0 0.505,0.684 0.262,0.262 0 0 0 0.572,0.577 0.487,0.487 0 0 0 0.595,0.418 M 0.408,0.446 A 0.34,0.34 0 0 1 0.396,0.543 0.143,0.143 0 0 1 0.365,0.603 0.082,0.082 0 0 1 0.332,0.625 0.112,0.112 0 0 1 0.256,0.625 0.094,0.094 0 0 1 0.223,0.603 0.12,0.12 0 0 1 0.198,0.562 0.177,0.177 0 0 1 0.19,0.502 C 0.19,0.479 0.193,0.459 0.2,0.444 a 0.092,0.092 0 0 1 0.028,-0.037 0.103,0.103 0 0 1 0.04,-0.017 0.227,0.227 0 0 1 0.098,0 0.26,0.26 0 0 1 0.04,0.01 v 0.016 z"
       id="path1526" />
  </g>
  <g
     id="use597"
     transform="matrix(9.00118,0,0,-9.01095,584.28,463.478)">
    <path
       d="M 0.183,0 H 0 v 0.192 h 0.183 z"
       id="path1454" />
  </g>
  <g
     id="use598"
     transform="matrix(9.00118,0,0,-9.01095,587.538,463.478)">
    <path
       d="M 0.57,0 H 0 v 0.12 a 2.932,2.932 0 0 1 0.236,0.193 c 0.04,0.038 0.068,0.07 0.084,0.1 a 0.165,0.165 0 0 1 0.025,0.083 c 0,0.033 -0.01,0.059 -0.032,0.077 C 0.292,0.59 0.261,0.6 0.221,0.6 A 0.271,0.271 0 0 1 0.126,0.582 0.437,0.437 0 0 1 0.035,0.534 H 0.019 V 0.696 A 0.622,0.622 0 0 0 0.257,0.74 c 0.091,0 0.16,-0.019 0.208,-0.057 A 0.195,0.195 0 0 0 0.537,0.52 0.264,0.264 0 0 0 0.502,0.39 0.53,0.53 0 0 0 0.397,0.262 1.33,1.33 0 0 0 0.244,0.139 H 0.571 V 0 Z"
       id="path1467" />
  </g>
  <g
     id="use702"
     transform="matrix(40.0052,0,0,-40.04865,676.99,527.508)">
    <path
       d="M 0.394,0.155 H 0.185 L 0.137,0 H 0 L 0.226,0.7 H 0.363 L 0.588,0 H 0.444 l -0.05,0.155 m -0.177,0.11 h 0.15 L 0.296,0.499 H 0.287 Z"
       id="path840" />
  </g>
  <g
     id="use703"
     transform="matrix(40.0052,0,0,-40.04865,701.833,527.508)">
    <path
       d="M 0.286,0.151 H 0.293 L 0.405,0.5 h 0.14 L 0.354,0 H 0.215 L 0,0.5 h 0.151 z"
       id="path852" />
  </g>
  <g
     id="use704"
     transform="matrix(40.0052,0,0,-40.04865,726.317,527.508)">
    <path
       d="M 0,0.11 H 0.124 V 0.39 H 0 V 0.5 H 0.225 L 0.24,0.434 h 0.004 c 0.019,0.022 0.04,0.04 0.064,0.055 a 0.158,0.158 0 0 0 0.084,0.022 c 0.04,0 0.071,-0.015 0.094,-0.044 C 0.509,0.437 0.521,0.389 0.521,0.32 H 0.404 C 0.404,0.344 0.4,0.361 0.393,0.372 0.386,0.383 0.375,0.389 0.36,0.389 A 0.1,0.1 0 0 1 0.295,0.369 0.207,0.207 0 0 1 0.254,0.323 V 0.11 H 0.471 V 0 H 0 Z"
       id="path864" />
  </g>
  <g
     id="use705"
     transform="matrix(40.0052,0,0,-40.04865,750.16,528.069)">
    <path
       d="m 0,0.264 c 0,0.042 0.006,0.08 0.019,0.112 A 0.23,0.23 0 0 0 0.156,0.51 0.314,0.314 0 0 0 0.265,0.528 c 0.042,0 0.08,-0.006 0.112,-0.019 A 0.228,0.228 0 0 0 0.461,0.455 0.215,0.215 0 0 0 0.512,0.372 0.311,0.311 0 0 0 0.53,0.264 0.308,0.308 0 0 0 0.511,0.152 0.23,0.23 0 0 0 0.373,0.017 0.322,0.322 0 0 0 0.265,0 0.316,0.316 0 0 0 0.152,0.019 0.237,0.237 0 0 0 0.069,0.072 0.235,0.235 0 0 0 0.017,0.156 0.328,0.328 0 0 0 0,0.264 m 0.134,0 c 0,-0.022 0.003,-0.042 0.009,-0.061 A 0.15,0.15 0 0 1 0.169,0.154 0.123,0.123 0 0 1 0.21,0.121 0.13,0.13 0 0 1 0.265,0.11 c 0.039,0 0.07,0.012 0.094,0.037 0.025,0.025 0.037,0.064 0.037,0.117 A 0.171,0.171 0 0 1 0.362,0.375 0.116,0.116 0 0 1 0.265,0.418 0.147,0.147 0 0 1 0.213,0.409 0.101,0.101 0 0 1 0.171,0.382 0.139,0.139 0 0 1 0.144,0.334 0.216,0.216 0 0 1 0.134,0.264 Z"
       id="path876" />
  </g>
  <path
     d="m625.301 519.336 2.703 8.254 42.293 12.062zm0 0"
     fill="#0068e0"
     id="path705" />
  <path
     d="M640.066 505.668c.52 2.059-.027 3.367-3.359 3.043l33.422 30.973c.379.152.445-.102.183-.489zm0 0"
     fill="#000094"
     id="path706" />
  <path
     d="M639.004 490.723s-1.192 1.125.062 2.582c.93 1.082 2.321.418 2.321.418s1.281-.719.308-2.235c-1.265-1.972-2.691-.765-2.691-.765zM670.379 539.82l-47.414-21.121s-15.492-9.582-13.887-13.367c1.563-3.664 15.371 3.719 16.832 4.059 1.461.343 2.274-.582 2.301-1.227.043-.93-2.051-3.59-.965-4.726 1.082-1.133 4.621 1.074 4.621 1.074l2.871 1.988zm0 0"
     fill="#1cccfc"
     id="path707" />
  <path
     d="m670.566 539.621-31.289-34.66s-5.636-6.399-5.402-8.231c.234-1.832 7.719 4.016 7.719 4.016s.832.801 1.621.664c.789-.133-.055-1.445-.055-1.445s-1.293-3.004-.43-3.543c.868-.535 3.059 1.726 3.059 1.726s.547.567 1.121.414c.574-.156.266-1.417.266-1.417s-3.957-9.125-2.231-9.805c2.633-1.043 6.383 6.508 7.641 8.859.316.649 17.98 43.422 17.98 43.422zM621.738 496.734s-1.605 1.063.18 3.106c1.641 1.883 3.102.906 3.102.906s1.515-.926.062-2.672c-1.922-2.308-3.344-1.34-3.344-1.34zm0 0"
     fill="#1cccfc"
     id="path708" />
</svg>
