<?xml version="1.0" encoding="UTF-8" standalone="no"?>
<svg
   width="842pt"
   height="596pt"
   viewBox="0 0 842 596"
   version="1.1"
   id="svg2419"
   sodipodi:docname="Apache-Avro-Logo-v3.2.svg"
   inkscape:version="1.3 (0e150ed, 2023-07-21)"
   xmlns:inkscape="http://www.inkscape.org/namespaces/inkscape"
   xmlns:sodipodi="http://sodipodi.sourceforge.net/DTD/sodipodi-0.dtd"
   xmlns="http://www.w3.org/2000/svg"
   xmlns:svg="http://www.w3.org/2000/svg">
  <defs
     id="defs2419" />
  <sodipodi:namedview
     id="namedview2419"
     pagecolor="#ffffff"
     bordercolor="#000000"
     borderopacity="0.25"
     inkscape:showpageshadow="2"
     inkscape:pageopacity="0.0"
     inkscape:pagecheckerboard="0"
     inkscape:deskcolor="#d1d1d1"
     inkscape:document-units="pt"
     inkscape:zoom="0.62649284"
     inkscape:cx="834.80603"
     inkscape:cy="193.13868"
     inkscape:window-width="2512"
     inkscape:window-height="1387"
     inkscape:window-x="1728"
     inkscape:window-y="25"
     inkscape:window-maximized="0"
     inkscape:current-layer="svg2419" />
  <g
     id="use2180"
     transform="matrix(9.00118,0,0,-9.01095,576.206,167.254)">
    <path
       d="M 0.74,0.727 0.475,0 H 0.265 L 0,0.727 h 0.197 l 0.176,-0.51 0.175,0.51 z"
       id="path4168" />
  </g>
  <g
     id="use2181"
     transform="matrix(9.00118,0,0,-9.01095,583.593,167.39)">
    <path
       d="M 0.521,0.356 A 0.159,0.159 0 0 0 0.56,0.308 0.159,0.159 0 0 0 0.574,0.235 0.226,0.226 0 0 0 0.554,0.14 0.196,0.196 0 0 0 0.49,0.063 0.305,0.305 0 0 0 0.395,0.016 0.739,0.739 0 0 0 0,0.046 v 0.16 H 0.019 A 0.47,0.47 0 0 1 0.226,0.143 c 0.019,0 0.04,0.002 0.062,0.004 0.022,0.004 0.04,0.01 0.056,0.021 a 0.099,0.099 0 0 1 0.029,0.03 c 0.007,0.011 0.01,0.028 0.01,0.05 A 0.073,0.073 0 0 1 0.37,0.296 0.079,0.079 0 0 1 0.33,0.321 0.196,0.196 0 0 1 0.272,0.33 H 0.17 v 0.13 h 0.04 c 0.027,0 0.05,0.001 0.07,0.003 A 0.16,0.16 0 0 1 0.33,0.474 0.074,0.074 0 0 1 0.36,0.5 0.08,0.08 0 0 1 0.37,0.545 0.052,0.052 0 0 1 0.36,0.58 0.078,0.078 0 0 1 0.331,0.602 0.146,0.146 0 0 1 0.286,0.613 0.348,0.348 0 0 1 0.143,0.6 0.45,0.45 0 0 1 0.04,0.554 H 0.021 V 0.71 C 0.048,0.722 0.084,0.732 0.13,0.742 A 0.648,0.648 0 0 0 0.39,0.745 0.295,0.295 0 0 0 0.476,0.713 0.162,0.162 0 0 0 0.536,0.655 0.159,0.159 0 0 0 0.555,0.575 0.17,0.17 0 0 0 0.418,0.406 V 0.4 a 0.253,0.253 0 0 0 0.053,-0.014 0.167,0.167 0 0 0 0.05,-0.03 z"
       id="path4673" />
  </g>
  <g
     id="use2182"
     transform="matrix(9.00118,0,0,-9.01095,590.182,167.254)">
    <path
       d="M 0.183,0 H 0 v 0.192 h 0.183 z"
       id="path4180" />
  </g>
  <g
     id="use2183"
     transform="matrix(9.00118,0,0,-9.01095,593.44,167.254)">
    <path
       d="M 0.57,0 H 0 v 0.12 a 2.932,2.932 0 0 1 0.236,0.193 c 0.04,0.038 0.068,0.07 0.084,0.1 a 0.165,0.165 0 0 1 0.025,0.083 c 0,0.033 -0.01,0.059 -0.032,0.077 C 0.292,0.59 0.261,0.6 0.221,0.6 A 0.271,0.271 0 0 1 0.126,0.582 0.437,0.437 0 0 1 0.035,0.534 H 0.019 V 0.696 A 0.622,0.622 0 0 0 0.257,0.74 c 0.091,0 0.16,-0.019 0.208,-0.057 A 0.195,0.195 0 0 0 0.537,0.52 0.264,0.264 0 0 0 0.502,0.39 0.53,0.53 0 0 0 0.397,0.262 1.33,1.33 0 0 0 0.244,0.139 H 0.571 V 0 Z"
       id="path4187" />
  </g>
  <g
     id="use2241"
     transform="matrix(9.00118,0,0,-9.01095,612.312,167.08)">
    <path
       d="M 0.476,0.507 A 0.234,0.234 0 0 0 0.412,0.347 0.244,0.244 0 0 0 0.322,0.29 0.385,0.385 0 0 0 0.194,0.27 H 0.097 V 0 H 0 v 0.727 h 0.197 c 0.044,0 0.08,-0.004 0.111,-0.011 A 0.246,0.246 0 0 0 0.388,0.682 0.194,0.194 0 0 0 0.453,0.612 0.215,0.215 0 0 0 0.476,0.507 M 0.375,0.505 A 0.151,0.151 0 0 1 0.362,0.57 0.11,0.11 0 0 1 0.322,0.616 0.158,0.158 0 0 1 0.268,0.637 0.347,0.347 0 0 1 0.192,0.644 H 0.097 v -0.29 h 0.081 c 0.04,0 0.071,0.003 0.095,0.01 a 0.137,0.137 0 0 1 0.102,0.14 z"
       id="path2458" />
  </g>
  <g
     id="use2242"
     transform="matrix(9.00118,0,0,-9.01095,616.86,167.08)">
    <path
       d="M 0.616,0.641 H 0.356 V 0 H 0.26 V 0.641 H 0 v 0.086 h 0.616 z"
       id="path2473" />
  </g>
  <g
     id="use2243"
     transform="matrix(9.00118,0,0,-9.01095,622.405,167.08)">
    <path
       d="M 0,0 Z"
       id="path2786" />
  </g>
  <g
     id="use2244"
     transform="matrix(9.00118,0,0,-9.01095,626.453,167.08)">
    <path
       d="M 0.647,0 H 0.551 V 0.626 L 0.349,0.2 H 0.29 L 0.09,0.626 V 0 H 0 V 0.727 H 0.132 L 0.326,0.322 0.513,0.727 h 0.134 z"
       id="path2806" />
  </g>
  <g
     id="use2245"
     transform="matrix(9.00118,0,0,-9.01095,633.628,167.217)">
    <path
       d="M 0.503,0.288 A 0.306,0.306 0 0 0 0.435,0.078 0.232,0.232 0 0 0 0.252,0 0.234,0.234 0 0 0 0.068,0.077 0.307,0.307 0 0 0 0,0.287 c 0,0.09 0.023,0.16 0.068,0.211 A 0.233,0.233 0 0 0 0.252,0.576 0.232,0.232 0 0 0 0.435,0.498 0.306,0.306 0 0 0 0.503,0.288 m -0.094,0 c 0,0.07 -0.014,0.123 -0.042,0.157 A 0.14,0.14 0 0 1 0.252,0.497 0.14,0.14 0 0 1 0.136,0.445 C 0.108,0.41 0.095,0.358 0.095,0.288 A 0.25,0.25 0 0 1 0.136,0.132 0.139,0.139 0 0 1 0.252,0.079 c 0.049,0 0.087,0.018 0.115,0.052 0.028,0.036 0.042,0.088 0.042,0.157 z"
       id="path2935" />
  </g>
  <g
     id="use2246"
     transform="matrix(9.00118,0,0,-9.01095,639.438,167.08)">
    <path
       d="M 0.456,0 H 0.364 V 0.31 A 0.53,0.53 0 0 1 0.36,0.38 0.13,0.13 0 0 1 0.344,0.433 0.073,0.073 0 0 1 0.309,0.463 0.147,0.147 0 0 1 0.249,0.473 0.19,0.19 0 0 1 0.17,0.455 0.4,0.4 0 0 1 0.092,0.407 V 0 H 0 V 0.545 H 0.092 V 0.485 A 0.373,0.373 0 0 0 0.18,0.54 C 0.21,0.553 0.242,0.56 0.274,0.56 0.334,0.56 0.379,0.543 0.41,0.507 0.44,0.472 0.456,0.421 0.456,0.354 Z"
       id="path3063" />
  </g>
  <g
     id="use2247"
     transform="matrix(9.00118,0,0,-9.01095,644.789,167.217)">
    <path
       d="M 0.503,0.288 A 0.306,0.306 0 0 0 0.435,0.078 0.232,0.232 0 0 0 0.252,0 0.234,0.234 0 0 0 0.068,0.077 0.307,0.307 0 0 0 0,0.287 c 0,0.09 0.023,0.16 0.068,0.211 A 0.233,0.233 0 0 0 0.252,0.576 0.232,0.232 0 0 0 0.435,0.498 0.306,0.306 0 0 0 0.503,0.288 m -0.094,0 c 0,0.07 -0.014,0.123 -0.042,0.157 A 0.14,0.14 0 0 1 0.252,0.497 0.14,0.14 0 0 1 0.136,0.445 C 0.108,0.41 0.095,0.358 0.095,0.288 A 0.25,0.25 0 0 1 0.136,0.132 0.139,0.139 0 0 1 0.252,0.079 c 0.049,0 0.087,0.018 0.115,0.052 0.028,0.036 0.042,0.088 0.042,0.157 z"
       id="path2936" />
  </g>
  <g
     id="use2248"
     transform="matrix(9.00118,0,0,-9.01095,649.787,167.08)">
    <path
       d="M 0,0 Z"
       id="path2787" />
  </g>
  <g
     id="use2249"
     transform="matrix(9.00118,0,0,-9.01095,653.834,167.08)">
    <path
       d="M 0.548,0.224 A 0.213,0.213 0 0 0 0.528,0.128 0.193,0.193 0 0 0 0.473,0.06 0.255,0.255 0 0 0 0.383,0.014 0.472,0.472 0 0 0 0.257,0 H 0 V 0.727 H 0.215 A 0.886,0.886 0 0 0 0.335,0.721 0.242,0.242 0 0 0 0.41,0.697 0.135,0.135 0 0 0 0.468,0.643 0.16,0.16 0 0 0 0.486,0.564 0.147,0.147 0 0 0 0.46,0.476 0.19,0.19 0 0 0 0.39,0.417 V 0.414 A 0.2,0.2 0 0 0 0.506,0.349 0.185,0.185 0 0 0 0.548,0.224 M 0.386,0.55 A 0.101,0.101 0 0 1 0.377,0.595 0.068,0.068 0 0 1 0.349,0.624 0.135,0.135 0 0 1 0.293,0.64 0.801,0.801 0 0 1 0.212,0.644 H 0.097 v -0.21 h 0.125 c 0.03,0 0.054,0.001 0.072,0.004 0.018,0.003 0.034,0.01 0.05,0.02 a 0.08,0.08 0 0 1 0.032,0.037 c 0.006,0.016 0.01,0.034 0.01,0.055 M 0.448,0.22 c 0,0.029 -0.005,0.052 -0.013,0.07 A 0.106,0.106 0 0 1 0.387,0.333 0.158,0.158 0 0 1 0.33,0.35 0.71,0.71 0 0 1 0.249,0.354 H 0.097 v -0.27 h 0.128 c 0.042,0 0.077,0.002 0.104,0.006 0.027,0.004 0.049,0.013 0.066,0.024 a 0.123,0.123 0 0 1 0.04,0.044 0.136,0.136 0 0 1 0.013,0.063 z"
       id="path3081" />
  </g>
  <g
     id="use2250"
     transform="matrix(9.00118,0,0,-9.01095,659.596,167.217)">
    <path
       d="M 0.503,0.288 A 0.306,0.306 0 0 0 0.435,0.078 0.232,0.232 0 0 0 0.252,0 0.234,0.234 0 0 0 0.068,0.077 0.307,0.307 0 0 0 0,0.287 c 0,0.09 0.023,0.16 0.068,0.211 A 0.233,0.233 0 0 0 0.252,0.576 0.232,0.232 0 0 0 0.435,0.498 0.306,0.306 0 0 0 0.503,0.288 m -0.094,0 c 0,0.07 -0.014,0.123 -0.042,0.157 A 0.14,0.14 0 0 1 0.252,0.497 0.14,0.14 0 0 1 0.136,0.445 C 0.108,0.41 0.095,0.358 0.095,0.288 A 0.25,0.25 0 0 1 0.136,0.132 0.139,0.139 0 0 1 0.252,0.079 c 0.049,0 0.087,0.018 0.115,0.052 0.028,0.036 0.042,0.088 0.042,0.157 z"
       id="path2937" />
  </g>
  <g
     id="use2251"
     transform="matrix(9.00118,0,0,-9.01095,665.416,167.08)">
    <path
       d="M 0.092,0 H 0 v 0.76 h 0.092 z"
       id="path3191" />
  </g>
  <g
     id="use2252"
     transform="matrix(9.00118,0,0,-9.01095,667.535,167.217)">
    <path
       d="M 0.48,0.015 H 0.388 V 0.072 A 0.332,0.332 0 0 0 0.306,0.02 0.228,0.228 0 0 0 0.212,0 0.185,0.185 0 0 0 0.057,0.075 0.338,0.338 0 0 0 0,0.284 C 0,0.33 0.007,0.37 0.02,0.407 A 0.288,0.288 0 0 0 0.073,0.5 0.226,0.226 0 0 0 0.243,0.576 0.284,0.284 0 0 0 0.388,0.539 V 0.775 H 0.48 V 0.015 M 0.388,0.15 V 0.463 A 0.302,0.302 0 0 1 0.258,0.493 0.145,0.145 0 0 1 0.138,0.439 0.238,0.238 0 0 1 0.095,0.287 C 0.095,0.222 0.105,0.173 0.128,0.139 0.15,0.104 0.186,0.088 0.234,0.088 a 0.2,0.2 0 0 1 0.08,0.016 0.343,0.343 0 0 1 0.074,0.045 z"
       id="path3258" />
  </g>
  <g
     id="use2253"
     transform="matrix(9.00118,0,0,-9.01095,672.668,167.08)">
    <path
       d="M 0,0 Z"
       id="path2788" />
  </g>
  <g
     id="use2254"
     transform="matrix(9.00118,0,0,-9.01095,676.715,167.08)">
    <path
       d="M 0.464,0.641 H 0.097 V 0.436 H 0.413 V 0.35 H 0.097 V 0 H 0 v 0.727 h 0.464 z"
       id="path3266" />
  </g>
  <g
     id="use2255"
     transform="matrix(9.00118,0,0,-9.01095,681.262,167.217)">
    <path
       d="M 0.503,0.288 A 0.306,0.306 0 0 0 0.435,0.078 0.232,0.232 0 0 0 0.252,0 0.234,0.234 0 0 0 0.068,0.077 0.307,0.307 0 0 0 0,0.287 c 0,0.09 0.023,0.16 0.068,0.211 A 0.233,0.233 0 0 0 0.252,0.576 0.232,0.232 0 0 0 0.435,0.498 0.306,0.306 0 0 0 0.503,0.288 m -0.094,0 c 0,0.07 -0.014,0.123 -0.042,0.157 A 0.14,0.14 0 0 1 0.252,0.497 0.14,0.14 0 0 1 0.136,0.445 C 0.108,0.41 0.095,0.358 0.095,0.288 A 0.25,0.25 0 0 1 0.136,0.132 0.139,0.139 0 0 1 0.252,0.079 c 0.049,0 0.087,0.018 0.115,0.052 0.028,0.036 0.042,0.088 0.042,0.157 z"
       id="path2938" />
  </g>
  <g
     id="use2256"
     transform="matrix(9.00118,0,0,-9.01095,687.073,167.08)">
    <path
       d="M 0.456,0 H 0.364 V 0.31 A 0.53,0.53 0 0 1 0.36,0.38 0.13,0.13 0 0 1 0.344,0.433 0.073,0.073 0 0 1 0.309,0.463 0.147,0.147 0 0 1 0.249,0.473 0.19,0.19 0 0 1 0.17,0.455 0.4,0.4 0 0 1 0.092,0.407 V 0 H 0 V 0.545 H 0.092 V 0.485 A 0.373,0.373 0 0 0 0.18,0.54 C 0.21,0.553 0.242,0.56 0.274,0.56 0.334,0.56 0.379,0.543 0.41,0.507 0.44,0.472 0.456,0.421 0.456,0.354 Z"
       id="path3064" />
  </g>
  <g
     id="use2257"
     transform="matrix(9.00118,0,0,-9.01095,692.23,167.178)">
    <path
       d="M 0.343,0.016 A 0.498,0.498 0 0 0 0.233,0 C 0.176,0 0.133,0.015 0.104,0.045 0.076,0.075 0.062,0.123 0.062,0.189 v 0.29 H 0 V 0.556 H 0.062 V 0.713 H 0.154 V 0.556 h 0.19 V 0.48 H 0.154 V 0.23 c 0,-0.028 0,-0.05 0.002,-0.067 A 0.11,0.11 0 0 1 0.169,0.118 0.068,0.068 0 0 1 0.2,0.09 0.186,0.186 0 0 1 0.303,0.087 0.359,0.359 0 0 1 0.338,0.098 h 0.005 z"
       id="path3383" />
  </g>
  <g
     id="use2258"
     transform="matrix(9.00118,0,0,-9.01095,695.504,167.08)">
    <path
       d="M 0,0 Z"
       id="path2789" />
  </g>
  <g
     id="use2259"
     transform="matrix(9.00118,0,0,-9.01095,699.345,164.613)">
    <path
       d="M 0.305,0 H 0 v 0.088 h 0.305 z"
       id="path3403" />
  </g>
  <g
     id="use2260"
     transform="matrix(9.00118,0,0,-9.01095,702.759,167.08)">
    <path
       d="M 0,0 Z"
       id="path2790" />
  </g>
  <g
     id="use2261"
     transform="matrix(9.00118,0,0,-9.01095,706.433,167.217)">
    <path
       d="M 0.583,0.659 A 0.328,0.328 0 0 0 0.651,0.539 0.5,0.5 0 0 0 0.675,0.379 0.496,0.496 0 0 0 0.651,0.217 0.327,0.327 0 0 0 0.583,0.1 0.289,0.289 0 0 0 0.477,0.025 0.367,0.367 0 0 0 0.337,0 0.37,0.37 0 0 0 0.197,0.025 0.289,0.289 0 0 0 0.092,0.1 0.333,0.333 0 0 0 0.024,0.219 0.507,0.507 0 0 0 0.001,0.379 c 0,0.06 0.008,0.113 0.023,0.16 A 0.34,0.34 0 0 0 0.093,0.659 0.28,0.28 0 0 0 0.199,0.733 0.374,0.374 0 0 0 0.339,0.758 0.36,0.36 0 0 0 0.479,0.732 0.29,0.29 0 0 0 0.583,0.66 M 0.575,0.379 A 0.334,0.334 0 0 1 0.51,0.596 0.212,0.212 0 0 1 0.337,0.673 0.214,0.214 0 0 1 0.163,0.596 0.335,0.335 0 0 1 0.1,0.378 0.33,0.33 0 0 1 0.165,0.16 c 0.043,-0.05 0.1,-0.077 0.173,-0.077 0.072,0 0.13,0.027 0.172,0.077 a 0.33,0.33 0 0 1 0.065,0.22 z"
       id="path4110" />
  </g>
  <g
     id="use2262"
     transform="matrix(9.00118,0,0,-9.01095,713.824,167.08)">
    <path
       d="M 0.34,0.445 H 0.335 A 0.303,0.303 0 0 1 0.25,0.455 0.187,0.187 0 0 1 0.168,0.435 0.37,0.37 0 0 1 0.092,0.387 V 0 H 0 v 0.545 h 0.092 v -0.08 c 0.036,0.03 0.068,0.05 0.096,0.062 A 0.21,0.21 0 0 0 0.273,0.545 0.288,0.288 0 0 0 0.34,0.54 Z"
       id="path3868" />
  </g>
  <g
     id="use2263"
     transform="matrix(9.00118,0,0,-9.01095,717.624,167.08)">
    <path
       d="M 0.104,0.637 H 0 V 0.732 H 0.104 V 0.637 M 0.098,0 H 0.006 v 0.545 h 0.092 z"
       id="path4008" />
  </g>
  <g
     id="use2264"
     transform="matrix(9.00118,0,0,-9.01095,719.796,168.942)">
    <path
       d="M 0.48,0.269 C 0.48,0.176 0.459,0.109 0.417,0.065 0.375,0.022 0.31,0 0.223,0 A 0.561,0.561 0 0 0 0.057,0.023 V 0.117 H 0.062 A 0.695,0.695 0 0 1 0.133,0.096 0.373,0.373 0 0 1 0.231,0.083 c 0.031,0 0.057,0.003 0.078,0.01 a 0.112,0.112 0 0 1 0.071,0.079 0.228,0.228 0 0 1 0.007,0.06 v 0.05 a 0.36,0.36 0 0 0 -0.08,-0.05 0.246,0.246 0 0 0 -0.096,-0.016 0.19,0.19 0 0 0 -0.155,0.07 0.31,0.31 0 0 0 -0.057,0.2 c 0,0.046 0.007,0.087 0.02,0.12 A 0.278,0.278 0 0 0 0.073,0.695 0.217,0.217 0 0 0 0.15,0.749 c 0.03,0.013 0.06,0.02 0.09,0.02 A 0.273,0.273 0 0 0 0.387,0.729 L 0.393,0.753 H 0.48 V 0.269 M 0.388,0.356 v 0.298 a 0.341,0.341 0 0 1 -0.13,0.03 0.149,0.149 0 0 1 -0.12,-0.05 C 0.11,0.6 0.095,0.55 0.095,0.486 0.095,0.426 0.105,0.379 0.127,0.347 0.148,0.316 0.184,0.3 0.234,0.3 c 0.026,0 0.053,0.005 0.08,0.015 0.027,0.01 0.052,0.024 0.074,0.041 z"
       id="path4279" />
  </g>
  <g
     id="use2265"
     transform="matrix(9.00118,0,0,-9.01095,725.386,167.217)">
    <path
       d="M 0.463,0.015 H 0.373 V 0.073 A 1.57,1.57 0 0 1 0.338,0.05 0.263,0.263 0 0 0 0.176,0 C 0.127,0 0.086,0.016 0.051,0.049 A 0.164,0.164 0 0 0 0,0.173 c 0,0.042 0.009,0.075 0.026,0.1 a 0.179,0.179 0 0 0 0.077,0.061 0.41,0.41 0 0 0 0.12,0.03 c 0.046,0.005 0.096,0.009 0.15,0.011 V 0.39 C 0.372,0.41 0.367,0.428 0.36,0.44 A 0.078,0.078 0 0 1 0.33,0.474 0.13,0.13 0 0 1 0.283,0.489 0.404,0.404 0 0 1 0.053,0.456 H 0.048 V 0.549 A 0.897,0.897 0 0 0 0.226,0.574 0.451,0.451 0 0 0 0.326,0.564 0.192,0.192 0 0 0 0.4,0.532 0.144,0.144 0 0 0 0.447,0.474 0.214,0.214 0 0 0 0.463,0.385 V 0.015 M 0.373,0.15 V 0.302 A 3.722,3.722 0 0 1 0.273,0.295 0.51,0.51 0 0 1 0.183,0.281 0.147,0.147 0 0 1 0.12,0.245 0.086,0.086 0 0 1 0.095,0.18 c 0,-0.032 0.01,-0.055 0.028,-0.071 0.019,-0.016 0.048,-0.024 0.086,-0.024 0.033,0 0.062,0.007 0.089,0.019 a 0.408,0.408 0 0 1 0.074,0.045 z"
       id="path3548" />
  </g>
  <g
     id="use2266"
     transform="matrix(9.00118,0,0,-9.01095,731.152,167.08)">
    <path
       d="M 0.796,0 H 0.704 V 0.31 A 0.653,0.653 0 0 1 0.701,0.378 0.14,0.14 0 0 1 0.688,0.431 0.074,0.074 0 0 1 0.655,0.462 0.17,0.17 0 0 1 0.517,0.453 0.46,0.46 0 0 1 0.44,0.406 0.412,0.412 0 0 0 0.444,0.349 V 0 H 0.352 V 0.31 A 0.649,0.649 0 0 1 0.35,0.38 0.14,0.14 0 0 1 0.335,0.43 0.071,0.071 0 0 1 0.303,0.461 0.172,0.172 0 0 1 0.167,0.453 0.456,0.456 0 0 1 0.092,0.406 V 0 H 0 V 0.545 H 0.092 V 0.485 A 0.406,0.406 0 0 0 0.177,0.54 0.214,0.214 0 0 0 0.363,0.537 0.144,0.144 0 0 0 0.42,0.472 0.446,0.446 0 0 0 0.522,0.54 C 0.553,0.554 0.586,0.56 0.621,0.56 0.68,0.56 0.725,0.543 0.753,0.507 A 0.239,0.239 0 0 0 0.796,0.354 Z"
       id="path4483" />
  </g>
  <g
     id="use2267"
     transform="matrix(9.00118,0,0,-9.01095,739.866,167.08)">
    <path
       d="M 0.104,0.637 H 0 V 0.732 H 0.104 V 0.637 M 0.098,0 H 0.006 v 0.545 h 0.092 z"
       id="path4009" />
  </g>
  <g
     id="use2268"
     transform="matrix(9.00118,0,0,-9.01095,741.563,167.08)">
    <path
       d="M 0,0 Z"
       id="path2791" />
  </g>
  <g
     id="use2269"
     transform="matrix(9.00118,0,0,-9.01095,745.61,167.08)">
    <path
       d="M 0.476,0.507 A 0.234,0.234 0 0 0 0.412,0.347 0.244,0.244 0 0 0 0.322,0.29 0.385,0.385 0 0 0 0.194,0.27 H 0.097 V 0 H 0 v 0.727 h 0.197 c 0.044,0 0.08,-0.004 0.111,-0.011 A 0.246,0.246 0 0 0 0.388,0.682 0.194,0.194 0 0 0 0.453,0.612 0.215,0.215 0 0 0 0.476,0.507 M 0.375,0.505 A 0.151,0.151 0 0 1 0.362,0.57 0.11,0.11 0 0 1 0.322,0.616 0.158,0.158 0 0 1 0.268,0.637 0.347,0.347 0 0 1 0.192,0.644 H 0.097 v -0.29 h 0.081 c 0.04,0 0.071,0.003 0.095,0.01 a 0.137,0.137 0 0 1 0.102,0.14 z"
       id="path2459" />
  </g>
  <g
     id="use2270"
     transform="matrix(9.00118,0,0,-9.01095,750.928,167.08)">
    <path
       d="M 0.104,0.637 H 0 V 0.732 H 0.104 V 0.637 M 0.098,0 H 0.006 v 0.545 h 0.092 z"
       id="path4010" />
  </g>
  <g
     id="use2271"
     transform="matrix(9.00118,0,0,-9.01095,753.1,168.942)">
    <path
       d="M 0.48,0.269 C 0.48,0.176 0.459,0.109 0.417,0.065 0.375,0.022 0.31,0 0.223,0 A 0.561,0.561 0 0 0 0.057,0.023 V 0.117 H 0.062 A 0.695,0.695 0 0 1 0.133,0.096 0.373,0.373 0 0 1 0.231,0.083 c 0.031,0 0.057,0.003 0.078,0.01 a 0.112,0.112 0 0 1 0.071,0.079 0.228,0.228 0 0 1 0.007,0.06 v 0.05 a 0.36,0.36 0 0 0 -0.08,-0.05 0.246,0.246 0 0 0 -0.096,-0.016 0.19,0.19 0 0 0 -0.155,0.07 0.31,0.31 0 0 0 -0.057,0.2 c 0,0.046 0.007,0.087 0.02,0.12 A 0.278,0.278 0 0 0 0.073,0.695 0.217,0.217 0 0 0 0.15,0.749 c 0.03,0.013 0.06,0.02 0.09,0.02 A 0.273,0.273 0 0 0 0.387,0.729 L 0.393,0.753 H 0.48 V 0.269 M 0.388,0.356 v 0.298 a 0.341,0.341 0 0 1 -0.13,0.03 0.149,0.149 0 0 1 -0.12,-0.05 C 0.11,0.6 0.095,0.55 0.095,0.486 0.095,0.426 0.105,0.379 0.127,0.347 0.148,0.316 0.184,0.3 0.234,0.3 c 0.026,0 0.053,0.005 0.08,0.015 0.027,0.01 0.052,0.024 0.074,0.041 z"
       id="path4280" />
  </g>
  <g
     id="use2272"
     transform="matrix(9.00118,0,0,-9.01095,758.699,167.195)">
    <path
       d="M 0.495,0.276 H 0.093 c 0,-0.034 0.005,-0.063 0.015,-0.088 A 0.165,0.165 0 0 1 0.21,0.092 0.243,0.243 0 0 1 0.287,0.08 c 0.037,0 0.074,0.007 0.113,0.022 a 0.28,0.28 0 0 1 0.08,0.044 h 0.005 v -0.1 A 0.757,0.757 0 0 0 0.39,0.013 0.384,0.384 0 0 0 0.288,0 0.293,0.293 0 0 0 0.076,0.073 C 0.026,0.123 0,0.193 0,0.283 a 0.3,0.3 0 0 0 0.073,0.212 0.25,0.25 0 0 0 0.192,0.078 c 0.075,0 0.13,-0.021 0.17,-0.063 0.04,-0.043 0.06,-0.104 0.06,-0.183 v -0.05 m -0.09,0.07 A 0.162,0.162 0 0 1 0.37,0.458 C 0.345,0.484 0.31,0.498 0.26,0.498 A 0.16,0.16 0 0 1 0.143,0.454 0.17,0.17 0 0 1 0.093,0.346 h 0.313 z"
       id="path3769" />
  </g>
  <g
     id="use2273"
     transform="matrix(9.00118,0,0,-9.01095,764.064,167.217)">
    <path
       d="M 0.503,0.288 A 0.306,0.306 0 0 0 0.435,0.078 0.232,0.232 0 0 0 0.252,0 0.234,0.234 0 0 0 0.068,0.077 0.307,0.307 0 0 0 0,0.287 c 0,0.09 0.023,0.16 0.068,0.211 A 0.233,0.233 0 0 0 0.252,0.576 0.232,0.232 0 0 0 0.435,0.498 0.306,0.306 0 0 0 0.503,0.288 m -0.094,0 c 0,0.07 -0.014,0.123 -0.042,0.157 A 0.14,0.14 0 0 1 0.252,0.497 0.14,0.14 0 0 1 0.136,0.445 C 0.108,0.41 0.095,0.358 0.095,0.288 A 0.25,0.25 0 0 1 0.136,0.132 0.139,0.139 0 0 1 0.252,0.079 c 0.049,0 0.087,0.018 0.115,0.052 0.028,0.036 0.042,0.088 0.042,0.157 z"
       id="path2939" />
  </g>
  <g
     id="use2274"
     transform="matrix(9.00118,0,0,-9.01095,769.875,167.08)">
    <path
       d="M 0.456,0 H 0.364 V 0.31 A 0.53,0.53 0 0 1 0.36,0.38 0.13,0.13 0 0 1 0.344,0.433 0.073,0.073 0 0 1 0.309,0.463 0.147,0.147 0 0 1 0.249,0.473 0.19,0.19 0 0 1 0.17,0.455 0.4,0.4 0 0 1 0.092,0.407 V 0 H 0 V 0.545 H 0.092 V 0.485 A 0.373,0.373 0 0 0 0.18,0.54 C 0.21,0.553 0.242,0.56 0.274,0.56 0.334,0.56 0.379,0.543 0.41,0.507 0.44,0.472 0.456,0.421 0.456,0.354 Z"
       id="path3065" />
  </g>
  <g
     id="use2275"
     transform="matrix(9.00118,0,0,-9.01095,774.76,167.08)">
    <path
       d="M 0,0 Z"
       id="path2792" />
  </g>
  <g
     id="use2276"
     transform="matrix(9.00118,0,0,-9.01095,778.807,167.08)">
    <path
       d="M 0.464,0.641 H 0.097 V 0.436 H 0.413 V 0.35 H 0.097 V 0 H 0 v 0.727 h 0.464 z"
       id="path3267" />
  </g>
  <g
     id="use2277"
     transform="matrix(9.00118,0,0,-9.01095,783.925,167.08)">
    <path
       d="M 0.092,0 H 0 v 0.76 h 0.092 z"
       id="path3192" />
  </g>
  <g
     id="use2278"
     transform="matrix(9.00118,0,0,-9.01095,786.027,167.217)">
    <path
       d="M 0.463,0.015 H 0.373 V 0.073 A 1.57,1.57 0 0 1 0.338,0.05 0.263,0.263 0 0 0 0.176,0 C 0.127,0 0.086,0.016 0.051,0.049 A 0.164,0.164 0 0 0 0,0.173 c 0,0.042 0.009,0.075 0.026,0.1 a 0.179,0.179 0 0 0 0.077,0.061 0.41,0.41 0 0 0 0.12,0.03 c 0.046,0.005 0.096,0.009 0.15,0.011 V 0.39 C 0.372,0.41 0.367,0.428 0.36,0.44 A 0.078,0.078 0 0 1 0.33,0.474 0.13,0.13 0 0 1 0.283,0.489 0.404,0.404 0 0 1 0.053,0.456 H 0.048 V 0.549 A 0.897,0.897 0 0 0 0.226,0.574 0.451,0.451 0 0 0 0.326,0.564 0.192,0.192 0 0 0 0.4,0.532 0.144,0.144 0 0 0 0.447,0.474 0.214,0.214 0 0 0 0.463,0.385 V 0.015 M 0.373,0.15 V 0.302 A 3.722,3.722 0 0 1 0.273,0.295 0.51,0.51 0 0 1 0.183,0.281 0.147,0.147 0 0 1 0.12,0.245 0.086,0.086 0 0 1 0.095,0.18 c 0,-0.032 0.01,-0.055 0.028,-0.071 0.019,-0.016 0.048,-0.024 0.086,-0.024 0.033,0 0.062,0.007 0.089,0.019 a 0.408,0.408 0 0 1 0.074,0.045 z"
       id="path3549" />
  </g>
  <g
     id="use2279"
     transform="matrix(9.00118,0,0,-9.01095,791.252,167.178)">
    <path
       d="M 0.343,0.016 A 0.498,0.498 0 0 0 0.233,0 C 0.176,0 0.133,0.015 0.104,0.045 0.076,0.075 0.062,0.123 0.062,0.189 v 0.29 H 0 V 0.556 H 0.062 V 0.713 H 0.154 V 0.556 h 0.19 V 0.48 H 0.154 V 0.23 c 0,-0.028 0,-0.05 0.002,-0.067 A 0.11,0.11 0 0 1 0.169,0.118 0.068,0.068 0 0 1 0.2,0.09 0.186,0.186 0 0 1 0.303,0.087 0.359,0.359 0 0 1 0.338,0.098 h 0.005 z"
       id="path3384" />
  </g>
  <g
     id="use2280"
     transform="matrix(9.00118,0,0,-9.01095,794.526,167.08)">
    <path
       d="M 0,0 Z"
       id="path2793" />
  </g>
  <g
     id="use2281"
     transform="matrix(9.00118,0,0,-9.01095,798.296,167.08)">
    <path
       d="M 0.287,0 H 0 V 0.074 H 0.095 V 0.653 H 0 V 0.727 H 0.287 V 0.653 H 0.192 V 0.074 h 0.095 z"
       id="path4057" />
  </g>
  <g
     id="use2282"
     transform="matrix(9.00118,0,0,-9.01095,801.945,167.19)">
    <path
       d="M 0.442,0.046 A 0.588,0.588 0 0 0 0.355,0.012 0.33,0.33 0 0 0 0.159,0.017 0.224,0.224 0 0 0 0.019,0.159 0.367,0.367 0 0 0 0,0.284 c 0,0.09 0.024,0.16 0.073,0.21 0.05,0.05 0.114,0.076 0.195,0.076 A 0.324,0.324 0 0 0 0.359,0.557 0.479,0.479 0 0 0 0.442,0.525 V 0.423 H 0.437 A 0.348,0.348 0 0 1 0.351,0.473 0.235,0.235 0 0 1 0.264,0.491 0.155,0.155 0 0 1 0.14,0.438 C 0.11,0.403 0.095,0.352 0.095,0.284 0.095,0.218 0.11,0.168 0.14,0.132 A 0.154,0.154 0 0 1 0.264,0.08 0.248,0.248 0 0 1 0.372,0.106 0.455,0.455 0 0 1 0.438,0.147 h 0.004 v -0.1 z"
       id="path4105" />
  </g>
  <g
     id="use2283"
     transform="matrix(9.00118,0,0,-9.01095,806.64,167.217)">
    <path
       d="M 0.503,0.288 A 0.306,0.306 0 0 0 0.435,0.078 0.232,0.232 0 0 0 0.252,0 0.234,0.234 0 0 0 0.068,0.077 0.307,0.307 0 0 0 0,0.287 c 0,0.09 0.023,0.16 0.068,0.211 A 0.233,0.233 0 0 0 0.252,0.576 0.232,0.232 0 0 0 0.435,0.498 0.306,0.306 0 0 0 0.503,0.288 m -0.094,0 c 0,0.07 -0.014,0.123 -0.042,0.157 A 0.14,0.14 0 0 1 0.252,0.497 0.14,0.14 0 0 1 0.136,0.445 C 0.108,0.41 0.095,0.358 0.095,0.288 A 0.25,0.25 0 0 1 0.136,0.132 0.139,0.139 0 0 1 0.252,0.079 c 0.049,0 0.087,0.018 0.115,0.052 0.028,0.036 0.042,0.088 0.042,0.157 z"
       id="path2940" />
  </g>
  <g
     id="use2284"
     transform="matrix(9.00118,0,0,-9.01095,812.45,167.08)">
    <path
       d="M 0.456,0 H 0.364 V 0.31 A 0.53,0.53 0 0 1 0.36,0.38 0.13,0.13 0 0 1 0.344,0.433 0.073,0.073 0 0 1 0.309,0.463 0.147,0.147 0 0 1 0.249,0.473 0.19,0.19 0 0 1 0.17,0.455 0.4,0.4 0 0 1 0.092,0.407 V 0 H 0 V 0.545 H 0.092 V 0.485 A 0.373,0.373 0 0 0 0.18,0.54 C 0.21,0.553 0.242,0.56 0.274,0.56 0.334,0.56 0.379,0.543 0.41,0.507 0.44,0.472 0.456,0.421 0.456,0.354 Z"
       id="path3066" />
  </g>
  <g
     id="use2340"
     transform="matrix(40.0052,0,0,-40.04865,670.825,241.168)">
    <path
       d="M 0.394,0.155 H 0.185 L 0.137,0 H 0 L 0.226,0.7 H 0.363 L 0.588,0 H 0.444 l -0.05,0.155 m -0.177,0.11 h 0.15 L 0.296,0.499 H 0.287 Z"
       id="path2424" />
  </g>
  <g
     id="use2341"
     transform="matrix(40.0052,0,0,-40.04865,695.668,241.168)">
    <path
       d="M 0.286,0.151 H 0.293 L 0.405,0.5 h 0.14 L 0.354,0 H 0.215 L 0,0.5 h 0.151 z"
       id="path2431" />
  </g>
  <g
     id="use2342"
     transform="matrix(40.0052,0,0,-40.04865,720.152,241.168)">
    <path
       d="M 0,0.11 H 0.124 V 0.39 H 0 V 0.5 H 0.225 L 0.24,0.434 h 0.004 c 0.019,0.022 0.04,0.04 0.064,0.055 a 0.158,0.158 0 0 0 0.084,0.022 c 0.04,0 0.071,-0.015 0.094,-0.044 C 0.509,0.437 0.521,0.389 0.521,0.32 H 0.404 C 0.404,0.344 0.4,0.361 0.393,0.372 0.386,0.383 0.375,0.389 0.36,0.389 A 0.1,0.1 0 0 1 0.295,0.369 0.207,0.207 0 0 1 0.254,0.323 V 0.11 H 0.471 V 0 H 0 Z"
       id="path2438" />
  </g>
  <g
     id="use2343"
     transform="matrix(40.0052,0,0,-40.04865,743.995,241.729)">
    <path
       d="m 0,0.264 c 0,0.042 0.006,0.08 0.019,0.112 A 0.23,0.23 0 0 0 0.156,0.51 0.314,0.314 0 0 0 0.265,0.528 c 0.042,0 0.08,-0.006 0.112,-0.019 A 0.228,0.228 0 0 0 0.461,0.455 0.215,0.215 0 0 0 0.512,0.372 0.311,0.311 0 0 0 0.53,0.264 0.308,0.308 0 0 0 0.511,0.152 0.23,0.23 0 0 0 0.373,0.017 0.322,0.322 0 0 0 0.265,0 0.316,0.316 0 0 0 0.152,0.019 0.237,0.237 0 0 0 0.069,0.072 0.235,0.235 0 0 0 0.017,0.156 0.328,0.328 0 0 0 0,0.264 m 0.134,0 c 0,-0.022 0.003,-0.042 0.009,-0.061 A 0.15,0.15 0 0 1 0.169,0.154 0.123,0.123 0 0 1 0.21,0.121 0.13,0.13 0 0 1 0.265,0.11 c 0.039,0 0.07,0.012 0.094,0.037 0.025,0.025 0.037,0.064 0.037,0.117 A 0.171,0.171 0 0 1 0.362,0.375 0.116,0.116 0 0 1 0.265,0.418 0.147,0.147 0 0 1 0.213,0.409 0.101,0.101 0 0 1 0.171,0.382 0.139,0.139 0 0 1 0.144,0.334 0.216,0.216 0 0 1 0.134,0.264 Z"
       id="path2445" />
  </g>
  <g
     id="g4683"
     transform="translate(12.864501,-365.97286)">
    <path
       transform="scale(0.99891,1)"
       stroke-width="1.438"
       stroke-linecap="square"
       stroke-linejoin="round"
       fill="none"
       stroke="#3b3b3b"
       d="m 661.776,553.578 6.824,-7.133 4.963,4.715 -6.863,7.133 z m 0,0"
       id="path2371" />
    <path
       transform="scale(0.99891,1)"
       stroke-width="1.438"
       stroke-linecap="square"
       stroke-linejoin="round"
       fill="none"
       stroke="#3b3b3b"
       d="m 661.89,553.457 6.722,-0.219 -0.043,-6.722 z m 0,0"
       id="path2372" />
  </g>
  <path
     d="m642.664 211.469-5.121 33.414 19.715-15.387zm0 0"
     fill="#999"
     id="path2411" />
  <path
     d="m647.918 217.941 9.031-8.492.278 14.188.039 5.871zm0 0"
     fill="#1cac81"
     id="path2412" />
  <path
     d="m647.902 217.953 1.383-1.289 7.965 9.574.02 3.274"
     fill="#8b72b9"
     id="path2413" />
  <path
     d="m639.082 234.855-13.004-.39 11.465 10.254zm0 0"
     fill="#666"
     id="path2414" />
  <path
     d="m640.094 228.16 2.566-16.703-21.16-5.984zm0 0"
     fill="#ccc"
     id="path2415" />
  <path
     d="M621.562 205.559c-.027-.036 6.083 1.617 6.149 1.679.039.035-.551 5.188-.598 5.129-1.699-2.195-3.801-4.676-5.551-6.808zm0 0"
     fill="#666"
     id="path2416" />
  <path
     d="m656.879 209.441.156 7.934 6.985-2.953zm0 0"
     fill="#168967"
     id="path2417" />
  <path
     d="m630.379 216.297 1.094 1.359 1.601-8.91-1.363-.391zM634.492 209.168l1.352.34-1.793 11.273-1.16-1.406zm0 0"
     fill="#666"
     id="path2418" />
  <path
     d="m661.477 212.574.05 2.934 2.614-1.082zm0 0"
     fill="#fc0"
     id="path2419" />
</svg>
