<?xml version="1.0" encoding="UTF-8" standalone="no"?>
<svg
   width="842pt"
   height="596pt"
   viewBox="0 0 842 596"
   version="1.1"
   id="svg2419"
   sodipodi:docname="Apache-Avro-Logo-v3.1-pigeon.svg"
   inkscape:version="1.3 (0e150ed, 2023-07-21)"
   xmlns:inkscape="http://www.inkscape.org/namespaces/inkscape"
   xmlns:sodipodi="http://sodipodi.sourceforge.net/DTD/sodipodi-0.dtd"
   xmlns="http://www.w3.org/2000/svg"
   xmlns:svg="http://www.w3.org/2000/svg">
  <defs
     id="defs2419" />
  <sodipodi:namedview
     id="namedview2419"
     pagecolor="#ffffff"
     bordercolor="#000000"
     borderopacity="0.25"
     inkscape:showpageshadow="2"
     inkscape:pageopacity="0.0"
     inkscape:pagecheckerboard="0"
     inkscape:deskcolor="#d1d1d1"
     inkscape:document-units="pt"
     inkscape:zoom="0.71704276"
     inkscape:cx="986.69151"
     inkscape:cy="1.394617"
     inkscape:window-width="1392"
     inkscape:window-height="1051"
     inkscape:window-x="0"
     inkscape:window-y="472"
     inkscape:window-maximized="0"
     inkscape:current-layer="svg2419" />
  <path
     d="m648.828 73.793 1.461-1.395 6.82 8.024.125 3.637"
     fill="#8b72b9"
     id="path2392" />
  <path
     d="m642.867 67.703-5.12 33.41 19.714-15.386zm0 0"
     fill="#999"
     id="path2393" />
  <path
     transform="scale(.99891 1)"
     stroke-width="1.397"
     stroke-linecap="square"
     stroke-linejoin="round"
     fill="none"
     stroke="#3b3b3b"
     d="m643.565 67.703-5.126 33.41 19.736-15.386zm0 0"
     id="path2394" />
  <path
     d="M650.566 72.715c-.004-.02 2.254-2.231 3.539-3.383l2.489-2.238.062.605c.16 1.59.406 13.145.406 13.145-.218-.18-6.496-8.129-6.496-8.129zm0 0"
     fill="#1cac81"
     id="path2395" />
  <path
     transform="scale(.99891 1)"
     stroke-width="1.397"
     stroke-linecap="square"
     stroke-linejoin="round"
     fill="none"
     stroke="#3b3b3b"
     d="m649.005 73.918 8.857-8.238.282 14.191.109 5.719zm0 0"
     id="path2396" />
  <path
     d="m639.285 91.086-13.004-.391 11.465 10.258zm0 0"
     fill="#666"
     id="path2397" />
  <path
     transform="scale(.99891 1)"
     stroke-width="1.397"
     stroke-linecap="square"
     stroke-linejoin="round"
     fill="none"
     stroke="#3b3b3b"
     d="m639.979 91.086-13.018-.391 11.478 10.258zm0 0"
     id="path2398" />
  <path
     d="m627.309 63.746-.466 3.09"
     fill="#4d4d4d"
     id="path2399" />
  <path
     transform="scale(.99891 1)"
     stroke-width="1.397"
     stroke-linecap="square"
     stroke-linejoin="round"
     fill="none"
     stroke="#666"
     d="m627.99 63.746-.466 3.09"
     id="path2400" />
  <path
     d="m632.453 65.125-1.172 7.406"
     fill="#4d4d4d"
     id="path2401" />
  <path
     transform="scale(.99891 1)"
     stroke-width="1.397"
     stroke-linecap="square"
     stroke-linejoin="round"
     fill="none"
     stroke="#666"
     d="m633.14 65.125-1.173 7.406"
     id="path2402" />
  <path
     d="m635.332 66.051-1.554 9.711"
     fill="#4d4d4d"
     id="path2403" />
  <path
     transform="scale(.99891 1)"
     stroke-width="1.397"
     stroke-linecap="square"
     stroke-linejoin="round"
     fill="none"
     stroke="#666"
     d="m636.022 66.051-1.556 9.711"
     id="path2404" />
  <path
     d="M657.715 71c0-.887-.051-2.273-.024-2.781l.067-1.309 1.637.867 1.707 1.157-.29 1.394-.179 1.508-1.125.406-1.789.699zm0 0"
     fill="#1cac81"
     id="path2405" />
  <path
     d="M624.91 64.645c-.656-.801-1.285-1.649-1.269-1.665.031-.031 2.898.754 2.961.817.039.035-.332 2.371-.321 2.445.031.176-.715-.797-1.371-1.597zm0 0"
     fill="#666"
     id="path2406" />
  <path
     transform="scale(.99891 1)"
     stroke-width="1.397"
     stroke-linecap="square"
     stroke-linejoin="round"
     fill="none"
     stroke="#3b3b3b"
     d="m640.992 84.391 2.565-16.703-21.179-5.985zm0 0"
     id="path2407" />
  <path
     transform="scale(.99891 1)"
     stroke-width="1.516"
     stroke-linecap="square"
     stroke-linejoin="round"
     fill="none"
     stroke="#fc0"
     d="m662.875 71.34-1.005-2.375.059 2.758 1.584-1.098"
     id="path2408" />
  <path
     transform="scale(.99891 1)"
     stroke-width="1.397"
     stroke-linecap="square"
     stroke-linejoin="round"
     fill="none"
     stroke="#3b3b3b"
     d="m657.862 65.676.156 7.929 6.992-2.953zm0 0"
     id="path2409" />
  <path
     d="M637.215 79.43c-1.426-1.742-2.625-3.215-2.66-3.274-.055-.094 1.402-9.531 1.484-9.59.016-.015 1.348.352 2.957.809 2.012.57 2.938.875 2.957.973.02.097-1.82 12.371-2.117 14.109-.012.078-1.191-1.285-2.621-3.027zM632.57 73.758l-.605-.727.558-3.574c.305-1.965.586-3.609.625-3.652.036-.043.375.011.75.125.618.183.68.226.637.414-.027.117-.332 1.984-.676 4.148-.343 2.164-.64 3.949-.656 3.965-.019.016-.305-.297-.633-.699zM629.461 70.008c-.684-.832-1.41-1.723-1.613-1.977l-.379-.457.25-1.64c.133-.903.258-1.649.269-1.664.039-.04 3.688 1.011 3.688 1.062 0 .047-.926 5.949-.961 6.121-.008.039-.574-.613-1.254-1.445zm0 0"
     fill="#ccc"
     id="path2410" />
</svg>
