<svg xmlns="http://www.w3.org/2000/svg" width="64" height="64" viewBox="0 0 64 64">
	<!--<rect fill="#2b2d30" x="0" y="0" width="64" height="64"/>-->
	<!--<rect fill="#f7f8fa" x="0" y="0" width="64" height="64"/>-->
	<!-- Plane v9.2, 64x64, 4px border -->
	<!-- To red: 1cccfc -> fc1b1b, 0068e0 -> e04700, 000094 -> 940000 -->
	<path fill="#0068e0" d="M 18.9 37.5 L 21.3 44.5 L 59.4 55.5 Z"/>
	<path fill="#000094" d="M 32.2 24.9 C 32.6 26.6 32.1 27.8 29.5 27.6 L 59.4 55.5 C 59.7 55.7 59.8 55.5 59.7 55.4 Z"/>
	<path fill="#1cccfc" d="
	M 31.2 11.3 S 30.1 12.3 31.3 13.6 C 32.1 14.6 33.3 14 33.3 14 S 34.5 13.3 33.6 11.9 C 32.5 10.2 31.2 11.3 31.2 11.3 Z
	M 59.4 55.5 L 16.7 36.5 S 2.7 27.9 4.2 24.4 C 5.6 21.1 18 27.8 19.4 28.1 C 20.7 28.4 21.4 27.6 21.4 27 C 21.5 26.2 19.6 23.8 20.6 22.7 C 21.6 21.7 24.7 23.7 24.7 23.7 L 27.3 25.5 Z
	M 59.7 55.4 L 31.4 24.1 S 26.4 18.3 26.6 16.7 C 26.8 15 33.5 20.3 33.5 20.3 S 34.3 21 35 20.9 C 35.7 20.8 34.9 19.6 34.9 19.6 S 33.8 16.9 34.6 16.4 C 35.3 15.9 37.3 17.9 37.3 17.9 S 37.8 18.5 38.3 18.3 C 38.9 18.2 38.6 17.1 38.6 17.1 S 35 8.8 36.6 8.2 C 38.9 7.3 42.3 14.1 43.5 16.2 C 43.7 16.8 59.7 55.4 59.7 55.4 Z
	M 15.6 16.7 S 14.2 17.6 15.8 19.5 C 17.2 21.2 18.6 20.3 18.6 20.3 S 19.9 19.5 18.6 17.9 C 16.9 15.8 15.6 16.7 15.6 16.7 Z
	"/>
</svg>
