<?xml version="1.0" encoding="UTF-8" standalone="no"?>
<svg xmlns="http://www.w3.org/2000/svg" version="1.1" width="72" height="64" viewBox="0 0 72 64">
	<path transform="translate(54,13)" fill="none" stroke="#3b3b3b" d="M 1 8 L 8 1 L 13 6 L 6 13 Z L 8 8 L 8 1 Z" stroke-width="1.5" stroke-linejoin="round"/>
	<path fill="#1cac81" d="M 38.78 22.33 L 50.64 11.14 L 60 17.72 L 50.85 21.68 L 51.17 37.62 Z"/>
	<path fill="#ffcc00" d="M 56.7 15.39 V 19.15 L 60 17.72 Z"/>
	<path fill="#8b72b9" d="M 38.78 22.33 L 40.55 20.68 L 51.08 33.27 L 51.17 37.62 Z"/>
	<!--
	<path fill="#999999" d="M 31.93 13.9 L 25.08 57.9 L 51.17 37.62 Z"/>
	<path fill="#666666" d="M 27.13 44.73 L 10.06 44.2 L 25.08 57.9 Z"/>
	<path fill="#cccccc" d="M 28.51 35.9 L 31.93 13.9 L 4 6 Z"/>
	<path fill="#666666" d="M 4 6 L 12.17 8.31 L 11.37 15 Z"/>
	<path fill="#666666" d="M 15.73 20.3 L 17.17 22.07 L 19.28 10.31 L 17.44 9.8 Z"/>
	<path fill="#666666" d="M 21.12 10.84 L 22.84 11.34 L 20.6 26.26 L 19.02 24.31 Z"/>
	<path fill="#666666" d="M 21.12 10.84 L 22.84 11.34 L 20.6 26.26 L 19.02 24.31 Z"/>
	-->
</svg>
